<svg width="30" height="30" viewBox="0 0 30 30" fill="none" xmlns="http://www.w3.org/2000/svg">
<g clip-path="url(#clip0_180_5019)">
<path d="M19.5962 10.7124C19.551 10.7365 14.5337 13.8199 12.0913 15.3303C11.7235 15.5578 11.5901 15.8435 11.6988 16.242C11.9483 17.1551 12.2213 18.0617 12.4809 18.972C12.5167 19.0973 12.5517 19.2202 12.7052 19.2223C12.896 19.2248 12.9047 19.059 12.9243 18.9325C12.9884 18.5175 13.0577 18.1019 13.0895 17.6838C13.1029 17.4806 13.1564 17.282 13.247 17.0995C13.3376 16.9171 13.4635 16.7545 13.6173 16.621C15.2827 15.0825 19.3282 11.3188 19.6889 10.9789C19.8073 10.8676 19.7978 10.693 19.5962 10.7124Z" fill="#054E5C"/>
<path d="M26.1818 0H3.81818C2.80554 0 1.83437 0.402272 1.11832 1.11832C0.402272 1.83437 0 2.80554 0 3.81818V26.1818C0 27.1945 0.402272 28.1656 1.11832 28.8817C1.83437 29.5977 2.80554 30 3.81818 30H26.1818C27.1945 30 28.1656 29.5977 28.8817 28.8817C29.5977 28.1656 30 27.1945 30 26.1818V3.81818C30 2.80554 29.5977 1.83437 28.8817 1.11832C28.1656 0.402272 27.1945 0 26.1818 0ZM21.4617 22.8438C21.3253 23.4998 20.9734 23.6418 20.4258 23.2443C19.052 22.2468 17.6786 21.2487 16.3058 20.25C15.7285 19.8302 15.4922 19.8438 14.9309 20.3077C14.242 20.877 13.5497 21.442 12.8538 22.0028C12.2937 22.4532 11.9654 22.3505 11.7547 21.6733C11.2364 20.006 10.7103 18.3409 10.2068 16.6695C10.1271 16.405 9.99682 16.2656 9.74489 16.1746C8.46655 15.7124 7.19325 15.2367 5.91811 14.7657C5.66584 14.6723 5.41745 14.5718 5.25266 14.3408C5.25266 13.9277 5.37409 13.7307 5.77084 13.5781C11.797 11.2612 17.8217 8.94073 23.845 6.61677C24.2456 6.46193 24.533 6.51239 24.7479 6.8895C24.7476 7.0048 22.4039 18.3222 21.4617 22.8438Z" fill="#054E5C"/>
</g>
<defs>
<clipPath id="clip0_180_5019">
<rect width="30" height="30" fill="white"/>
</clipPath>
</defs>
</svg>
