<svg width="25" height="24" viewBox="0 0 25 24" fill="none" xmlns="http://www.w3.org/2000/svg">
<path d="M12.6669 11.8652C13.1644 11.8652 13.5898 11.6881 13.9429 11.3338C14.2963 10.9794 14.4729 10.5535 14.4729 10.056C14.4729 9.5585 14.2958 9.13308 13.9414 8.77975C13.5871 8.42658 13.1611 8.25 12.6634 8.25C12.1659 8.25 11.7406 8.42717 11.3874 8.7815C11.0341 9.13583 10.8574 9.56183 10.8574 10.0595C10.8574 10.557 11.0346 10.9823 11.3889 11.3355C11.7433 11.6887 12.1693 11.8652 12.6669 11.8652ZM12.6652 19.5135C14.6215 17.7622 16.1186 16.0823 17.1564 14.474C18.1943 12.8657 18.7132 11.457 18.7132 10.248C18.7132 8.425 18.134 6.92633 16.9757 5.752C15.8174 4.57767 14.3805 3.9905 12.6652 3.9905C10.9499 3.9905 9.51302 4.57767 8.35469 5.752C7.19635 6.92633 6.61719 8.425 6.61719 10.248C6.61719 11.457 7.1361 12.8657 8.17394 14.474C9.21177 16.0823 10.7089 17.7622 12.6652 19.5135ZM12.6652 21.5095C10.1485 19.3288 8.26135 17.2994 7.00369 15.4212C5.74602 13.5429 5.11719 11.8185 5.11719 10.248C5.11719 7.94033 5.8636 6.07208 7.35644 4.64325C8.84944 3.21442 10.619 2.5 12.6652 2.5C14.7114 2.5 16.4809 3.21442 17.9739 4.64325C19.4668 6.07208 20.2132 7.94033 20.2132 10.248C20.2132 11.8185 19.5844 13.5429 18.3267 15.4212C17.069 17.2994 15.1819 19.3288 12.6652 21.5095Z" fill="black"/>
</svg>
