<svg width="24" height="24" viewBox="0 0 24 24" fill="none" xmlns="http://www.w3.org/2000/svg">
<g clip-path="url(#clip0_3956_27840)">
<path d="M15.375 7.06359V5.25C15.375 5.15054 15.3355 5.05516 15.2652 4.98484C15.1948 4.91451 15.0995 4.875 15 4.875H13.125V0.75C13.125 0.650544 13.0855 0.555161 13.0152 0.484835C12.9448 0.414509 12.8495 0.375 12.75 0.375H11.25C11.1505 0.375 11.0552 0.414509 10.9848 0.484835C10.9145 0.555161 10.875 0.650544 10.875 0.75V4.875H9C8.90054 4.875 8.80516 4.91451 8.73483 4.98484C8.66451 5.05516 8.625 5.15054 8.625 5.25V7.06359C5.54156 8.38031 3.375 11.4412 3.375 15C3.375 19.7559 7.24406 23.625 12 23.625C16.7559 23.625 20.625 19.7559 20.625 15C20.625 11.4412 18.4584 8.38031 15.375 7.06359ZM19.8661 14.625H16.8703C16.8389 13.2947 16.6397 12.0178 16.2914 10.875H18.7055C19.4048 12.006 19.8043 13.2967 19.8661 14.625ZM18.1805 10.125H16.0341C15.885 9.73457 15.7104 9.35438 15.5114 8.98688C15.2259 8.44925 14.8674 7.95375 14.4459 7.51453C15.92 7.99927 17.2188 8.90715 18.1805 10.125ZM12.375 14.625V10.875H15.5058C15.8752 12.0005 16.087 13.2816 16.1203 14.625H12.375ZM16.1203 15.375C16.087 16.7184 15.8752 17.9995 15.5058 19.125H12.375V15.375H16.1203ZM12.375 10.125V7.15875C13.2961 7.32188 14.1642 8.08406 14.8528 9.34594C14.9902 9.59917 15.1148 9.85919 15.2259 10.125H12.375ZM11.625 1.125H12.375V4.875H11.625V1.125ZM9.55406 7.51453C9.13262 7.95375 8.77405 8.44925 8.48859 8.98688C8.2896 9.35438 8.11501 9.73457 7.96594 10.125H5.81953C6.78117 8.90715 8.07998 7.99927 9.55406 7.51453ZM5.29453 10.875H7.70859C7.36031 12.0178 7.16109 13.2947 7.12969 14.625H4.13391C4.19574 13.2967 4.5952 12.006 5.29453 10.875ZM4.13391 15.375H7.12969C7.16109 16.7053 7.36031 17.9822 7.70859 19.125H5.29453C4.5952 17.994 4.19574 16.7033 4.13391 15.375ZM5.81953 19.875H7.96594C8.11501 20.2654 8.2896 20.6456 8.48859 21.0131C8.77405 21.5508 9.13262 22.0462 9.55406 22.4855C8.07998 22.0007 6.78117 21.0928 5.81953 19.875ZM11.625 22.8412C10.7039 22.6781 9.83578 21.9159 9.14719 20.6541C9.00976 20.4008 8.88523 20.1408 8.77406 19.875H11.625V22.8412ZM11.625 19.125H8.49422C8.12484 17.9995 7.91297 16.7184 7.87969 15.375H11.625V19.125ZM11.625 14.625H7.87969C7.91297 13.2816 8.12484 12.0005 8.49422 10.875H11.625V14.625ZM11.625 10.125H8.77406C8.88523 9.85919 9.00976 9.59917 9.14719 9.34594C9.83578 8.08406 10.7039 7.32188 11.625 7.15875V10.125ZM9.375 6.375V5.625H14.625V6.375H9.375ZM12.375 22.8412V19.875H15.2259C15.1148 20.1408 14.9902 20.4008 14.8528 20.6541C14.1642 21.9159 13.2961 22.6781 12.375 22.8412ZM14.4459 22.4855C14.8674 22.0462 15.2259 21.5508 15.5114 21.0131C15.7104 20.6456 15.885 20.2654 16.0341 19.875H18.1805C17.2188 21.0928 15.92 22.0007 14.4459 22.4855ZM18.7055 19.125H16.2914C16.6397 17.9822 16.8389 16.7053 16.8703 15.375H19.8661C19.8043 16.7033 19.4048 17.994 18.7055 19.125Z" fill="#054e5c"/>
<mask id="path-2-inside-1_3956_27840" fill="white">
<path d="M3 7.875H3.75V8.625C3.75 8.72446 3.78951 8.81984 3.85984 8.89017C3.93016 8.96049 4.02554 9 4.125 9C4.22446 9 4.31984 8.96049 4.39016 8.89017C4.46049 8.81984 4.5 8.72446 4.5 8.625V7.875H5.25C5.34946 7.875 5.44484 7.83549 5.51516 7.76517C5.58549 7.69484 5.625 7.59946 5.625 7.5C5.625 7.40054 5.58549 7.30516 5.51516 7.23483C5.44484 7.16451 5.34946 7.125 5.25 7.125H4.5V6.375C4.5 6.27554 4.46049 6.18016 4.39016 6.10983C4.31984 6.03951 4.22446 6 4.125 6C4.02554 6 3.93016 6.03951 3.85984 6.10983C3.78951 6.18016 3.75 6.27554 3.75 6.375V7.125H3C2.90054 7.125 2.80516 7.16451 2.73484 7.23483C2.66451 7.30516 2.625 7.40054 2.625 7.5C2.625 7.59946 2.66451 7.69484 2.73484 7.76517C2.80516 7.83549 2.90054 7.875 3 7.875Z"/>
</mask>
<path d="M3 7.875H3.75V8.625C3.75 8.72446 3.78951 8.81984 3.85984 8.89017C3.93016 8.96049 4.02554 9 4.125 9C4.22446 9 4.31984 8.96049 4.39016 8.89017C4.46049 8.81984 4.5 8.72446 4.5 8.625V7.875H5.25C5.34946 7.875 5.44484 7.83549 5.51516 7.76517C5.58549 7.69484 5.625 7.59946 5.625 7.5C5.625 7.40054 5.58549 7.30516 5.51516 7.23483C5.44484 7.16451 5.34946 7.125 5.25 7.125H4.5V6.375C4.5 6.27554 4.46049 6.18016 4.39016 6.10983C4.31984 6.03951 4.22446 6 4.125 6C4.02554 6 3.93016 6.03951 3.85984 6.10983C3.78951 6.18016 3.75 6.27554 3.75 6.375V7.125H3C2.90054 7.125 2.80516 7.16451 2.73484 7.23483C2.66451 7.30516 2.625 7.40054 2.625 7.5C2.625 7.59946 2.66451 7.69484 2.73484 7.76517C2.80516 7.83549 2.90054 7.875 3 7.875Z" fill="#010101"/>
<path d="M3.75 7.875H4.75V6.875H3.75V7.875ZM4.5 7.875V6.875H3.5V7.875H4.5ZM4.5 7.125H3.5V8.125H4.5V7.125ZM3.75 7.125V8.125H4.75V7.125H3.75ZM3 8.875H3.75V6.875H3V8.875ZM2.75 7.875V8.625H4.75V7.875H2.75ZM2.75 8.625C2.75 8.98967 2.89487 9.33941 3.15273 9.59727L4.56694 8.18306C4.68415 8.30027 4.75 8.45924 4.75 8.625H2.75ZM3.15273 9.59727C3.41059 9.85514 3.76033 10 4.125 10V8C4.29076 8 4.44973 8.06585 4.56694 8.18306L3.15273 9.59727ZM4.125 10C4.48967 10 4.83941 9.85514 5.09727 9.59727L3.68306 8.18306C3.80027 8.06585 3.95924 8 4.125 8V10ZM5.09727 9.59727C5.35513 9.33941 5.5 8.98967 5.5 8.625H3.5C3.5 8.45924 3.56585 8.30027 3.68306 8.18306L5.09727 9.59727ZM5.5 8.625V7.875H3.5V8.625H5.5ZM4.5 8.875H5.25V6.875H4.5V8.875ZM5.25 8.875C5.61467 8.875 5.96441 8.73014 6.22227 8.47227L4.80806 7.05806C4.92527 6.94085 5.08424 6.875 5.25 6.875V8.875ZM6.22227 8.47227C6.48013 8.21441 6.625 7.86467 6.625 7.5H4.625C4.625 7.33424 4.69085 7.17527 4.80806 7.05806L6.22227 8.47227ZM6.625 7.5C6.625 7.13533 6.48013 6.78559 6.22227 6.52773L4.80806 7.94194C4.69085 7.82473 4.625 7.66576 4.625 7.5H6.625ZM6.22227 6.52773C5.96441 6.26986 5.61467 6.125 5.25 6.125V8.125C5.08424 8.125 4.92527 8.05915 4.80806 7.94194L6.22227 6.52773ZM5.25 6.125H4.5V8.125H5.25V6.125ZM5.5 7.125V6.375H3.5V7.125H5.5ZM5.5 6.375C5.5 6.01033 5.35513 5.66059 5.09727 5.40273L3.68306 6.81694C3.56585 6.69973 3.5 6.54076 3.5 6.375H5.5ZM5.09727 5.40273C4.83941 5.14486 4.48967 5 4.125 5V7C3.95924 7 3.80027 6.93415 3.68306 6.81694L5.09727 5.40273ZM4.125 5C3.76033 5 3.41059 5.14486 3.15273 5.40273L4.56694 6.81694C4.44973 6.93415 4.29076 7 4.125 7V5ZM3.15273 5.40273C2.89487 5.66059 2.75 6.01033 2.75 6.375H4.75C4.75 6.54076 4.68415 6.69973 4.56694 6.81694L3.15273 5.40273ZM2.75 6.375V7.125H4.75V6.375H2.75ZM3.75 6.125H3V8.125H3.75V6.125ZM3 6.125C2.63533 6.125 2.28559 6.26986 2.02773 6.52773L3.44194 7.94194C3.32473 8.05915 3.16576 8.125 3 8.125V6.125ZM2.02773 6.52773C1.76987 6.78559 1.625 7.13533 1.625 7.5H3.625C3.625 7.66576 3.55915 7.82473 3.44194 7.94194L2.02773 6.52773ZM1.625 7.5C1.625 7.86467 1.76987 8.21441 2.02773 8.47227L3.44194 7.05806C3.55915 7.17527 3.625 7.33424 3.625 7.5H1.625ZM2.02773 8.47227C2.28559 8.73014 2.63533 8.875 3 8.875V6.875C3.16576 6.875 3.32473 6.94085 3.44194 7.05806L2.02773 8.47227Z" fill="#054e5c" mask="url(#path-2-inside-1_3956_27840)"/>
<path d="M3 21.75H2.25V21C2.25 20.9005 2.21049 20.8052 2.14016 20.7348C2.06984 20.6645 1.97446 20.625 1.875 20.625C1.77554 20.625 1.68016 20.6645 1.60984 20.7348C1.53951 20.8052 1.5 20.9005 1.5 21V21.75H0.75C0.650544 21.75 0.555161 21.7895 0.484835 21.8598C0.414509 21.9302 0.375 22.0255 0.375 22.125C0.375 22.2245 0.414509 22.3198 0.484835 22.3902C0.555161 22.4605 0.650544 22.5 0.75 22.5H1.5V23.25C1.5 23.3495 1.53951 23.4448 1.60984 23.5152C1.68016 23.5855 1.77554 23.625 1.875 23.625C1.97446 23.625 2.06984 23.5855 2.14016 23.5152C2.21049 23.4448 2.25 23.3495 2.25 23.25V22.5H3C3.09946 22.5 3.19484 22.4605 3.26516 22.3902C3.33549 22.3198 3.375 22.2245 3.375 22.125C3.375 22.0255 3.33549 21.9302 3.26516 21.8598C3.19484 21.7895 3.09946 21.75 3 21.75Z" fill="#054e5c"/>
<path d="M18.375 4.875H19.125V5.625C19.125 5.72446 19.1645 5.81984 19.2348 5.89016C19.3052 5.96049 19.4005 6 19.5 6C19.5995 6 19.6948 5.96049 19.7652 5.89016C19.8355 5.81984 19.875 5.72446 19.875 5.625V4.875H20.625C20.7245 4.875 20.8198 4.83549 20.8902 4.76516C20.9605 4.69484 21 4.59946 21 4.5C21 4.40054 20.9605 4.30516 20.8902 4.23484C20.8198 4.16451 20.7245 4.125 20.625 4.125H19.875V3.375C19.875 3.27554 19.8355 3.18016 19.7652 3.10984C19.6948 3.03951 19.5995 3 19.5 3C19.4005 3 19.3052 3.03951 19.2348 3.10984C19.1645 3.18016 19.125 3.27554 19.125 3.375V4.125H18.375C18.2755 4.125 18.1802 4.16451 18.1098 4.23484C18.0395 4.30516 18 4.40054 18 4.5C18 4.59946 18.0395 4.69484 18.1098 4.76516C18.1802 4.83549 18.2755 4.875 18.375 4.875Z" fill="#054e5c"/>
<path d="M23.25 20.625H22.5V19.875C22.5 19.7755 22.4605 19.6802 22.3902 19.6098C22.3198 19.5395 22.2245 19.5 22.125 19.5C22.0255 19.5 21.9302 19.5395 21.8598 19.6098C21.7895 19.6802 21.75 19.7755 21.75 19.875V20.625H21C20.9005 20.625 20.8052 20.6645 20.7348 20.7348C20.6645 20.8052 20.625 20.9005 20.625 21C20.625 21.0995 20.6645 21.1948 20.7348 21.2652C20.8052 21.3355 20.9005 21.375 21 21.375H21.75V22.125C21.75 22.2245 21.7895 22.3198 21.8598 22.3902C21.9302 22.4605 22.0255 22.5 22.125 22.5C22.2245 22.5 22.3198 22.4605 22.3902 22.3902C22.4605 22.3198 22.5 22.2245 22.5 22.125V21.375H23.25C23.3495 21.375 23.4448 21.3355 23.5152 21.2652C23.5855 21.1948 23.625 21.0995 23.625 21C23.625 20.9005 23.5855 20.8052 23.5152 20.7348C23.4448 20.6645 23.3495 20.625 23.25 20.625Z" fill="#054e5c"/>
</g>
<defs>
<clipPath id="clip0_3956_27840">
<rect width="24" height="24" fill="white"/>
</clipPath>
</defs>
</svg>
