<svg width="986" height="378" viewBox="0 0 986 378" fill="none" xmlns="http://www.w3.org/2000/svg">
<path d="M493.001 367.87C642.682 367.87 764.022 413.358 764.022 266.29C764.022 119.222 642.682 3.05176e-05 493.001 3.05176e-05C343.321 3.05176e-05 221.98 119.222 221.98 266.29C221.98 413.358 343.321 367.87 493.001 367.87Z" fill="#FFEAB3"/>
<path d="M563.381 367.916C563.381 355.278 565.375 342.744 568.914 330.594C569.511 328.546 569.83 326.382 569.83 324.145C569.83 316.304 565.905 309.365 559.88 305.118C558.403 304.077 557.204 302.691 556.429 301.075C552.62 293.135 544.4 287.639 534.873 287.639C530.685 287.639 526.751 288.702 523.331 290.567C518.276 285.979 511.519 283.174 504.094 283.174C503.524 283.174 502.958 283.19 502.396 283.223C498.812 283.431 495.429 281.669 493.541 278.667C486.557 267.563 472.606 259.988 456.532 259.988C451.472 259.988 446.623 260.74 442.135 262.116C438.5 263.23 434.57 262.865 431.229 261.069C426.36 258.452 420.774 256.964 414.832 256.964C411.376 256.964 408.039 257.467 404.893 258.404C402.762 259.039 400.445 258.591 398.727 257.198C391.114 251.025 381.356 247.315 370.715 247.315C351.524 247.315 335.202 259.375 329.167 276.202C327.699 280.293 324.29 283.437 320.035 284.592C310.21 287.26 301.985 292.883 296.867 300.203C294.289 303.891 290.045 306.084 285.492 306.071C285.465 306.071 285.438 306.071 285.412 306.071C273.412 306.071 263.155 313.393 259.012 323.738C257.703 327.007 255.179 329.679 251.908 331.099C243.538 334.731 237.698 342.96 237.703 352.529C237.711 365.403 248.433 375.925 261.536 375.917C265.178 375.915 268.628 375.109 271.713 373.671C278.929 370.308 286.817 368.572 294.803 368.572H563.38V367.916H563.381Z" fill="#3C8E9F"/>
<path d="M399.593 367.916C399.593 355.278 397.599 342.744 394.06 330.594C393.464 328.546 393.145 326.382 393.145 324.145C393.145 316.304 397.07 309.365 403.095 305.118C404.572 304.077 405.771 302.691 406.546 301.075C410.355 293.135 418.575 287.639 428.101 287.639C432.29 287.639 436.224 288.702 439.643 290.567C444.699 285.979 451.456 283.174 458.881 283.174C459.451 283.174 460.017 283.19 460.578 283.223C464.162 283.431 467.545 281.669 469.433 278.667C476.417 267.563 490.369 259.988 506.443 259.988C511.503 259.988 516.351 260.74 520.84 262.116C524.475 263.23 528.405 262.865 531.745 261.069C536.614 258.452 542.201 256.964 548.142 256.964C551.599 256.964 554.935 257.467 558.081 258.404C560.213 259.039 562.529 258.591 564.247 257.198C571.86 251.025 581.618 247.315 592.26 247.315C611.45 247.315 627.773 259.375 633.808 276.202C635.275 280.293 638.684 283.437 642.94 284.592C652.764 287.26 660.989 292.883 666.107 300.203C668.685 303.891 672.929 306.084 677.482 306.071C677.509 306.071 677.536 306.071 677.563 306.071C689.562 306.071 699.819 313.393 703.962 323.738C705.271 327.007 707.796 329.679 711.066 331.099C719.436 334.731 725.277 342.96 725.271 352.529C725.264 365.403 714.541 375.925 701.439 375.917C697.797 375.915 694.346 375.109 691.261 373.671C684.046 370.308 676.157 368.572 668.172 368.572H399.594V367.916H399.593Z" fill="#0B7287"/>
<path d="M0.875 377.348C0.875 377.348 469.568 230.701 985.125 377.348H0.875Z" fill="#FFDB7F"/>
<path d="M403.721 329.487C403.721 329.487 435.782 244.146 351.391 180.386C351.391 180.386 420.737 234.68 393.154 329.487H403.721Z" fill="#FFB901"/>
<path d="M350.861 181.465C350.861 181.465 389.989 151.858 435.84 185.63L419.912 182.178L427.891 186.798L410.574 181.705L417.372 186.282L401.281 181.249L406.463 185.747L391.075 181.132L393.821 185.128L377.364 181.259L380.911 184.495L368.214 180.78L370.231 183.972C370.231 183.972 358.516 176.856 350.861 181.465Z" fill="#3C8E9F"/>
<path d="M351.779 180.864C351.779 180.864 364.596 139.368 415.794 140.544L402.384 146.159L410.629 145.449L395.342 150.578L402.705 150.44L388.341 154.988L394.488 155.616L380.856 160.109L384.965 161.614L370.95 167.196L375.24 167.74L364.041 171.515L367.195 172.808C367.194 172.807 354.911 173.606 351.779 180.864Z" fill="#3C8E9F"/>
<path d="M352.298 181.137C352.298 181.137 313.273 160.882 278.094 197.449L291.591 192.039L285.275 197.295L299.742 190.233L294.461 195.276L307.857 188.449L303.986 193.182L316.828 186.828L315.025 190.755L328.924 184.899L326.298 188.277L336.909 183.116L335.624 186.227C335.624 186.227 344.845 178.215 352.298 181.137Z" fill="#3C8E9F"/>
<path d="M353.752 180.154C353.752 180.154 306.653 194.748 308.614 251.019L314.845 236.208L314.137 245.281L319.792 228.413L319.725 236.509L324.728 220.663L325.519 227.412L330.47 212.371L332.233 216.87L338.419 201.394L339.091 206.104L343.253 193.746L344.764 197.197C344.764 197.197 345.524 183.685 353.752 180.154Z" fill="#3C8E9F"/>
<path d="M351.964 181.092C351.964 181.092 337.525 147.269 371.519 120.894L365.868 131.66L370.848 126.827L363.707 138.272L368.428 134.279L361.569 144.855L365.918 142.006L359.506 152.159L363.009 150.961L356.944 162.027L360.038 160.107L354.816 168.502L357.58 167.673C357.58 167.673 350.019 174.704 351.964 181.092Z" fill="#3C8E9F"/>
<path d="M351.75 180.598C351.75 180.598 336.182 147.262 293.414 153.998L305.305 157.197L298.313 157.528L311.721 160.11L305.534 160.821L318.101 163.019L313.023 164.236L324.97 166.47L321.701 168.193L334.096 171.296L330.564 172.234L340.388 174.139L337.896 175.577C337.895 175.577 348.281 174.867 351.75 180.598Z" fill="#3C8E9F"/>
<path d="M446.893 80.96C446.893 80.96 510.63 61.0388 553.112 124.853L534.459 113.226L542.443 122.73L522.795 108.383L529.295 117.297L511.178 103.583L515.659 111.663L498.241 98.7998L499.858 105.133L480.727 92.7336L483.72 98.4643L469.305 87.9686L470.37 92.9475C470.371 92.9482 458.806 78.5682 446.893 80.96Z" fill="#3C8E9F"/>
<path d="M448.34 80.6104C448.34 80.6104 484.177 33.6064 548.799 58.354L529.086 59.4117L539.916 62.2527L518.042 61.8395L527.481 65.0078L507.056 64.2735L514.585 67.865L495.118 67.3939L499.641 71.1756L479.173 71.9153L484.379 74.5567L468.347 74.2756L471.753 77.3537C471.753 77.3537 455.742 72.7938 448.34 80.6104Z" fill="#3C8E9F"/>
<path d="M448.874 81.1945C448.874 81.1945 408.723 37.6872 346.738 68.2613L366.465 67.5038L355.953 71.327L377.692 68.9066L368.596 72.9275L388.861 70.3208L381.707 74.5879L401.044 72.3313L396.901 76.5118L417.349 75.3687L412.417 78.4765L428.353 76.7247L425.254 80.1022C425.254 80.1022 440.761 74.0914 448.874 81.1945Z" fill="#3C8E9F"/>
<path d="M451.187 80.6033C451.187 80.6033 384.364 77.7934 360.391 150.318L375.29 134.293L370.121 145.521L385.255 126.615L381.36 136.892L395.185 118.991L393.015 127.942L406.394 111.043L406.523 117.571L421.677 100.678L420.317 106.98L431.428 93.1385L431.728 98.2178C431.728 98.2189 439.053 81.3627 451.187 80.6033Z" fill="#3C8E9F"/>
<path d="M448.473 80.986C448.473 80.986 446.004 31.3724 501.684 13.234L489.425 24.3731L498.039 20.4823L483.565 31.8092L491.453 28.8691L477.746 39.2184L484.622 37.5663L471.684 47.5795L476.707 47.6453L463.782 58.9775L468.623 57.9381L458.026 66.2541L461.935 66.4533C461.935 66.4533 449.002 71.9708 448.473 80.986Z" fill="#3C8E9F"/>
<path d="M448.429 80.2591C448.429 80.2591 444.292 30.7528 386.68 19.9045L400.312 29.3776L391.255 26.6238L407.109 35.9988L398.899 34.0946L413.862 42.599L406.826 41.8419L420.982 50.1117L416.011 50.8206L430.33 60.3999L425.393 59.9896L437.002 66.8767L433.153 67.5752C433.153 67.5752 446.708 71.3884 448.429 80.2591Z" fill="#3C8E9F"/>
<path d="M450.322 329.487L461.885 328.872C461.885 328.872 490.318 213.12 448.107 78.7051C448.107 78.7051 485.168 235.425 450.322 329.487Z" fill="#FFB901"/>
<path d="M349.504 329.487C349.504 329.487 365.366 287.266 323.615 255.722C323.615 255.722 357.923 282.583 344.277 329.487H349.504Z" fill="#FFB901"/>
<path d="M323.352 256.256C323.352 256.256 342.709 241.609 365.393 258.316L357.513 256.609L361.46 258.894L352.893 256.375L356.256 258.639L348.296 256.15L350.86 258.375L343.247 256.092L344.606 258.069L336.464 256.155L338.219 257.756L331.937 255.917L332.935 257.497C332.935 257.497 327.139 253.976 323.352 256.256Z" fill="#3C8E9F"/>
<path d="M323.805 255.959C323.805 255.959 330.146 235.429 355.475 236.011L348.84 238.789L352.919 238.437L345.356 240.975L348.999 240.906L341.893 243.156L344.934 243.467L338.19 245.69L340.223 246.435L333.288 249.196L335.411 249.465L329.871 251.333L331.431 251.973C331.431 251.973 325.354 252.368 323.805 255.959Z" fill="#3C8E9F"/>
<path d="M324.063 256.094C324.063 256.094 304.756 246.073 287.352 264.164L294.029 261.487L290.905 264.088L298.062 260.594L295.449 263.089L302.076 259.712L300.161 262.053L306.515 258.909L305.622 260.852L312.498 257.955L311.199 259.627L316.449 257.073L315.813 258.612C315.813 258.612 320.376 254.648 324.063 256.094Z" fill="#3C8E9F"/>
<path d="M324.782 255.607C324.782 255.607 301.481 262.828 302.451 290.667L305.534 283.339L305.184 287.828L307.981 279.483L307.948 283.488L310.424 275.648L310.815 278.988L313.264 271.546L314.137 273.772L317.197 266.116L317.529 268.446L319.588 262.332L320.335 264.039C320.335 264.039 320.712 257.355 324.782 255.607Z" fill="#3C8E9F"/>
<path d="M323.898 256.071C323.898 256.071 316.755 239.338 333.572 226.29L330.776 231.617L333.24 229.225L329.707 234.888L332.042 232.912L328.649 238.144L330.801 236.735L327.629 241.758L329.361 241.165L326.361 246.639L327.892 245.689L325.309 249.843L326.676 249.432C326.676 249.432 322.935 252.911 323.898 256.071Z" fill="#3C8E9F"/>
<path d="M323.792 255.827C323.792 255.827 316.09 239.335 294.932 242.667L300.815 244.25L297.355 244.413L303.989 245.691L300.928 246.043L307.145 247.13L304.633 247.732L310.543 248.838L308.926 249.69L315.058 251.225L313.31 251.689L318.171 252.631L316.938 253.343C316.938 253.343 322.076 252.992 323.792 255.827Z" fill="#3C8E9F"/>
<path d="M563.92 329.487C564.413 322.896 565.654 316.375 567.509 310.005C567.921 308.588 568.142 307.091 568.142 305.543C568.142 300.117 565.426 295.315 561.257 292.377C560.235 291.656 559.405 290.697 558.869 289.579C556.233 284.084 550.546 280.281 543.953 280.281C541.055 280.281 538.333 281.017 535.966 282.308C532.468 279.133 527.793 277.192 522.655 277.192C522.26 277.192 521.869 277.204 521.48 277.226C519 277.37 516.659 276.15 515.353 274.074C510.52 266.39 500.866 261.149 489.743 261.149C486.242 261.149 482.886 261.669 479.781 262.621C477.265 263.392 474.546 263.139 472.234 261.897C468.865 260.086 465 259.056 460.889 259.056C458.497 259.056 456.188 259.405 454.011 260.053C452.536 260.492 450.933 260.182 449.745 259.218C444.477 254.946 437.724 252.379 430.361 252.379C417.081 252.379 405.787 260.724 401.61 272.368C400.595 275.199 398.236 277.374 395.291 278.174C388.493 280.02 382.802 283.91 379.26 288.976C377.477 291.528 374.54 293.046 371.389 293.037C371.371 293.037 371.352 293.037 371.333 293.037C363.03 293.037 355.933 298.103 353.066 305.261C352.16 307.524 350.413 309.373 348.15 310.355C342.358 312.868 338.316 318.562 338.32 325.184C338.321 326.672 338.53 328.115 338.918 329.487H563.92Z" fill="#054E5C"/>
<path d="M564.99 329.487C564.99 329.487 542.77 270.34 601.258 226.151C601.258 226.151 553.197 263.78 572.313 329.487H564.99Z" fill="#FFB901"/>
<path d="M601.624 226.899C601.624 226.899 574.507 206.379 542.729 229.785L553.768 227.393L548.238 230.595L560.239 227.065L555.528 230.238L566.68 226.749L563.088 229.867L573.753 226.669L571.85 229.437L583.256 226.756L580.797 228.999L589.597 226.424L588.2 228.636C588.2 228.636 596.319 223.704 601.624 226.899Z" fill="#3C8E9F"/>
<path d="M600.989 226.482C600.989 226.482 592.106 197.722 556.623 198.538L565.917 202.429L560.203 201.937L570.798 205.492L565.694 205.396L575.65 208.548L571.39 208.984L580.837 212.098L577.99 213.141L587.703 217.008L584.729 217.386L592.491 220.002L590.305 220.898C590.306 220.898 598.818 221.452 600.989 226.482Z" fill="#3C8E9F"/>
<path d="M600.629 226.671C600.629 226.671 627.676 212.633 652.057 237.976L642.702 234.227L647.08 237.87L637.053 232.975L640.714 236.471L631.429 231.739L634.112 235.019L625.212 230.616L626.462 233.338L616.829 229.279L618.649 231.621L611.295 228.043L612.185 230.2C612.185 230.199 605.794 224.646 600.629 226.671Z" fill="#3C8E9F"/>
<path d="M599.621 225.99C599.621 225.99 632.264 236.105 630.904 275.104L626.586 264.839L627.076 271.127L623.157 259.436L623.204 265.048L619.736 254.065L619.188 258.743L615.757 248.319L614.534 251.437L610.247 240.711L609.782 243.975L606.897 235.411L605.85 237.802C605.85 237.802 605.323 228.437 599.621 225.99Z" fill="#3C8E9F"/>
<path d="M600.859 226.64C600.859 226.64 610.866 203.199 587.307 184.919L591.223 192.381L587.771 189.031L592.721 196.964L589.449 194.196L594.202 201.526L591.189 199.551L595.632 206.588L593.205 205.758L597.407 213.427L595.264 212.097L598.882 217.915L596.967 217.34C596.967 217.34 602.207 222.213 600.859 226.64Z" fill="#3C8E9F"/>
<path d="M601.008 226.297C601.008 226.297 611.797 203.194 641.439 207.862L633.197 210.079L638.043 210.309L628.751 212.098L633.039 212.591L624.329 214.114L627.849 214.957L619.569 216.506L621.834 217.7L613.243 219.851L615.691 220.501L608.883 221.821L610.61 222.818C610.61 222.818 603.412 222.326 601.008 226.297Z" fill="#3C8E9F"/>
<path d="M537.768 329.487C537.768 329.487 494.348 213.908 608.64 127.557C608.64 127.557 514.723 201.089 552.079 329.487H537.768Z" fill="#FFB901"/>
<path d="M609.358 129.018C609.358 129.018 556.367 88.9203 494.27 134.658L515.842 129.984L505.036 136.241L528.488 129.343L519.282 135.542L541.074 128.726L534.056 134.818L554.896 128.569L551.177 133.979L573.466 128.74L568.661 133.122L585.857 128.091L583.126 132.414C583.126 132.414 598.991 122.775 609.358 129.018Z" fill="#3C8E9F"/>
<path d="M608.118 128.204C608.118 128.204 590.76 72.0048 521.422 73.5975L539.584 81.2017L528.417 80.2406L549.121 87.187L539.149 87L558.602 93.1588L550.278 94.0097L568.74 100.095L563.175 102.133L582.157 109.692L576.346 110.429L591.513 115.541L587.242 117.292C587.242 117.292 603.876 118.374 608.118 128.204Z" fill="#3C8E9F"/>
<path d="M607.412 128.573C607.412 128.573 660.265 101.141 707.908 150.665L689.629 143.338L698.182 150.457L678.589 140.892L685.742 147.722L667.599 138.476L672.842 144.886L655.45 136.28L657.892 141.599L639.068 133.668L642.624 138.243L628.254 131.253L629.993 135.467C629.993 135.467 617.505 124.617 607.412 128.573Z" fill="#3C8E9F"/>
<path d="M605.443 127.241C605.443 127.241 669.23 147.008 666.574 223.217L658.135 203.158L659.094 215.446L651.435 192.6L651.527 203.566L644.75 182.104L643.68 191.245L636.975 170.875L634.586 176.967L626.209 156.008L625.299 162.387L619.662 145.651L617.616 150.324C617.616 150.324 616.585 132.025 605.443 127.241Z" fill="#3C8E9F"/>
<path d="M607.866 128.513C607.866 128.513 627.42 82.7061 581.383 46.9857L589.037 61.5667L582.291 55.0209L591.962 70.5212L585.569 65.1127L594.858 79.437L588.969 75.5783L597.652 89.3289L592.909 87.7064L601.122 102.692L596.932 100.092L604.004 111.462L600.26 110.338C600.26 110.338 610.5 119.861 607.866 128.513Z" fill="#3C8E9F"/>
<path d="M608.152 127.843C608.152 127.843 629.237 82.6965 687.158 91.8179L671.054 96.1508L680.523 96.5993L662.365 100.096L670.744 101.059L653.725 104.035L660.602 105.684L644.423 108.71L648.849 111.043L632.062 115.246L636.846 116.516L623.541 119.097L626.916 121.044C626.916 121.043 612.851 120.082 608.152 127.843Z" fill="#3C8E9F"/>
</svg>
