<svg width="472" height="69" viewBox="0 0 472 69" fill="none" xmlns="http://www.w3.org/2000/svg">
<path d="M57.9685 51.1569C57.9685 53.1127 57.9302 55.0685 57.9685 56.986C58.0068 57.753 57.7003 57.9447 56.9725 57.9447C53.0266 57.9064 49.0424 57.9064 45.0966 57.9447C44.5986 57.9447 44.2538 57.7913 43.9473 57.4462C38.3158 51.272 35.2511 44.0239 34.7914 35.6638C34.7531 34.8968 34.9829 34.7434 35.7108 34.7818C44.0622 35.2419 51.3027 38.3099 57.4705 43.9472C57.8153 44.2924 57.9685 44.6375 57.9685 45.0977C57.9685 47.1302 57.9685 49.1627 57.9685 51.1569Z" fill="#0B7287"/>
<path d="M17.2395 57.9439C15.2474 57.9439 13.217 57.9055 11.2249 57.9439C10.6119 57.9439 10.4204 57.7521 10.4204 57.1386C10.4587 53.1119 10.4587 49.0852 10.4204 45.0969C10.4204 44.5983 10.6119 44.2532 10.9567 43.9464C17.0862 38.3474 24.2884 35.2795 32.6015 34.8193C33.406 34.7809 33.6358 34.9727 33.5975 35.8164C33.0995 44.1765 30.0347 51.3862 24.365 57.5604C24.0585 57.9055 23.7137 58.0206 23.254 57.9822C21.2619 57.9439 19.2698 57.9439 17.2395 57.9439Z" fill="#0B7287"/>
<path d="M10.4218 17.1399C10.4218 15.1457 10.4601 13.1899 10.4218 11.1957C10.4218 10.5821 10.6133 10.3904 11.2262 10.3904C15.2487 10.4287 19.2712 10.4287 23.2937 10.3904C23.83 10.3904 24.1748 10.6205 24.5196 11.004C29.9212 16.9481 32.9859 23.9277 33.5605 31.9811C33.7138 33.8602 33.7521 33.6301 32.1048 33.515C24.2897 33.0165 17.4706 30.1019 11.5327 25.0015C10.7665 24.3112 10.3451 23.6209 10.4218 22.5471C10.4984 20.7447 10.4218 18.9423 10.4218 17.1399Z" fill="#0B7287"/>
<path d="M57.9618 17.3314C57.9618 19.2872 57.9618 21.243 57.9618 23.1605C57.9618 23.6974 57.8085 24.0425 57.4254 24.426C51.5641 29.7566 44.7068 32.8245 36.7768 33.4381C34.7081 33.5915 34.7081 33.5531 34.8613 31.4823C35.4742 23.8891 38.3474 17.293 43.2893 11.5406C43.9789 10.7353 44.6685 10.3518 45.7794 10.3518C49.4954 10.4285 53.1731 10.3902 56.8891 10.3518C57.6553 10.3518 57.9618 10.5436 57.9235 11.3489C57.9235 13.3814 57.9618 15.3372 57.9618 17.3314Z" fill="#0B7287"/>
<path d="M4.14041 50.4276C2.18664 46.8227 0.960745 43.1795 0.386106 39.3446C-0.648244 32.2116 0.386092 25.3471 3.60407 18.8661C4.10209 17.869 4.10209 17.869 4.75335 18.8277C5.94094 20.5918 7.24345 22.3175 8.77582 23.8131C9.15891 24.1966 9.35046 24.5801 9.35046 25.1554C9.35046 31.1379 9.35046 37.1587 9.35046 43.1412C9.35046 43.4863 9.42709 43.8315 9.12061 44.1383C7.24346 46.0174 5.67278 48.0883 4.14041 50.4276Z" fill="#29A9C2"/>
<path d="M18.0447 4.10421C28.1583 -1.68653 41.7198 -0.996241 50.3011 4.14257C48.8836 5.13965 47.3896 5.94498 46.2786 7.21051C44.7462 8.93623 42.9457 9.35807 40.6855 9.28137C35.667 9.12797 30.6101 9.20467 25.5533 9.24302C24.7871 9.24302 24.2508 9.05127 23.6761 8.51438C21.9905 6.86536 20.1134 5.44644 18.0447 4.10421Z" fill="#29A9C2"/>
<path d="M59.1155 34.0922C59.1155 31.1393 59.1155 28.1481 59.1155 25.1952C59.1155 24.6583 59.2687 24.2364 59.6518 23.8529C61.1076 22.3573 62.3718 20.7466 63.5593 19.0209C63.7509 18.7141 63.8658 18.1389 64.2489 18.1772C64.6703 18.2156 64.7469 18.7908 64.9002 19.136C68.348 26.3073 69.1908 33.7471 67.5818 41.532C66.9689 44.3698 65.9728 47.0159 64.7086 49.6237C64.4021 50.2373 64.2106 50.429 63.7892 49.7004C62.6016 47.7829 61.1842 46.0572 59.6518 44.4465C59.307 44.063 59.1538 43.6795 59.1538 43.181C59.1155 40.1514 59.1155 37.1218 59.1155 34.0922Z" fill="#29A9C2"/>
<path d="M50.3373 64.2345C40.6067 69.9102 27.0069 69.565 18.1575 64.2728C19.3451 63.3908 20.4943 62.5471 21.6436 61.6651C22.1033 61.3199 22.6013 60.9748 22.9461 60.553C23.9039 59.2874 25.1681 59.134 26.6621 59.134C32.1404 59.2107 37.6186 59.1724 43.1351 59.134C43.7481 59.134 44.2078 59.2874 44.6675 59.7476C46.3148 61.435 48.2302 62.8539 50.3373 64.2345Z" fill="#29A9C2"/>
<path d="M0.123308 66.5742C0.429782 62.0106 1.61737 57.7155 3.64777 53.6505C4.10748 52.7301 4.14578 52.6917 4.72042 53.5354C7.44038 57.6388 10.8499 61.0519 14.949 63.7363C15.5236 64.1198 15.6002 64.2732 14.9107 64.6184C10.62 66.7659 6.13787 67.9931 1.34921 68.2616C0.00838509 68.3383 0.00838043 68.3383 0.123308 66.9193C0.084999 66.8426 0.084999 66.7276 0.123308 66.5742Z" fill="#E6B352"/>
<path d="M1.61244 0.0765521C6.20955 0.383347 10.5768 1.53383 14.7142 3.60469C15.6336 4.06488 15.6336 4.10323 14.7908 4.64012C10.73 7.32457 7.39713 10.6993 4.71548 14.726C4.10253 15.6464 4.10252 15.6464 3.6045 14.6109C1.57411 10.5076 0.348233 6.17409 0.0800679 1.57217C-0.0348599 -0.230245 -0.149788 0.0382028 1.61244 0.0765521Z" fill="#E6B352"/>
<path d="M52.76 4.10176C56.5909 2.06924 60.4218 0.803719 64.5209 0.305178C65.517 0.19013 66.5513 0.151776 67.5474 0.036728C68.0837 -0.00162134 68.3519 0.113424 68.3136 0.765363C68.122 5.75077 66.8578 10.4677 64.6359 14.9163C64.406 15.3765 64.2145 15.6065 63.8314 14.993C61.0348 10.6595 57.472 7.13136 53.1431 4.33186C53.1048 4.29351 52.9899 4.21681 52.76 4.10176Z" fill="#E6B352"/>
<path d="M52.9089 64.1576C56.6632 61.7416 59.9195 58.7887 62.5629 55.2222C62.9843 54.6469 63.444 54.0334 63.8271 53.4198C64.2102 52.7678 64.4017 52.9596 64.6699 53.4965C66.2406 56.6411 67.3898 59.9775 67.9262 63.4673C68.156 64.8479 68.3093 66.2284 68.3476 67.6474C68.3476 68.1076 68.271 68.376 67.7346 68.3377C62.5246 68.1459 57.621 66.8804 53.0239 64.3493C52.9855 64.3493 52.9856 64.311 52.9089 64.1576Z" fill="#E6B352"/>
<path d="M34.2165 41.0342C35.634 47.3618 38.4306 52.9608 42.7978 57.9079C37.0131 57.9079 31.42 57.9079 25.6353 57.9079C29.9642 52.9608 32.8374 47.4002 34.2165 41.0342Z" fill="#FAE7D6"/>
<path d="M34.2117 27.3426C32.8325 21.0149 30.036 15.4543 25.6687 10.4689C31.4151 10.4689 37.0082 10.4689 42.7546 10.4689C38.3874 15.4543 35.5908 21.0149 34.2117 27.3426Z" fill="#FAE7D6"/>
<path d="M41.1479 34.1697C47.469 32.7508 52.9855 29.9513 57.9274 25.5795C57.9274 31.3702 57.9274 36.9309 57.9274 42.76C52.9472 38.4265 47.4307 35.5503 41.1479 34.1697Z" fill="#FAE7D6"/>
<path d="M27.2822 34.1697C20.9994 35.5503 15.4446 38.3881 10.5027 42.76C10.5027 36.9692 10.5027 31.3702 10.5027 25.5795C15.4063 29.9513 20.9611 32.7508 27.2822 34.1697Z" fill="#FAE7D6"/>
<path d="M22.6438 9.12575C18.6596 9.12575 14.9053 9.12575 10.9211 9.12575C12.6834 7.43838 14.5222 6.13451 16.4377 4.90733C16.7441 4.71558 16.974 4.83062 17.2422 4.98402C19.1193 6.17285 20.8815 7.47673 22.6438 9.12575Z" fill="#FAE7D6"/>
<path d="M45.7856 9.1276C47.5479 7.40188 49.3867 6.13636 51.3022 4.90918C51.5703 4.75578 51.7619 4.83247 51.9917 4.98587C53.8689 6.1747 55.6694 7.47858 57.4316 9.1276C53.5241 9.1276 49.7698 9.1276 45.7856 9.1276Z" fill="#FAE7D6"/>
<path d="M9.23598 11.0831C9.23598 14.8797 9.23598 18.6379 9.23598 22.5496C8.54641 22.0127 8.12502 21.4374 7.66531 20.9005C6.74589 19.7884 5.94139 18.5996 5.17521 17.4108C4.86873 16.9506 4.83041 16.6054 5.13688 16.1069C6.13292 14.5346 7.2439 13.0389 8.46979 11.6584C8.66134 11.4666 8.81458 11.1215 9.23598 11.0831Z" fill="#FAE7D6"/>
<path d="M9.23794 57.4859C7.51403 55.6451 6.21153 53.881 5.06225 52.0403C4.90901 51.8102 4.83239 51.5801 4.98563 51.35C6.17321 49.3942 7.51403 47.5534 9.23794 45.7126C9.23794 49.701 9.23794 53.4976 9.23794 57.4859Z" fill="#FAE7D6"/>
<path d="M59.1924 10.9294C60.878 12.6935 62.2188 14.4959 63.4064 16.4134C63.5596 16.6435 63.5596 16.8736 63.4064 17.1037C62.2188 19.0211 60.9163 20.8236 59.1924 22.5876C59.1924 18.676 59.1924 14.9178 59.1924 10.9294Z" fill="#FAE7D6"/>
<path d="M59.1924 45.7126C60.878 47.5151 62.2188 49.3175 63.4064 51.2733C63.5213 51.465 63.5596 51.6951 63.4447 51.8869C62.2571 53.8427 60.9163 55.6451 59.1924 57.4475C59.1924 53.4592 59.1924 49.701 59.1924 45.7126Z" fill="#FAE7D6"/>
<path d="M57.3933 59.2478C55.6311 60.9352 53.7923 62.2774 51.8385 63.4662C51.6086 63.6196 51.4171 63.5046 51.2256 63.3895C49.3101 62.2391 47.5479 60.8968 45.7856 59.2478C49.6932 59.2478 53.4092 59.2478 57.3933 59.2478Z" fill="#FAE7D6"/>
<path d="M11.0728 59.1729C14.942 59.1729 18.658 59.1729 22.4889 59.1729C22.2974 59.6714 21.9143 59.9015 21.5695 60.1699C20.2287 61.2821 18.8112 62.3558 17.3172 63.2379C17.0107 63.4296 16.7425 63.583 16.3595 63.3146C14.5589 62.2024 12.8733 60.9753 11.3026 59.518C11.2643 59.518 11.1877 59.4029 11.0728 59.1729Z" fill="#FAE7D6"/>
<path d="M0.0795898 9.12659C0.807466 10.814 1.22887 12.6164 2.1866 14.1503C3.37419 15.9911 3.37419 17.5634 2.1866 19.4426C1.22887 20.9382 0.807466 22.7406 0.0795898 24.428C0.0795898 19.3275 0.0795898 14.227 0.0795898 9.12659Z" fill="#8B85DC"/>
<path d="M0.235529 43.9464C0.580312 44.8668 0.8868 45.7872 1.23158 46.6692C1.76791 48.1265 2.41916 49.5838 3.18535 50.926C3.4152 51.3095 3.49183 51.6546 3.26197 52.0765C2.03607 54.224 1.15496 56.4866 0.388775 58.8259C0.350466 58.941 0.273843 59.0177 0.120605 59.3628C0.120605 54.0706 0.120605 49.0085 0.120605 43.9464C0.120605 43.9848 0.197219 43.9464 0.235529 43.9464Z" fill="#8B85DC"/>
<path d="M9.23193 0C14.3271 0 19.4222 0 24.5173 0C24.5173 0.345144 24.2109 0.268452 24.0193 0.306801C21.7591 0.95874 19.5754 1.91747 17.5067 3.0296C17.162 3.183 16.8938 3.45145 16.4341 3.22135C14.1355 1.91747 11.722 0.882034 9.23193 0Z" fill="#8B85DC"/>
<path d="M43.9006 0C48.9958 0 54.0909 0 59.2243 0C59.186 0.383493 58.9179 0.268455 58.7263 0.345153C56.5044 0.997091 54.3591 1.91747 52.3287 3.0296C51.8307 3.29805 51.4476 3.33639 50.9495 3.06794C48.6893 1.84077 46.3524 0.843685 43.9006 0Z" fill="#8B85DC"/>
<path d="M68.2671 59.3247C67.5009 56.8703 66.5048 54.531 65.2789 52.2684C65.0107 51.8082 64.9724 51.4247 65.2406 50.9645C66.4665 48.7019 67.4626 46.3242 68.2671 43.8315C68.2671 48.9704 68.2671 54.1475 68.2671 59.3247Z" fill="#8B85DC"/>
<path d="M9.34961 68.1829C10.269 67.8378 11.1502 67.531 12.0696 67.1859C13.487 66.649 14.9045 66.0354 16.2453 65.2684C16.5517 65.0766 16.8582 64.9233 17.203 65.1534C19.4633 66.4572 21.8767 67.3776 24.3285 68.3363C19.3483 68.3363 14.3298 68.3363 9.34961 68.3363C9.34961 68.2596 9.34961 68.2213 9.34961 68.1829Z" fill="#8B85DC"/>
<path d="M68.3115 9.12659C68.3115 14.227 68.3115 19.3275 68.3115 24.3896C67.4304 21.8586 66.3961 19.4042 65.1319 17.0649C65.017 16.8731 64.9786 16.7197 65.0936 16.528C66.3578 14.1503 67.4304 11.696 68.3115 9.12659Z" fill="#8B85DC"/>
<path d="M44.1011 68.2615C46.5529 67.3411 48.9664 66.4207 51.2266 65.1168C51.5331 64.9634 51.7629 65.0018 52.0311 65.1552C54.253 66.4207 56.6282 67.3411 59.0417 68.2615C54.0615 68.2615 49.0813 68.2615 44.1011 68.2615Z" fill="#8B85DC"/>
<path d="M111.125 8.32682C108.995 8.32682 106.581 8.61081 104.593 9.39178C103.883 9.67577 102.179 10.4567 102.179 11.4507C102.179 15.5685 112.19 27.78 114.816 31.4009C118.508 36.2997 125.892 45.3163 125.892 51.6351C125.892 55.7529 122.91 59.5157 119.644 61.8586C115.1 65.1955 109.208 66.6154 103.599 66.6154C98.1322 66.6154 85.5657 65.6925 85.5657 57.8828C85.5657 53.623 89.4705 49.1502 93.7304 49.9311C91.1745 51.1381 90.7485 53.978 91.8844 56.4629C93.7304 60.7227 101.185 61.2197 105.09 61.2197C108.64 61.2197 117.798 61.2197 119.928 57.6698C122.981 52.558 113.326 40.4175 110.415 36.4417C107.362 32.3238 96.7832 19.8994 96.7832 15.2135C96.7832 10.8117 102.534 6.83588 106.013 5.20295C108.498 3.996 111.409 3.07304 114.178 3.07304C117.514 3.07304 123.691 3.35702 123.691 7.97184C123.691 9.32078 121.916 15.8525 116.236 15.8525C117.656 14.7876 119.005 12.6576 118.295 10.8117C117.514 8.61081 113.397 8.32682 111.125 8.32682ZM137.351 36.0157V54.1909L132.31 57.3148V21.9583C132.31 15.3555 134.866 5.84193 143.315 6.3389C137.493 8.8238 137.351 16.4915 137.351 21.9583V33.3888C138.984 31.7559 141.256 29.7679 142.96 29.7679C146.58 29.7679 146.935 33.3888 146.935 36.1577V46.0263C146.935 47.7302 147.077 51.99 149.562 51.99C150.911 51.99 152.402 50.9251 153.467 49.1502C153.467 54.3329 150.201 57.3148 147.077 57.3148C144.38 57.3858 141.824 55.1139 141.824 50.0021V38.7136C141.824 37.7196 141.682 34.5957 140.191 34.5957C139.197 34.5957 138.132 35.3767 137.351 36.0157ZM171.018 29.6969V54.1909L165.977 57.3148V53.481C164.628 55.3269 162.64 57.3148 160.51 57.3148C157.102 57.3148 155.967 52.842 155.967 50.1441C155.967 47.0912 155.967 43.6124 155.967 40.4885C155.967 36.2997 161.149 30.0519 165.551 29.6969H171.018ZM165.551 50.6411V34.0988C163.847 34.7377 161.078 38.2166 161.078 39.7075V48.3692C161.078 50.0021 161.291 52.061 163.35 52.061C164.202 52.061 165.054 51.2801 165.551 50.6411ZM182.445 34.5957V37.2226C183.581 33.8148 185.356 29.9099 187.557 29.6969C190.61 29.342 191.604 35.9447 187.77 38.1456C188.125 37.0806 187.77 35.5897 186.705 35.7317C184.646 36.0157 182.942 41.8375 182.445 43.6834V54.1909L177.404 57.3148V37.2936C177.404 36.7257 177.333 35.0927 176.623 34.7377C175.7 34.2408 174.351 35.3057 173.996 36.1577C173.428 33.1048 176.126 29.6969 179.534 29.6969C182.09 29.6969 182.445 32.6788 182.445 34.5957ZM210.75 36.7257V54.1909L205.709 57.3148V37.3646C205.709 36.7257 205.709 34.6667 204.786 34.6667C203.934 34.6667 202.515 35.8737 201.805 36.5837V54.1909L196.764 57.3148V37.3646C196.764 36.7257 196.622 35.0927 195.912 34.7377C195.06 34.2408 193.711 35.3057 193.285 36.1577C192.717 33.1048 195.415 29.6969 198.894 29.6969C201.166 29.6969 201.663 32.1108 201.734 34.0278C203.509 32.2528 206.348 29.6969 207.91 29.6969C210.253 29.6969 210.679 32.1818 210.75 34.1698C212.525 32.3948 215.365 29.6969 216.998 29.6969C219.767 29.6969 219.909 33.2468 219.909 35.2347L219.838 46.0263C219.838 48.8662 219.98 51.99 222.465 51.99C223.814 51.99 225.305 50.9251 226.441 49.1502C226.441 54.3329 223.104 57.3148 219.98 57.3148C217.282 57.3858 214.797 55.0429 214.797 50.0021V37.3646C214.797 36.7257 214.868 34.6667 214.016 34.6667C213.164 34.6667 211.46 36.0157 210.75 36.7257ZM260.336 37.7196V51.0671C260.336 54.1909 259.768 56.4629 258.206 58.5218C260.762 58.5928 263.53 59.2317 265.447 59.5867C267.79 59.9417 272.973 60.9357 275.174 60.3677C277.588 59.7287 279.008 59.1607 280.357 56.1079C281.848 63.3496 275.032 66.0475 273.257 66.5444C272.618 66.6864 271.908 66.7574 271.127 66.7574C268.287 66.7574 264.666 65.9055 262.394 65.4795C260.194 65.0535 257.496 64.3435 255.153 64.3435C252.952 64.3435 251.106 64.9115 250.183 66.8284C249.189 64.2015 251.106 60.5097 253.52 59.2317C254.869 57.7408 254.869 56.1079 254.869 53.978V16.1365C254.869 13.9356 254.869 12.3737 253.52 10.8117C251.106 9.60477 249.189 5.91292 250.183 3.28603C251.106 5.20295 252.952 5.77093 255.153 5.77093C257.496 5.77093 260.194 5.06095 262.394 4.63497C264.666 4.20899 268.287 3.35702 271.127 3.35702C271.908 3.35702 272.618 3.42802 273.257 3.57002C275.032 4.067 281.848 6.76489 280.357 14.0066C279.008 10.9537 277.588 10.3147 275.174 9.74677C272.973 9.17879 267.79 10.1727 265.447 10.5277C263.53 10.8827 260.762 11.5217 258.206 11.5927C259.768 13.6516 260.336 15.9235 260.336 19.0474V32.3948H273.896L268.429 37.7196H260.336ZM286.647 21.9583L286.505 54.1909L281.535 57.3148V21.9583C281.535 16.4915 281.464 8.8238 275.572 6.3389C284.02 5.84193 286.647 15.3555 286.647 21.9583ZM339.217 8.32682C337.087 8.32682 334.673 8.61081 332.685 9.39178C331.975 9.67577 330.271 10.4567 330.271 11.4507C330.271 15.5685 340.282 27.78 342.909 31.4009C346.6 36.2997 353.984 45.3163 353.984 51.6351C353.984 55.7529 351.002 59.5157 347.736 61.8586C343.193 65.1955 337.3 66.6154 331.691 66.6154C326.224 66.6154 313.658 65.6925 313.658 57.8828C313.658 53.623 317.563 49.1502 321.822 49.9311C319.266 51.1381 318.841 53.978 319.976 56.4629C321.822 60.7227 329.277 61.2197 333.182 61.2197C336.732 61.2197 345.89 61.2197 348.02 57.6698C351.073 52.558 341.418 40.4175 338.507 36.4417C335.454 32.3238 324.875 19.8994 324.875 15.2135C324.875 10.8117 330.626 6.83588 334.105 5.20295C336.59 3.996 339.501 3.07304 342.27 3.07304C345.606 3.07304 351.783 3.35702 351.783 7.97184C351.783 9.32078 350.008 15.8525 344.328 15.8525C345.748 14.7876 347.097 12.6576 346.387 10.8117C345.606 8.61081 341.489 8.32682 339.217 8.32682ZM365.443 36.0157V54.1909L360.402 57.3148V21.9583C360.402 15.3555 362.958 5.84193 371.407 6.3389C365.585 8.8238 365.443 16.4915 365.443 21.9583V33.3888C367.076 31.7559 369.348 29.7679 371.052 29.7679C374.673 29.7679 375.027 33.3888 375.027 36.1577V46.0263C375.027 47.7302 375.169 51.99 377.654 51.99C379.003 51.99 380.494 50.9251 381.559 49.1502C381.559 54.3329 378.293 57.3148 375.169 57.3148C372.472 57.3858 369.916 55.1139 369.916 50.0021V38.7136C369.916 37.7196 369.774 34.5957 368.283 34.5957C367.289 34.5957 366.224 35.3767 365.443 36.0157ZM394.495 52.061C398.755 52.061 402.873 47.8012 404.577 44.3224C404.009 52.487 397.903 57.3148 392.507 57.3148C388.034 57.3148 384.059 54.049 384.13 46.5233C384.201 42.4764 385.975 37.8616 388.389 34.6667C389.596 33.1048 392.649 29.6969 394.85 29.6969C397.406 29.6969 398.258 33.1758 398.258 35.2347C398.258 40.3465 393.714 45.1743 389.809 48.0852C390.59 50.2151 392.081 52.061 394.495 52.061ZM389.241 45.9553C391.229 43.9674 393.075 41.3405 393.075 38.5716C393.075 37.6486 392.862 34.5957 391.442 34.5957C390.732 34.5957 390.164 35.8737 389.951 36.3707C389.028 38.7136 388.744 43.0444 389.241 45.9553ZM412.691 29.6969V54.1909L407.722 57.3148V32.8208L412.691 29.6969ZM410.207 27.638L406.373 23.8042L410.207 19.9703L414.04 23.8042L410.207 27.638ZM424.418 54.1909L419.377 57.3148V21.9583C419.377 15.3555 421.933 5.84193 430.381 6.3389C424.56 8.8238 424.418 16.4915 424.418 21.9583V40.6305C426.619 40.0625 428.819 36.7967 428.18 34.3828C427.896 33.3178 425.838 33.8858 425.412 34.5248C425.412 31.1879 432.085 28.277 433.576 30.4779C435.564 33.3888 431.233 37.7906 427.683 40.5595C428.251 40.2755 428.819 40.0625 429.387 40.0625C434.641 40.0625 434.144 52.132 438.12 52.132C439.469 52.132 441.244 50.8541 442.096 49.2921C442.096 56.6758 436.487 57.3148 434.854 57.3148C429.458 57.3148 430.239 45.9553 426.193 44.8903C425.483 44.6773 425.057 44.8903 424.418 45.3873V54.1909ZM449.946 36.0157V54.1909L444.905 57.3148V21.9583C444.905 15.3555 447.461 5.84193 455.91 6.3389C450.088 8.8238 449.946 16.4915 449.946 21.9583V33.3888C451.579 31.7559 453.851 29.7679 455.555 29.7679C459.176 29.7679 459.531 33.3888 459.531 36.1577V46.0263C459.531 47.7302 459.673 51.99 462.158 51.99C463.507 51.99 464.997 50.9251 466.062 49.1502C466.062 54.3329 462.797 57.3148 459.673 57.3148C456.975 57.3858 454.419 55.1139 454.419 50.0021V38.7136C454.419 37.7196 454.277 34.5957 452.786 34.5957C451.792 34.5957 450.727 35.3767 449.946 36.0157Z" fill="#0B7287"/>
</svg>
