<svg width="30" height="24" viewBox="0 0 30 24" fill="none" xmlns="http://www.w3.org/2000/svg">
<rect width="30" height="24" fill="#2A2FAF"/>
<path fill-rule="evenodd" clip-rule="evenodd" d="M0.173819 0L30 21.3155V22H29.0154L0 1.2639V0H0.173819Z" fill="#E92B2B"/>
<path fill-rule="evenodd" clip-rule="evenodd" d="M28.0442 22L0 1.958V1.2639L29.0154 22H28.0442ZM1.14503 0L30 20.6214V21.3155L0.173819 0H1.14503Z" fill="#FBFBFB"/>
<path fill-rule="evenodd" clip-rule="evenodd" d="M0 21.3155V22H0.984582L30 1.2639V0H29.8262L0 21.3155Z" fill="#E92B2B"/>
<path fill-rule="evenodd" clip-rule="evenodd" d="M30 1.958V1.2639L0.984582 22H1.9558L30 1.958ZM0 20.6214V21.3155L29.8262 0H28.855L0 20.6214Z" fill="#FBFBFB"/>
<path fill-rule="evenodd" clip-rule="evenodd" d="M1.68321 0L30 20.2285V21.6164L0 0.185529V0H1.68321Z" fill="#FBFBFB"/>
<path fill-rule="evenodd" clip-rule="evenodd" d="M0 20.2285V21.6164L30 0.185529V0H28.3168L0 20.2285Z" fill="#FBFBFB"/>
<path fill-rule="evenodd" clip-rule="evenodd" d="M16.6071 0H13.3929V9.26317H0V12.7368H13.3929V22H16.6071V12.7368H30V9.26317H16.6071V0Z" fill="#E92B2B"/>
<path fill-rule="evenodd" clip-rule="evenodd" d="M0 8.68423H12.8571V0H13.9286V9.26317V9.84211H13.3929H0V8.68423ZM12.8571 22V13.3158H0V12.1579H13.3929H13.9286V12.7368V22H12.8571ZM30 13.3158H17.1429V22H16.0714V12.7368V12.1579H16.6071H30V13.3158ZM17.1429 0V8.68423H30V9.84211H16.6071H16.0714V9.26317V0H17.1429Z" fill="#FBFBFB"/>
</svg>
