<svg width="50" height="70" viewBox="0 0 50 70" fill="none" xmlns="http://www.w3.org/2000/svg">
<path fill-rule="evenodd" clip-rule="evenodd" d="M46.434 35.3503C48.6979 31.8403 50 27.7287 50 23.3333C50 10.4467 38.8071 0 25 0C11.1929 0 0 10.4467 0 23.3333C0 27.7287 1.30215 31.8403 3.56604 35.3503L25 70L46.434 35.3503Z" fill="#FFB901"/>
<path d="M18.658 19.0022L17.1876 22.3105C15.3325 26.4844 14.405 28.5713 15.4173 29.5837C16.4296 30.596 18.5166 29.6685 22.6905 27.8134L25.9988 26.343C28.5162 25.2242 29.7749 24.6647 29.9752 23.586C30.1755 22.5073 29.2015 21.5333 27.2536 19.5854L25.4156 17.7474C23.4676 15.7994 22.4937 14.8255 21.4149 15.0257C20.3362 15.226 19.7768 16.4847 18.658 19.0022Z" stroke="#010101" stroke-width="1.5" stroke-linecap="round" stroke-linejoin="round"/>
<path d="M19.5 18.5L26.5 25.5M17.5 23.5L21.5 27.5" stroke="#010101" stroke-width="1.5" stroke-linecap="round" stroke-linejoin="round"/>
<path d="M29 16L32 13" stroke="#010101" stroke-width="1.5" stroke-linecap="round" stroke-linejoin="round"/>
<path d="M27.1973 10C27.5963 10.6667 27.9156 12.4 26 14" stroke="#010101" stroke-width="1.5" stroke-linecap="round" stroke-linejoin="round"/>
<path d="M35 17.8027C34.3333 17.4037 32.6 17.0844 31 19" stroke="#010101" stroke-width="1.5" stroke-linecap="round" stroke-linejoin="round"/>
<path d="M31.001 10V10.02" stroke="#010101" stroke-width="1.5" stroke-linecap="round" stroke-linejoin="round"/>
<path d="M35.001 14V14.02" stroke="#010101" stroke-width="1.5" stroke-linecap="round" stroke-linejoin="round"/>
<path d="M34.001 21V21.02" stroke="#010101" stroke-width="1.5" stroke-linecap="round" stroke-linejoin="round"/>
<path d="M24.001 11V11.02" stroke="#010101" stroke-width="1.5" stroke-linecap="round" stroke-linejoin="round"/>
</svg>
