<svg width="50" height="70" viewBox="0 0 50 70" fill="none" xmlns="http://www.w3.org/2000/svg">
<path fill-rule="evenodd" clip-rule="evenodd" d="M46.434 35.3503C48.6979 31.8403 50 27.7287 50 23.3333C50 10.4467 38.8071 0 25 0C11.1929 0 0 10.4467 0 23.3333C0 27.7287 1.30215 31.8403 3.56604 35.3503L25 70L46.434 35.3503Z" fill="#FFB901"/>
<g clip-path="url(#clip0_4049_25790)">
<path d="M21 15C21 16.0609 21.4214 17.0783 22.1716 17.8284C22.9217 18.5786 23.9391 19 25 19C26.0609 19 27.0783 18.5786 27.8284 17.8284C28.5786 17.0783 29 16.0609 29 15C29 13.9391 28.5786 12.9217 27.8284 12.1716C27.0783 11.4214 26.0609 11 25 11C23.9391 11 22.9217 11.4214 22.1716 12.1716C21.4214 12.9217 21 13.9391 21 15Z" stroke="#010101" stroke-width="1.5" stroke-linecap="round" stroke-linejoin="round"/>
<path d="M19 29V27C19 25.9391 19.4214 24.9217 20.1716 24.1716C20.9217 23.4214 21.9391 23 23 23H27C28.0609 23 29.0783 23.4214 29.8284 24.1716C30.5786 24.9217 31 25.9391 31 27V29" stroke="#010101" stroke-width="1.5" stroke-linecap="round" stroke-linejoin="round"/>
</g>
<defs>
<clipPath id="clip0_4049_25790">
<rect width="24" height="24" fill="white" transform="translate(13 8)"/>
</clipPath>
</defs>
</svg>
