<svg width="30" height="30" viewBox="0 0 30 30" fill="none" xmlns="http://www.w3.org/2000/svg">
<g clip-path="url(#clip0_1850_19338)">
<path d="M17.1873 15.8893C16.314 15.8893 15.5748 15.5868 14.9698 14.9818C14.3648 14.3768 14.0623 13.6377 14.0623 12.7643C14.0623 11.891 14.3648 11.1518 14.9698 10.5468C15.5748 9.94185 16.314 9.63935 17.1873 9.63935C18.0606 9.63935 18.7998 9.94185 19.4048 10.5468C20.0098 11.1518 20.3123 11.891 20.3123 12.7643C20.3123 13.6377 20.0098 14.3768 19.4048 14.9818C18.7998 15.5868 18.0606 15.8893 17.1873 15.8893ZM8.94199 19.7597C8.32074 19.7597 7.78887 19.5384 7.34637 19.0959C6.90387 18.6534 6.68262 18.1214 6.68262 17.5V8.02872C6.68262 7.40747 6.90387 6.8756 7.34637 6.4331C7.78887 5.9906 8.32074 5.76935 8.94199 5.76935H25.4323C26.0538 5.76935 26.5857 5.9906 27.0282 6.4331C27.4707 6.8756 27.692 7.40747 27.692 8.02872V17.5C27.692 18.1214 27.4707 18.6534 27.0282 19.0959C26.5857 19.5384 26.0538 19.7597 25.4323 19.7597H8.94199ZM10.817 17.8847H23.5576C23.5576 17.2613 23.7789 16.7288 24.2214 16.2872C24.6639 15.8457 25.1957 15.625 25.817 15.625V9.90372C25.1937 9.90372 24.6613 9.68247 24.2198 9.23997C23.7783 8.79747 23.5576 8.2656 23.5576 7.64435H10.817C10.817 8.26768 10.5957 8.80008 10.1532 9.24154C9.71074 9.68299 9.17887 9.90372 8.55762 9.90372V15.625C9.18095 15.625 9.71335 15.8462 10.1548 16.2887C10.5963 16.7312 10.817 17.2632 10.817 17.8847ZM23.9661 24.1347H4.5673C3.94585 24.1347 3.41387 23.9134 2.97137 23.4709C2.52887 23.0284 2.30762 22.4964 2.30762 21.875V9.49529H4.18262V21.875C4.18262 21.971 4.22262 22.0591 4.30262 22.1393C4.38283 22.2196 4.47105 22.2597 4.5673 22.2597H23.9661V24.1347ZM8.94199 17.8847H8.55762V7.64435H8.94199C8.83783 7.64435 8.74772 7.68237 8.67168 7.75841C8.59564 7.83445 8.55762 7.92456 8.55762 8.02872V17.5C8.55762 17.6041 8.59564 17.6942 8.67168 17.7703C8.74772 17.8465 8.83783 17.8847 8.94199 17.8847Z" fill="#191C1E"/>
</g>
<defs>
<clipPath id="clip0_1850_19338">
<rect width="30" height="30" fill="white"/>
</clipPath>
</defs>
</svg>
