<svg width="24" height="24" fill="none" xmlns="http://www.w3.org/2000/svg">
    <path d="M2 12.4a.6.6 0 0 0-.6.6v9A1.6 1.6 0 0 0 3 23.6h7a1.6 1.6 0 0 0 1.6-1.6v-9a.6.6 0 0 0-.6-.6H2Zm.6 9.6v-8.4h7.8V22a.4.4 0 0 1-.4.4H3a.4.4 0 0 1-.4-.4ZM15 12.4a.6.6 0 0 0-.6.6v7.5a3.1 3.1 0 1 0 6.2 0V13a.6.6 0 0 0-.6-.6h-5Zm.6 8.1v-6.9h3.8v6.9a1.9 1.9 0 1 1-3.8 0Z" fill="#010101" stroke="#010101" stroke-width=".2"/>
    <path d="M15 7.4a.6.6 0 0 0-.6.6v5a.6.6 0 0 0 .6.6h5a.6.6 0 0 0 .6-.6V8a.6.6 0 0 0-.6-.6h-5Zm4.4 5h-3.8V8.6h3.8v3.8Z" fill="#010101" stroke="#010101" stroke-width=".2"/>
    <path d="M22.212 2.44A1.6 1.6 0 0 0 20.674.4h-6.349a1.6 1.6 0 0 0-1.538 2.04l1.635 5.725A.6.6 0 0 0 15 8.6h5a.6.6 0 0 0 .577-.435l1.636-5.725Zm-8.271-.33a.4.4 0 0 1 .384-.51h6.349a.4.4 0 0 1 .384.51L19.547 7.4h-4.095l-1.511-5.29ZM3 8.4a.6.6 0 0 0-.6.6v4a.6.6 0 0 0 .6.6h7a.6.6 0 0 0 .6-.6V9a.6.6 0 0 0-.6-.6H3Zm6.4 4H3.6V9.6h5.8v2.8Z" fill="#010101" stroke="#010101" stroke-width=".2"/>
    <path d="M8.4 8.4H4.6V2.557a.4.4 0 0 1 .566-.364l3 1.371a.4.4 0 0 1 .234.364V8.4ZM5.665 1.102A1.6 1.6 0 0 0 3.4 2.557V9a.6.6 0 0 0 .6.6h5a.6.6 0 0 0 .6-.6V3.928a1.6 1.6 0 0 0-.935-1.455l-3-1.371ZM16.6 1a.6.6 0 0 0-1.2 0v3a.6.6 0 0 0 1.2 0V1ZM19.6 1a.6.6 0 0 0-1.2 0v3a.6.6 0 0 0 1.2 0V1Z" fill="#010101" stroke="#010101" stroke-width=".2"/>
</svg>