<svg width="61" height="61" viewBox="0 0 61 61" fill="none" xmlns="http://www.w3.org/2000/svg">
<path d="M30.3335 60.4263C46.9021 60.4263 60.3335 46.9948 60.3335 30.4263C60.3335 13.8577 46.9021 0.42627 30.3335 0.42627C13.765 0.42627 0.333496 13.8577 0.333496 30.4263C0.333496 46.9948 13.765 60.4263 30.3335 60.4263Z" fill="#FF5449"/>
<path d="M44.2197 17.5642C42.2913 15.6357 39.1649 15.6357 37.2364 17.5642L30.9963 23.8043L24.7561 17.5642C22.8277 15.6357 19.7012 15.6357 17.7728 17.5642C15.8443 19.4926 15.8443 22.619 17.7728 24.5475L24.0129 30.7876L17.7728 37.0275C15.8443 38.956 15.8443 42.0824 17.7728 44.0108C19.7012 45.9393 22.8277 45.9393 24.7561 44.0108L30.9963 37.7707L37.2364 44.0108C39.1649 45.9393 42.2913 45.9393 44.2197 44.0108C46.1482 42.0824 46.1482 38.956 44.2197 37.0275L37.9796 30.7876L44.2197 24.5475C46.1482 22.6193 46.1482 19.4926 44.2197 17.5642Z" fill="white"/>
</svg>
