<svg width="16" height="16" viewBox="0 0 16 16" fill="none" xmlns="http://www.w3.org/2000/svg">
<path d="M13.5656 11.9722C13.5656 12.4299 13.5567 12.8876 13.5656 13.3364C13.5746 13.5159 13.5029 13.5607 13.3325 13.5607C12.4091 13.5518 11.4767 13.5518 10.5533 13.5607C10.4367 13.5607 10.356 13.5248 10.2843 13.4441C8.96638 11.9991 8.24915 10.3029 8.14157 8.34635C8.1326 8.16686 8.1864 8.13096 8.35674 8.13993C10.3112 8.24763 12.0056 8.96562 13.4491 10.2849C13.5298 10.3657 13.5656 10.4465 13.5656 10.5542C13.5656 11.0298 13.5656 11.5055 13.5656 11.9722Z" fill="#0B7287"/>
<path d="M4.03529 13.5606C3.56909 13.5606 3.09392 13.5516 2.62772 13.5606C2.48428 13.5606 2.43945 13.5157 2.43945 13.3721C2.44842 12.4297 2.44842 11.4874 2.43945 10.554C2.43945 10.4373 2.48428 10.3566 2.56497 10.2848C3.99943 8.97443 5.68492 8.25644 7.6304 8.14874C7.81868 8.13977 7.87247 8.18464 7.86351 8.38209C7.74696 10.3386 7.02972 12.0259 5.70285 13.4708C5.63112 13.5516 5.55044 13.5785 5.44285 13.5696C4.97665 13.5606 4.51045 13.5606 4.03529 13.5606Z" fill="#0B7287"/>
<path d="M2.43959 4.01122C2.43959 3.54452 2.44855 3.08681 2.43959 2.62011C2.43959 2.47652 2.48441 2.43164 2.62786 2.43164C3.56922 2.44062 4.51058 2.44062 5.45195 2.43164C5.57746 2.43164 5.65815 2.48549 5.73884 2.57524C7.00296 3.96634 7.72019 5.59977 7.85467 7.48449C7.89053 7.92425 7.8995 7.87041 7.51398 7.84348C5.68505 7.72681 4.08921 7.04472 2.69958 5.85106C2.52027 5.68951 2.42165 5.52797 2.43959 5.27667C2.45752 4.85485 2.43959 4.43303 2.43959 4.01122Z" fill="#0B7287"/>
<path d="M13.5644 4.05603C13.5644 4.51375 13.5644 4.97147 13.5644 5.42021C13.5644 5.54586 13.5285 5.62663 13.4388 5.71638C12.0671 6.96389 10.4623 7.68187 8.6065 7.82547C8.12237 7.86137 8.12237 7.8524 8.15823 7.36775C8.30168 5.59073 8.97408 4.04706 10.1306 2.70083C10.292 2.51236 10.4534 2.42261 10.7134 2.42261C11.583 2.44056 12.4437 2.43158 13.3133 2.42261C13.4926 2.42261 13.5644 2.46748 13.5554 2.65595C13.5554 3.13162 13.5644 3.58934 13.5644 4.05603Z" fill="#0B7287"/>
<path d="M0.968965 11.8015C0.51173 10.9579 0.22484 10.1053 0.090359 9.20777C-0.151706 7.53844 0.0903557 5.93194 0.843447 4.41519C0.959997 4.18185 0.959997 4.18185 1.11241 4.40622C1.39034 4.81906 1.69516 5.22293 2.05377 5.57295C2.14343 5.6627 2.18825 5.75245 2.18825 5.88707C2.18825 7.28715 2.18825 8.6962 2.18825 10.0963C2.18825 10.177 2.20619 10.2578 2.13446 10.3296C1.69516 10.7694 1.32758 11.254 0.968965 11.8015Z" fill="#29A9C2"/>
<path d="M4.22266 0.960494C6.58952 -0.394709 9.76326 -0.233161 11.7715 0.969469C11.4398 1.20282 11.0901 1.39129 10.8301 1.68746C10.4715 2.09133 10.0502 2.19005 9.5212 2.1721C8.34673 2.1362 7.1633 2.15415 5.97987 2.16312C5.80057 2.16312 5.67505 2.11825 5.54057 1.9926C5.14609 1.60668 4.70679 1.27461 4.22266 0.960494Z" fill="#29A9C2"/>
<path d="M13.834 7.97856C13.834 7.2875 13.834 6.58746 13.834 5.8964C13.834 5.77075 13.8698 5.67202 13.9595 5.58228C14.3002 5.23226 14.596 4.85531 14.874 4.45144C14.9188 4.37964 14.9457 4.24502 15.0353 4.254C15.134 4.26297 15.1519 4.3976 15.1878 4.47837C15.9946 6.15667 16.1919 7.89779 15.8153 9.71969C15.6719 10.3838 15.4388 11.0031 15.1429 11.6134C15.0712 11.757 15.0264 11.8019 14.9278 11.6313C14.6498 11.1826 14.3181 10.7787 13.9595 10.4018C13.8788 10.312 13.8429 10.2223 13.8429 10.1056C13.834 9.39659 13.834 8.68758 13.834 7.97856Z" fill="#29A9C2"/>
<path d="M11.7809 15.0328C9.50371 16.361 6.321 16.2803 4.25 15.0417C4.52793 14.8353 4.79689 14.6379 5.06585 14.4315C5.17344 14.3507 5.28998 14.2699 5.37067 14.1712C5.59481 13.875 5.89066 13.8391 6.24031 13.8391C7.52236 13.8571 8.80441 13.8481 10.0954 13.8391C10.2389 13.8391 10.3465 13.875 10.454 13.9827C10.8396 14.3776 11.2878 14.7097 11.7809 15.0328Z" fill="#29A9C2"/>
<path d="M0.0283807 15.5803C0.100104 14.5123 0.378031 13.5071 0.853196 12.5558C0.960781 12.3404 0.969745 12.3314 1.10423 12.5289C1.74077 13.4892 2.53869 14.2879 3.49798 14.9162C3.63246 15.0059 3.65039 15.0418 3.48901 15.1226C2.48489 15.6252 1.43595 15.9124 0.315274 15.9752C0.00148569 15.9931 0.0014846 15.9931 0.0283807 15.6611C0.0194154 15.6431 0.0194154 15.6162 0.0283807 15.5803Z" fill="#FFB901"/>
<path d="M0.377784 0.0179504C1.45363 0.0897492 2.47568 0.358996 3.44394 0.843638C3.65911 0.951336 3.65911 0.96031 3.46187 1.08596C2.51154 1.7142 1.73155 2.50399 1.10398 3.44635C0.960532 3.66174 0.96053 3.66174 0.84398 3.41942C0.368815 2.45911 0.0819271 1.44495 0.0191695 0.367969C-0.00772662 -0.053849 -0.0346228 0.00897552 0.377784 0.0179504Z" fill="#FFB901"/>
<path d="M12.3477 0.959955C13.2442 0.484287 14.1407 0.188117 15.1 0.0714443C15.3331 0.0445197 15.5752 0.0355438 15.8083 0.0086192C15.9338 -0.000355661 15.9966 0.0265684 15.9876 0.179141C15.9428 1.34587 15.6469 2.44978 15.1269 3.49087C15.0731 3.59856 15.0283 3.65241 14.9386 3.50881C14.2842 2.49465 13.4504 1.66897 12.4373 1.0138C12.4283 1.00483 12.4014 0.986879 12.3477 0.959955Z" fill="#FFB901"/>
<path d="M12.3828 15.0147C13.2614 14.4493 14.0235 13.7583 14.6421 12.9236C14.7407 12.789 14.8483 12.6454 14.9379 12.5018C15.0276 12.3492 15.0724 12.3941 15.1352 12.5197C15.5028 13.2557 15.7717 14.0365 15.8972 14.8532C15.951 15.1763 15.9869 15.4994 15.9959 15.8315C15.9959 15.9392 15.9779 16.002 15.8524 15.993C14.6331 15.9481 13.4856 15.652 12.4097 15.0596C12.4007 15.0596 12.4007 15.0506 12.3828 15.0147Z" fill="#FFB901"/>
<path d="M8.00825 9.60318C8.33997 11.084 8.99444 12.3944 10.0165 13.5521C8.66272 13.5521 7.35377 13.5521 6 13.5521C7.01309 12.3944 7.68549 11.093 8.00825 9.60318Z" fill="#FAE7D6"/>
<path d="M8.00709 6.39892C7.68434 4.91807 7.02987 3.61671 6.00781 2.44998C7.35262 2.44998 8.66156 2.44998 10.0064 2.44998C8.98431 3.61671 8.32984 4.91807 8.00709 6.39892Z" fill="#FAE7D6"/>
<path d="M9.62891 7.9967C11.1082 7.66463 12.3992 7.00946 13.5557 5.98633C13.5557 7.34153 13.5557 8.64288 13.5557 10.0071C12.3902 8.9929 11.0992 8.31979 9.62891 7.9967Z" fill="#FAE7D6"/>
<path d="M6.38387 7.9967C4.91355 8.31979 3.61356 8.98393 2.45703 10.0071C2.45703 8.65186 2.45703 7.34153 2.45703 5.98633C3.6046 7.00946 4.90458 7.66463 6.38387 7.9967Z" fill="#FAE7D6"/>
<path d="M5.30004 2.13571C4.36764 2.13571 3.48904 2.13571 2.55664 2.13571C2.96905 1.74082 3.39938 1.43567 3.84765 1.14848C3.91937 1.1036 3.97317 1.13053 4.03593 1.16642C4.47523 1.44465 4.88764 1.74979 5.30004 2.13571Z" fill="#FAE7D6"/>
<path d="M10.7148 2.13611C11.1273 1.73224 11.5576 1.43607 12.0059 1.14887C12.0686 1.11297 12.1134 1.13092 12.1672 1.16682C12.6065 1.44504 13.0279 1.75019 13.4403 2.13611C12.5258 2.13611 11.6472 2.13611 10.7148 2.13611Z" fill="#FAE7D6"/>
<path d="M2.16116 2.59378C2.16116 3.48229 2.16116 4.36183 2.16116 5.27726C1.99978 5.15161 1.90116 5.01699 1.79358 4.89134C1.57841 4.63107 1.39014 4.35285 1.21083 4.07463C1.13911 3.96693 1.13014 3.88616 1.20186 3.76948C1.43496 3.40152 1.69496 3.0515 1.98185 2.7284C2.02668 2.68353 2.06254 2.60276 2.16116 2.59378Z" fill="#FAE7D6"/>
<path d="M2.16119 13.4534C1.75774 13.0226 1.45292 12.6097 1.18396 12.1789C1.1481 12.1251 1.13017 12.0712 1.16603 12.0174C1.44396 11.5597 1.75774 11.1289 2.16119 10.6981C2.16119 11.6315 2.16119 12.52 2.16119 13.4534Z" fill="#FAE7D6"/>
<path d="M13.8535 2.55783C14.248 2.97067 14.5618 3.39249 14.8397 3.84124C14.8756 3.89509 14.8756 3.94893 14.8397 4.00278C14.5618 4.45153 14.257 4.87335 13.8535 5.28619C13.8535 4.37075 13.8535 3.49122 13.8535 2.55783Z" fill="#FAE7D6"/>
<path d="M13.8535 10.6981C14.248 11.1199 14.5618 11.5417 14.8397 11.9994C14.8666 12.0443 14.8756 12.0982 14.8487 12.143C14.5707 12.6008 14.257 13.0226 13.8535 13.4444C13.8535 12.511 13.8535 11.6315 13.8535 10.6981Z" fill="#FAE7D6"/>
<path d="M13.4314 13.8657C13.0189 14.2606 12.5886 14.5747 12.1314 14.853C12.0776 14.8889 12.0328 14.8619 11.9879 14.835C11.5397 14.5658 11.1273 14.2516 10.7148 13.8657C11.6293 13.8657 12.499 13.8657 13.4314 13.8657Z" fill="#FAE7D6"/>
<path d="M2.5918 13.8482C3.4973 13.8482 4.36695 13.8482 5.26348 13.8482C5.21866 13.9648 5.129 14.0187 5.04831 14.0815C4.73452 14.3418 4.40281 14.5931 4.05316 14.7995C3.98143 14.8444 3.91868 14.8803 3.82902 14.8175C3.40765 14.5572 3.01317 14.27 2.64559 13.9289C2.63663 13.9289 2.61869 13.902 2.5918 13.8482Z" fill="#FAE7D6"/>
<path d="M0.0195312 2.13589C0.189873 2.53079 0.288492 2.95261 0.512627 3.3116C0.790553 3.74239 0.790553 4.11036 0.512627 4.55013C0.288492 4.90015 0.189873 5.32197 0.0195312 5.71686C0.0195312 4.52321 0.0195312 3.32955 0.0195312 2.13589Z" fill="#8B85DC"/>
<path d="M0.0542388 10.2848C0.134927 10.5002 0.206653 10.7156 0.287342 10.922C0.412857 11.263 0.565266 11.6041 0.744574 11.9182C0.798366 12.0079 0.816298 12.0887 0.762506 12.1874C0.475614 12.69 0.26941 13.2195 0.0901025 13.767C0.0811371 13.7939 0.0632053 13.8119 0.0273438 13.8927C0.0273438 12.6541 0.0273438 11.4694 0.0273438 10.2848C0.0273438 10.2937 0.0452734 10.2848 0.0542388 10.2848Z" fill="#8B85DC"/>
<path d="M2.16016 0C3.35255 0 4.54495 0 5.73734 0C5.73734 0.0807737 5.66562 0.0628256 5.62079 0.0718005C5.09184 0.224373 4.58081 0.448745 4.09668 0.709016C4.01599 0.744915 3.95323 0.807739 3.84565 0.75389C3.30772 0.448745 2.74291 0.206422 2.16016 0Z" fill="#8B85DC"/>
<path d="M10.2734 0C11.4658 0 12.6582 0 13.8596 0C13.8506 0.0897486 13.7879 0.0628262 13.743 0.0807759C13.223 0.233348 12.721 0.448745 12.2458 0.709016C12.1293 0.77184 12.0396 0.780812 11.9231 0.717988C11.3941 0.430793 10.8472 0.197447 10.2734 0Z" fill="#8B85DC"/>
<path d="M15.9757 13.8837C15.7964 13.3093 15.5633 12.7618 15.2764 12.2323C15.2136 12.1246 15.2047 12.0349 15.2674 11.9272C15.5543 11.3977 15.7874 10.8412 15.9757 10.2578C15.9757 11.4605 15.9757 12.6721 15.9757 13.8837Z" fill="#8B85DC"/>
<path d="M2.1875 15.9568C2.40267 15.876 2.60888 15.8042 2.82404 15.7234C3.15576 15.5978 3.48748 15.4542 3.80127 15.2747C3.87299 15.2298 3.94471 15.1939 4.0254 15.2478C4.55436 15.5529 5.11918 15.7683 5.69296 15.9927C4.52747 15.9927 3.353 15.9927 2.1875 15.9927C2.1875 15.9747 2.1875 15.9658 2.1875 15.9568Z" fill="#8B85DC"/>
<path d="M15.9861 2.13589C15.9861 3.32955 15.9861 4.52321 15.9861 5.70789C15.7799 5.11555 15.5379 4.54115 15.242 3.99369C15.2151 3.94881 15.2061 3.91291 15.233 3.86804C15.5289 3.3116 15.7799 2.73721 15.9861 2.13589Z" fill="#8B85DC"/>
<path d="M10.3203 15.9752C10.8941 15.7598 11.4589 15.5444 11.9879 15.2393C12.0596 15.2034 12.1134 15.2123 12.1761 15.2482C12.6961 15.5444 13.252 15.7598 13.8168 15.9752C12.6513 15.9752 11.4858 15.9752 10.3203 15.9752Z" fill="#8B85DC"/>
</svg>
