<svg width="52" height="52" viewBox="0 0 52 52" fill="none" xmlns="http://www.w3.org/2000/svg">
<g clip-path="url(#clip0_1816_16166)">
<rect x="1" y="1" width="50" height="50" rx="25" fill="white"/>
<path d="M14.75 19.75V33.5C14.75 35.857 14.75 37.0355 15.4822 37.7677C16.2145 38.5 17.393 38.5 19.75 38.5H32.25C34.607 38.5 35.7855 38.5 36.5177 37.7677C37.25 37.0355 37.25 35.857 37.25 33.5V19.75" stroke="#054E5C" stroke-width="1.5" stroke-linecap="round" stroke-linejoin="round"/>
<path d="M32.25 19.75C32.25 16.2982 29.4517 13.5 26 13.5C22.5482 13.5 19.75 16.2982 19.75 19.75" stroke="#054E5C" stroke-width="1.5" stroke-linecap="round" stroke-linejoin="round"/>
<path d="M28.5 38.5001V33.5C28.5 32.1193 27.3807 31 26 31C24.6193 31 23.5 32.1193 23.5 33.5V38.5001" stroke="#054E5C" stroke-width="1.5" stroke-linecap="round" stroke-linejoin="round"/>
<path d="M22.25 14.75H16.5902C16.2021 14.75 15.8092 14.8526 15.4976 15.1612C14.5702 16.0799 14.0351 17.6095 13.5 19.75H19.75M29.75 14.75H35.4099C35.798 14.75 36.1909 14.8526 36.5024 15.1612C37.4297 16.0799 37.9649 17.6095 38.5 19.75H32.25" stroke="#054E5C" stroke-width="1.5" stroke-linecap="round" stroke-linejoin="round"/>
<path d="M18.5 24.75H19.125M18.5 29.125H19.125" stroke="#054E5C" stroke-width="1.5" stroke-linecap="round" stroke-linejoin="round"/>
<path d="M32.875 24.75H33.5M32.875 29.125H33.5" stroke="#054E5C" stroke-width="1.5" stroke-linecap="round" stroke-linejoin="round"/>
<path d="M24.125 21V22.875M24.125 22.875V24.75M24.125 22.875H27.875M27.875 21V22.875M27.875 22.875V24.75" stroke="#054E5C" stroke-width="1.5" stroke-linecap="round" stroke-linejoin="round"/>
</g>
<rect x="0.5" y="0.5" width="51" height="51" rx="25.5" stroke="#054E5C"/>
<defs>
<clipPath id="clip0_1816_16166">
<rect x="1" y="1" width="50" height="50" rx="25" fill="white"/>
</clipPath>
</defs>
</svg>
