<svg width="42" height="42" viewBox="0 0 42 42" fill="none" xmlns="http://www.w3.org/2000/svg">
<g clip-path="url(#clip0_1595_19932)">
<rect x="1" y="1" width="40" height="40" rx="20" fill="white"/>
<g clip-path="url(#clip1_1595_19932)">
<path d="M24.375 16.0636V14.25C24.375 14.1505 24.3355 14.0552 24.2652 13.9848C24.1948 13.9145 24.0995 13.875 24 13.875H22.125V9.75C22.125 9.65054 22.0855 9.55516 22.0152 9.48483C21.9448 9.41451 21.8495 9.375 21.75 9.375H20.25C20.1505 9.375 20.0552 9.41451 19.9848 9.48483C19.9145 9.55516 19.875 9.65054 19.875 9.75V13.875H18C17.9005 13.875 17.8052 13.9145 17.7348 13.9848C17.6645 14.0552 17.625 14.1505 17.625 14.25V16.0636C14.5416 17.3803 12.375 20.4412 12.375 24C12.375 28.7559 16.2441 32.625 21 32.625C25.7559 32.625 29.625 28.7559 29.625 24C29.625 20.4412 27.4584 17.3803 24.375 16.0636ZM28.8661 23.625H25.8703C25.8389 22.2947 25.6397 21.0178 25.2914 19.875H27.7055C28.4048 21.006 28.8043 22.2967 28.8661 23.625ZM27.1805 19.125H25.0341C24.885 18.7346 24.7104 18.3544 24.5114 17.9869C24.2259 17.4492 23.8674 16.9538 23.4459 16.5145C24.92 16.9993 26.2188 17.9072 27.1805 19.125ZM21.375 23.625V19.875H24.5058C24.8752 21.0005 25.087 22.2816 25.1203 23.625H21.375ZM25.1203 24.375C25.087 25.7184 24.8752 26.9995 24.5058 28.125H21.375V24.375H25.1203ZM21.375 19.125V16.1588C22.2961 16.3219 23.1642 17.0841 23.8528 18.3459C23.9902 18.5992 24.1148 18.8592 24.2259 19.125H21.375ZM20.625 10.125H21.375V13.875H20.625V10.125ZM18.5541 16.5145C18.1326 16.9538 17.7741 17.4492 17.4886 17.9869C17.2896 18.3544 17.115 18.7346 16.9659 19.125H14.8195C15.7812 17.9072 17.08 16.9993 18.5541 16.5145ZM14.2945 19.875H16.7086C16.3603 21.0178 16.1611 22.2947 16.1297 23.625H13.1339C13.1957 22.2967 13.5952 21.006 14.2945 19.875ZM13.1339 24.375H16.1297C16.1611 25.7053 16.3603 26.9822 16.7086 28.125H14.2945C13.5952 26.994 13.1957 25.7033 13.1339 24.375ZM14.8195 28.875H16.9659C17.115 29.2654 17.2896 29.6456 17.4886 30.0131C17.7741 30.5508 18.1326 31.0462 18.5541 31.4855C17.08 31.0007 15.7812 30.0928 14.8195 28.875ZM20.625 31.8412C19.7039 31.6781 18.8358 30.9159 18.1472 29.6541C18.0098 29.4008 17.8852 29.1408 17.7741 28.875H20.625V31.8412ZM20.625 28.125H17.4942C17.1248 26.9995 16.913 25.7184 16.8797 24.375H20.625V28.125ZM20.625 23.625H16.8797C16.913 22.2816 17.1248 21.0005 17.4942 19.875H20.625V23.625ZM20.625 19.125H17.7741C17.8852 18.8592 18.0098 18.5992 18.1472 18.3459C18.8358 17.0841 19.7039 16.3219 20.625 16.1588V19.125ZM18.375 15.375V14.625H23.625V15.375H18.375ZM21.375 31.8412V28.875H24.2259C24.1148 29.1408 23.9902 29.4008 23.8528 29.6541C23.1642 30.9159 22.2961 31.6781 21.375 31.8412ZM23.4459 31.4855C23.8674 31.0462 24.2259 30.5508 24.5114 30.0131C24.7104 29.6456 24.885 29.2654 25.0341 28.875H27.1805C26.2188 30.0928 24.92 31.0007 23.4459 31.4855ZM27.7055 28.125H25.2914C25.6397 26.9822 25.8389 25.7053 25.8703 24.375H28.8661C28.8043 25.7033 28.4048 26.994 27.7055 28.125Z" fill="#054E5C"/>
<path d="M12 16.875H12.75V17.625C12.75 17.7245 12.7895 17.8198 12.8598 17.8902C12.9302 17.9605 13.0255 18 13.125 18C13.2245 18 13.3198 17.9605 13.3902 17.8902C13.4605 17.8198 13.5 17.7245 13.5 17.625V16.875H14.25C14.3495 16.875 14.4448 16.8355 14.5152 16.7652C14.5855 16.6948 14.625 16.5995 14.625 16.5C14.625 16.4005 14.5855 16.3052 14.5152 16.2348C14.4448 16.1645 14.3495 16.125 14.25 16.125H13.5V15.375C13.5 15.2755 13.4605 15.1802 13.3902 15.1098C13.3198 15.0395 13.2245 15 13.125 15C13.0255 15 12.9302 15.0395 12.8598 15.1098C12.7895 15.1802 12.75 15.2755 12.75 15.375V16.125H12C11.9005 16.125 11.8052 16.1645 11.7348 16.2348C11.6645 16.3052 11.625 16.4005 11.625 16.5C11.625 16.5995 11.6645 16.6948 11.7348 16.7652C11.8052 16.8355 11.9005 16.875 12 16.875Z" fill="#054E5C"/>
<path d="M12 30.75H11.25V30C11.25 29.9005 11.2105 29.8052 11.1402 29.7348C11.0698 29.6645 10.9745 29.625 10.875 29.625C10.7755 29.625 10.6802 29.6645 10.6098 29.7348C10.5395 29.8052 10.5 29.9005 10.5 30V30.75H9.75C9.65054 30.75 9.55516 30.7895 9.48483 30.8598C9.41451 30.9302 9.375 31.0255 9.375 31.125C9.375 31.2245 9.41451 31.3198 9.48483 31.3902C9.55516 31.4605 9.65054 31.5 9.75 31.5H10.5V32.25C10.5 32.3495 10.5395 32.4448 10.6098 32.5152C10.6802 32.5855 10.7755 32.625 10.875 32.625C10.9745 32.625 11.0698 32.5855 11.1402 32.5152C11.2105 32.4448 11.25 32.3495 11.25 32.25V31.5H12C12.0995 31.5 12.1948 31.4605 12.2652 31.3902C12.3355 31.3198 12.375 31.2245 12.375 31.125C12.375 31.0255 12.3355 30.9302 12.2652 30.8598C12.1948 30.7895 12.0995 30.75 12 30.75Z" fill="#054E5C"/>
<path d="M27.375 13.875H28.125V14.625C28.125 14.7245 28.1645 14.8198 28.2348 14.8902C28.3052 14.9605 28.4005 15 28.5 15C28.5995 15 28.6948 14.9605 28.7652 14.8902C28.8355 14.8198 28.875 14.7245 28.875 14.625V13.875H29.625C29.7245 13.875 29.8198 13.8355 29.8902 13.7652C29.9605 13.6948 30 13.5995 30 13.5C30 13.4005 29.9605 13.3052 29.8902 13.2348C29.8198 13.1645 29.7245 13.125 29.625 13.125H28.875V12.375C28.875 12.2755 28.8355 12.1802 28.7652 12.1098C28.6948 12.0395 28.5995 12 28.5 12C28.4005 12 28.3052 12.0395 28.2348 12.1098C28.1645 12.1802 28.125 12.2755 28.125 12.375V13.125H27.375C27.2755 13.125 27.1802 13.1645 27.1098 13.2348C27.0395 13.3052 27 13.4005 27 13.5C27 13.5995 27.0395 13.6948 27.1098 13.7652C27.1802 13.8355 27.2755 13.875 27.375 13.875Z" fill="#054E5C"/>
<path d="M32.25 29.625H31.5V28.875C31.5 28.7755 31.4605 28.6802 31.3902 28.6098C31.3198 28.5395 31.2245 28.5 31.125 28.5C31.0255 28.5 30.9302 28.5395 30.8598 28.6098C30.7895 28.6802 30.75 28.7755 30.75 28.875V29.625H30C29.9005 29.625 29.8052 29.6645 29.7348 29.7348C29.6645 29.8052 29.625 29.9005 29.625 30C29.625 30.0995 29.6645 30.1948 29.7348 30.2652C29.8052 30.3355 29.9005 30.375 30 30.375H30.75V31.125C30.75 31.2245 30.7895 31.3198 30.8598 31.3902C30.9302 31.4605 31.0255 31.5 31.125 31.5C31.2245 31.5 31.3198 31.4605 31.3902 31.3902C31.4605 31.3198 31.5 31.2245 31.5 31.125V30.375H32.25C32.3495 30.375 32.4448 30.3355 32.5152 30.2652C32.5855 30.1948 32.625 30.0995 32.625 30C32.625 29.9005 32.5855 29.8052 32.5152 29.7348C32.4448 29.6645 32.3495 29.625 32.25 29.625Z" fill="#054E5C"/>
</g>
</g>
<rect x="0.5" y="0.5" width="41" height="41" rx="20.5" stroke="#054E5C"/>
<defs>
<clipPath id="clip0_1595_19932">
<rect x="1" y="1" width="40" height="40" rx="20" fill="white"/>
</clipPath>
<clipPath id="clip1_1595_19932">
<rect width="24" height="24" fill="white" transform="translate(9 9)"/>
</clipPath>
</defs>
</svg>
