<svg width="50" height="70" fill="none" xmlns="http://www.w3.org/2000/svg">
    <path fill-rule="evenodd" clip-rule="evenodd" d="M46.434 35.35C48.698 31.84 50 27.73 50 23.333 50 10.447 38.807 0 25 0S0 10.447 0 23.333C0 27.73 1.302 31.84 3.566 35.35L25 70l21.434-34.65Z" fill="#FFB901"/>
    <path d="M15 20.4a.6.6 0 0 0-.6.6v9a1.6 1.6 0 0 0 1.6 1.6h7a1.6 1.6 0 0 0 1.6-1.6v-9a.6.6 0 0 0-.6-.6h-9Zm.6 9.6v-8.4h7.8V30a.4.4 0 0 1-.4.4h-7a.4.4 0 0 1-.4-.4ZM28 20.4a.6.6 0 0 0-.6.6v7.5a3.1 3.1 0 1 0 6.2 0V21a.6.6 0 0 0-.6-.6h-5Zm.6 8.1v-6.9h3.8v6.9a1.9 1.9 0 1 1-3.8 0Z" fill="#010101" stroke="#010101" stroke-width=".2"/>
    <path d="M28 15.4a.6.6 0 0 0-.6.6v5a.6.6 0 0 0 .6.6h5a.6.6 0 0 0 .6-.6v-5a.6.6 0 0 0-.6-.6h-5Zm4.4 5h-3.8v-3.8h3.8v3.8Z" fill="#010101" stroke="#010101" stroke-width=".2"/>
    <path d="M35.212 10.44a1.6 1.6 0 0 0-1.538-2.04h-6.349a1.6 1.6 0 0 0-1.538 2.04l1.635 5.725A.6.6 0 0 0 28 16.6h5a.6.6 0 0 0 .577-.435l1.636-5.725Zm-8.272-.33a.4.4 0 0 1 .385-.51h6.349a.4.4 0 0 1 .384.51l-1.511 5.29h-4.095l-1.512-5.29ZM16 16.4a.6.6 0 0 0-.6.6v4a.6.6 0 0 0 .6.6h7a.6.6 0 0 0 .6-.6v-4a.6.6 0 0 0-.6-.6h-7Zm6.4 4h-5.8v-2.8h5.8v2.8Z" fill="#010101" stroke="#010101" stroke-width=".2"/>
    <path d="M21.4 16.4h-3.8v-5.843a.4.4 0 0 1 .566-.364l3 1.371a.4.4 0 0 1 .234.364V16.4Zm-2.735-7.298a1.6 1.6 0 0 0-2.265 1.455V17a.6.6 0 0 0 .6.6h5a.6.6 0 0 0 .6-.6v-5.072a1.6 1.6 0 0 0-.935-1.455l-3-1.371ZM29.6 9a.6.6 0 0 0-1.2 0v3a.6.6 0 0 0 1.2 0V9ZM32.6 9a.6.6 0 0 0-1.2 0v3a.6.6 0 0 0 1.2 0V9Z" fill="#010101" stroke="#010101" stroke-width=".2"/>
</svg>