<svg width="62" height="68" viewBox="0 0 62 68" fill="none" xmlns="http://www.w3.org/2000/svg">
<g filter="url(#filter0_dd_179_4752)">
<path d="M31.0028 25.7755C31.832 25.7755 32.5409 25.4802 33.1295 24.8897C33.7184 24.2991 34.0128 23.5892 34.0128 22.7601C34.0128 21.9309 33.7176 21.2219 33.127 20.633C32.5364 20.0444 31.8264 19.7501 30.997 19.7501C30.1678 19.7501 29.4589 20.0454 28.8703 20.6359C28.2814 21.2265 27.987 21.9365 27.987 22.7659C27.987 23.5951 28.2823 24.304 28.8728 24.8926C29.4634 25.4812 30.1734 25.7755 31.0028 25.7755ZM30.9999 41.8492C26.8055 38.2148 23.6602 34.8324 21.5641 31.7022C19.468 28.5716 18.4199 25.6976 18.4199 23.0801C18.4199 19.234 19.6639 16.1202 22.152 13.7388C24.6403 11.3574 27.5896 10.1667 30.9999 10.1667C34.4102 10.1667 37.3595 11.3574 39.8478 13.7388C42.3359 16.1202 43.5799 19.234 43.5799 23.0801C43.5799 25.6976 42.5319 28.5716 40.4358 31.7022C38.3396 34.8324 35.1944 38.2148 30.9999 41.8492Z" fill="#FFB901"/>
</g>
<defs>
<filter id="filter0_dd_179_4752" x="-7" y="-4" width="76" height="76" filterUnits="userSpaceOnUse" color-interpolation-filters="sRGB">
<feFlood flood-opacity="0" result="BackgroundImageFix"/>
<feColorMatrix in="SourceAlpha" type="matrix" values="0 0 0 0 0 0 0 0 0 0 0 0 0 0 0 0 0 0 127 0" result="hardAlpha"/>
<feOffset dy="4"/>
<feGaussianBlur stdDeviation="2"/>
<feColorMatrix type="matrix" values="0 0 0 0 0 0 0 0 0 0 0 0 0 0 0 0 0 0 0.3 0"/>
<feBlend mode="normal" in2="BackgroundImageFix" result="effect1_dropShadow_179_4752"/>
<feColorMatrix in="SourceAlpha" type="matrix" values="0 0 0 0 0 0 0 0 0 0 0 0 0 0 0 0 0 0 127 0" result="hardAlpha"/>
<feMorphology radius="6" operator="dilate" in="SourceAlpha" result="effect2_dropShadow_179_4752"/>
<feOffset dy="8"/>
<feGaussianBlur stdDeviation="6"/>
<feColorMatrix type="matrix" values="0 0 0 0 0 0 0 0 0 0 0 0 0 0 0 0 0 0 0.15 0"/>
<feBlend mode="normal" in2="effect1_dropShadow_179_4752" result="effect2_dropShadow_179_4752"/>
<feBlend mode="normal" in="SourceGraphic" in2="effect2_dropShadow_179_4752" result="shape"/>
</filter>
</defs>
</svg>
