<svg xmlns="http://www.w3.org/2000/svg" width="60" height="60" fill="none"><rect width="60" height="60" x=".002" fill="#29A9C2" rx="16"/><path stroke="#FEFEFE" stroke-width="1.8" d="M34.803 26a4.8 4.8 0 1 1-9.6 0 4.8 4.8 0 0 1 9.6 0Z"/><path stroke="#FEFEFE" stroke-width="1.8" d="M30.002 14c6.494 0 12 5.485 12 12.139 0 6.76-5.596 11.504-10.764 14.73a2.477 2.477 0 0 1-2.472 0c-5.159-3.257-10.764-7.946-10.764-14.73 0-6.654 5.506-12.139 12-12.139Z"/><path stroke="#FEFEFE" stroke-linecap="round" stroke-width="1.8" d="M39.602 42.8c0 1.767-4.298 3.2-9.6 3.2s-9.6-1.433-9.6-3.2"/></svg>