<svg width="26" height="32" viewBox="0 0 26 32" fill="none" xmlns="http://www.w3.org/2000/svg">
<path d="M13.0028 15.7755C13.832 15.7755 14.5409 15.4802 15.1295 14.8897C15.7184 14.2991 16.0128 13.5892 16.0128 12.7601C16.0128 11.9309 15.7176 11.2219 15.127 10.633C14.5364 10.0444 13.8264 9.75008 12.997 9.75008C12.1678 9.75008 11.4589 10.0454 10.8703 10.6359C10.2814 11.2265 9.987 11.9365 9.987 12.7659C9.987 13.5951 10.2823 14.304 10.8728 14.8926C11.4634 15.4812 12.1734 15.7755 13.0028 15.7755ZM12.9999 31.8492C8.80548 28.2148 5.6602 24.8324 3.56409 21.7022C1.46798 18.5716 0.419922 15.6976 0.419922 13.0801C0.419922 9.23397 1.66395 6.12022 4.152 3.73883C6.64034 1.35744 9.58964 0.166748 12.9999 0.166748C16.4102 0.166748 19.3595 1.35744 21.8478 3.73883C24.3359 6.12022 25.5799 9.23397 25.5799 13.0801C25.5799 15.6976 24.5319 18.5716 22.4358 21.7022C20.3396 24.8324 17.1944 28.2148 12.9999 31.8492Z" fill="#FFB901"/>
</svg>
