<svg xmlns="http://www.w3.org/2000/svg" width="24" height="24" fill="none"><path stroke="#054E5C" stroke-linecap="round" stroke-linejoin="round" stroke-width="1.5" d="M18.709 3.495C16.817 2.554 14.5 2 12 2c-2.5 0-4.816.554-6.709 1.495-.928.462-1.392.693-1.841 1.419C3 5.64 3 6.342 3 7.748v3.49c0 5.683 4.542 8.842 7.173 10.196.734.377 1.1.566 1.827.566.726 0 1.093-.189 1.827-.566C16.457 20.08 21 16.92 21 11.237V7.748c0-1.406 0-2.108-.45-2.834s-.913-.957-1.841-1.419Z"/><path stroke="#054E5C" stroke-linecap="round" stroke-linejoin="round" stroke-width="1.5" d="M10 10V8.5a2 2 0 1 1 4 0V10M14 10h-4a1.5 1.5 0 0 0-1.5 1.5V13a1.5 1.5 0 0 0 1.5 1.5h4a1.5 1.5 0 0 0 1.5-1.5v-1.5A1.5 1.5 0 0 0 14 10Z"/></svg>