<svg width="36" height="36" viewBox="0 0 36 36" fill="none" xmlns="http://www.w3.org/2000/svg">
<path d="M31.1609 27C32.2848 27 33.1788 26.2928 33.9815 25.3037C35.6247 23.2791 32.9268 21.6612 31.8978 20.8689C30.8519 20.0634 29.684 19.6071 28.4999 19.5M26.9999 16.5C29.0709 16.5 30.7499 14.8211 30.7499 12.75C30.7499 10.6789 29.0709 9 26.9999 9" stroke="#010101" stroke-width="1.5" stroke-linecap="round"/>
<path d="M4.83882 27C3.71486 27 2.82089 26.2928 2.01819 25.3037C0.375015 23.2791 3.07289 21.6612 4.10184 20.8689C5.14784 20.0634 6.31575 19.6071 7.49988 19.5M8.24988 16.5C6.17882 16.5 4.49988 14.8211 4.49988 12.75C4.49988 10.6789 6.17882 9 8.24988 9" stroke="#010101" stroke-width="1.5" stroke-linecap="round"/>
<path d="M12.1255 22.6668C10.5929 23.6145 6.57429 25.5496 9.02187 27.9711C10.2175 29.154 11.5491 30 13.2233 30H22.7765C24.4506 30 25.7822 29.154 26.9778 27.9711C29.4254 25.5496 25.4069 23.6145 23.8742 22.6668C20.28 20.4444 15.7196 20.4444 12.1255 22.6668Z" stroke="#010101" stroke-width="1.5" stroke-linecap="round" stroke-linejoin="round"/>
<path d="M23.2498 11.25C23.2498 14.1495 20.8993 16.5 17.9998 16.5C15.1003 16.5 12.7498 14.1495 12.7498 11.25C12.7498 8.3505 15.1003 6 17.9998 6C20.8993 6 23.2498 8.3505 23.2498 11.25Z" stroke="#010101" stroke-width="1.5"/>
</svg>
