<svg width="30" height="30" viewBox="0 0 30 30" fill="none" xmlns="http://www.w3.org/2000/svg">
<path d="M18.473 19.527L19.527 18.473L15.75 14.696V10H14.25V15.3038L18.473 19.527ZM15.0017 24.5C13.6877 24.5 12.4527 24.2507 11.2965 23.752C10.1403 23.2533 9.13467 22.5766 8.2795 21.7218C7.42433 20.8669 6.74725 19.8617 6.24825 18.706C5.74942 17.5503 5.5 16.3156 5.5 15.0017C5.5 13.6877 5.74933 12.4527 6.248 11.2965C6.74667 10.1403 7.42342 9.13467 8.27825 8.2795C9.13308 7.42433 10.1383 6.74725 11.294 6.24825C12.4497 5.74942 13.6844 5.5 14.9983 5.5C16.3123 5.5 17.5473 5.74933 18.7035 6.248C19.8597 6.74667 20.8653 7.42342 21.7205 8.27825C22.5757 9.13308 23.2528 10.1383 23.7518 11.294C24.2506 12.4497 24.5 13.6844 24.5 14.9983C24.5 16.3123 24.2507 17.5473 23.752 18.7035C23.2533 19.8597 22.5766 20.8653 21.7218 21.7205C20.8669 22.5757 19.8617 23.2528 18.706 23.7518C17.5503 24.2506 16.3156 24.5 15.0017 24.5ZM15 23C17.2167 23 19.1042 22.2208 20.6625 20.6625C22.2208 19.1042 23 17.2167 23 15C23 12.7833 22.2208 10.8958 20.6625 9.3375C19.1042 7.77917 17.2167 7 15 7C12.7833 7 10.8958 7.77917 9.3375 9.3375C7.77917 10.8958 7 12.7833 7 15C7 17.2167 7.77917 19.1042 9.3375 20.6625C10.8958 22.2208 12.7833 23 15 23Z" fill="black"/>
</svg>
