<svg width="60" height="60" viewBox="0 0 60 60" fill="none" xmlns="http://www.w3.org/2000/svg">
<path d="M30 60C46.5685 60 60 46.5685 60 30C60 13.4315 46.5685 0 30 0C13.4315 0 0 13.4315 0 30C0 46.5685 13.4315 60 30 60Z" fill="#3C8E9F"/>
<path d="M46.0087 18.9769C44.3809 17.4438 41.7838 17.6041 40.2025 19.1854L27.113 32.2749L22.8385 28.0004C21.2575 26.4193 18.6601 26.259 17.0323 27.7919C15.3479 29.3783 15.3179 32.0304 16.9422 33.6547L25.9665 42.6761C26.5997 43.3091 27.6262 43.3091 28.2594 42.6761L46.0986 24.8397C47.7232 23.2154 47.6931 20.5631 46.0087 18.9769Z" fill="white"/>
</svg>
