<svg width="60" height="60" viewBox="0 0 60 60" fill="none" xmlns="http://www.w3.org/2000/svg">
<path d="M51.3586 7.64112C51.3586 10.2036 49.4099 12.2815 47.0075 12.2815C44.6052 12.2815 42.6592 10.2029 42.6592 7.64112C42.6592 5.07576 44.6059 3 47.0075 3C49.4099 3 51.3586 5.07648 51.3586 7.64112Z" stroke="#0B7287" stroke-width="1.5" stroke-miterlimit="10" stroke-linecap="round" stroke-linejoin="round"/>
<path d="M54.0131 16.4986C55.7526 16.4986 56.8292 17.9724 56.4087 19.7732L51.7532 36.7493H42.26L37.6066 19.7732C37.1833 17.9724 38.2627 16.4986 40.0015 16.4986H54.0131Z" stroke="#0B7287" stroke-width="1.5" stroke-miterlimit="10" stroke-linecap="round" stroke-linejoin="round"/>
<path d="M50.1724 57H43.8443L42.2607 36.7493H51.754L50.1724 57Z" stroke="#0B7287" stroke-width="1.5" stroke-miterlimit="10" stroke-linecap="round" stroke-linejoin="round"/>
<path d="M17.1336 12.2818C19.5362 12.2818 21.484 10.2042 21.484 7.64138C21.484 5.07855 19.5362 3.00098 17.1336 3.00098C14.7309 3.00098 12.7832 5.07855 12.7832 7.64138C12.7832 10.2042 14.7309 12.2818 17.1336 12.2818Z" stroke="#0B7287" stroke-width="1.5" stroke-miterlimit="10" stroke-linecap="round" stroke-linejoin="round"/>
<path d="M21.2755 33.3754L30.2523 36.264C31.086 36.5304 31.9675 37.4794 32.2105 38.37L37.3054 57H34.141L27.8122 40.9685L18.3197 40.1246C16.5721 40.1246 15.1553 38.6141 15.1553 36.7493V16.5H19.9005L21.2755 33.3754Z" stroke="#0B7287" stroke-width="1.5" stroke-miterlimit="10" stroke-linecap="round" stroke-linejoin="round"/>
<path d="M18.3207 40.1253C16.5731 40.1253 15.1563 38.6148 15.1563 36.75V33.5078C14.6385 33.4286 14.1134 33.3739 13.5747 33.3739C7.45923 33.3739 2.5 38.663 2.5 45.1869C2.5 51.7109 7.45923 57 13.5747 57C19.6923 57 24.6502 51.7101 24.6502 45.1869C24.6502 43.5633 24.3424 42.0182 23.7875 40.6121L18.3207 40.1253Z" stroke="#0B7287" stroke-width="1.5" stroke-miterlimit="10" stroke-linecap="round" stroke-linejoin="round"/>
</svg>
