<svg width="60" height="60" viewBox="0 0 60 60" fill="none" xmlns="http://www.w3.org/2000/svg">
<path d="M43.4586 19.9194C43.071 19.9195 42.6921 20.0344 42.3699 20.2498C42.0476 20.4651 41.7964 20.7712 41.6481 21.1293C41.4998 21.4874 41.4611 21.8815 41.5367 22.2616C41.6124 22.6418 41.799 22.991 42.0731 23.265C42.3472 23.5391 42.6965 23.7257 43.0766 23.8013C43.4568 23.8768 43.8508 23.838 44.2089 23.6896C44.567 23.5413 44.873 23.29 45.0883 22.9677C45.3036 22.6454 45.4185 22.2665 45.4185 21.8789C45.4179 21.3594 45.2112 20.8613 44.8437 20.4939C44.4763 20.1266 43.9782 19.92 43.4586 19.9194ZM43.4586 22.4326C43.3492 22.4326 43.2422 22.4001 43.1512 22.3393C43.0602 22.2785 42.9893 22.192 42.9474 22.0909C42.9055 21.9898 42.8946 21.8785 42.9159 21.7712C42.9373 21.6638 42.99 21.5652 43.0674 21.4878C43.1448 21.4104 43.2434 21.3577 43.3507 21.3363C43.4581 21.315 43.5694 21.3259 43.6705 21.3678C43.7716 21.4097 43.8581 21.4806 43.9189 21.5716C43.9797 21.6626 44.0122 21.7696 44.0122 21.879C44.0121 22.0258 43.9537 22.1665 43.8499 22.2703C43.7461 22.3741 43.6054 22.4325 43.4586 22.4326Z" fill="#0B7287"/>
<path d="M31.4375 19.5051C31.0499 19.505 30.6709 19.62 30.3486 19.8353C30.0263 20.0506 29.7751 20.3567 29.6268 20.7148C29.4784 21.0729 29.4396 21.467 29.5152 21.8472C29.5908 22.2274 29.7774 22.5766 30.0515 22.8507C30.3256 23.1248 30.6748 23.3115 31.055 23.3871C31.4352 23.4627 31.8292 23.4239 32.1874 23.2756C32.5455 23.1272 32.8516 22.8761 33.0669 22.5538C33.2823 22.2315 33.3972 21.8525 33.3972 21.4649C33.3966 20.9453 33.19 20.4472 32.8226 20.0798C32.4552 19.7124 31.9571 19.5057 31.4375 19.5051ZM31.4375 22.0184C31.328 22.0184 31.221 21.986 31.1299 21.9251C31.0388 21.8643 30.9679 21.7779 30.926 21.6767C30.884 21.5755 30.8731 21.4642 30.8944 21.3568C30.9158 21.2494 30.9685 21.1508 31.0459 21.0733C31.1234 20.9959 31.222 20.9432 31.3294 20.9218C31.4368 20.9005 31.5481 20.9114 31.6493 20.9534C31.7505 20.9953 31.8369 21.0663 31.8977 21.1573C31.9586 21.2484 31.991 21.3554 31.991 21.4649C31.9908 21.6116 31.9324 21.7523 31.8287 21.8561C31.7249 21.9598 31.5842 22.0182 31.4375 22.0184Z" fill="#0B7287"/>
<path d="M41.0819 25.1367C40.8954 25.1367 40.7166 25.2108 40.5847 25.3427C40.4528 25.4745 40.3788 25.6534 40.3788 25.8398C40.3812 26.2263 40.3072 26.6093 40.161 26.967C40.0149 27.3247 39.7994 27.65 39.527 27.9241C39.2546 28.1982 38.9308 28.4157 38.574 28.5641C38.2172 28.7126 37.8346 28.789 37.4482 28.789C37.0618 28.789 36.6792 28.7126 36.3224 28.5641C35.9657 28.4157 35.6418 28.1982 35.3694 27.9241C35.097 27.65 34.8816 27.3247 34.7354 26.967C34.5892 26.6093 34.5152 26.2263 34.5176 25.8398C34.5176 25.6534 34.4436 25.4745 34.3117 25.3427C34.1798 25.2108 34.001 25.1367 33.8145 25.1367C33.628 25.1367 33.4492 25.2108 33.3173 25.3427C33.1855 25.4745 33.1114 25.6534 33.1114 25.8398C33.1084 26.4113 33.2184 26.9776 33.435 27.5064C33.6516 28.0352 33.9706 28.5159 34.3736 28.921C34.7766 29.3261 35.2557 29.6476 35.7833 29.867C36.311 30.0863 36.8768 30.1993 37.4482 30.1993C38.0196 30.1993 38.5854 30.0863 39.1131 29.867C39.6407 29.6476 40.1198 29.3261 40.5228 28.921C40.9258 28.5159 41.2448 28.0352 41.4614 27.5064C41.678 26.9776 41.788 26.4113 41.785 25.8398C41.785 25.6534 41.7109 25.4745 41.5791 25.3427C41.4472 25.2108 41.2684 25.1367 41.0819 25.1367Z" fill="#0B7287"/>
<path d="M32.4811 14.5718C32.5734 14.5719 32.6649 14.5538 32.7502 14.5185C32.8355 14.4831 32.9131 14.4313 32.9783 14.3659L35.4362 11.908C35.5681 11.7762 35.6421 11.5973 35.6422 11.4108C35.6422 11.2243 35.5681 11.0455 35.4362 10.9136C35.3044 10.7817 35.1255 10.7077 34.9391 10.7076C34.7526 10.7076 34.5737 10.7817 34.4418 10.9136L31.9843 13.3711C31.886 13.4694 31.819 13.5947 31.7918 13.7311C31.7647 13.8675 31.7786 14.0089 31.8318 14.1374C31.885 14.2658 31.9752 14.3757 32.0908 14.4529C32.2064 14.5302 32.3423 14.5714 32.4814 14.5714L32.4811 14.5718Z" fill="#0B7287"/>
<path d="M35.5293 14.3658C35.5946 14.4311 35.6722 14.4829 35.7575 14.5183C35.8428 14.5536 35.9342 14.5718 36.0266 14.5718C36.1189 14.5718 36.2104 14.5536 36.2957 14.5183C36.381 14.4829 36.4585 14.4311 36.5238 14.3658L38.9817 11.9079C39.1136 11.7761 39.1876 11.5972 39.1876 11.4107C39.1876 11.2242 39.1136 11.0454 38.9817 10.9135C38.8498 10.7816 38.671 10.7075 38.4845 10.7075C38.298 10.7075 38.1191 10.7816 37.9872 10.9135L35.5293 13.3711C35.464 13.4364 35.4122 13.514 35.3768 13.5993C35.3414 13.6846 35.3232 13.7761 35.3232 13.8685C35.3232 13.9609 35.3414 14.0523 35.3768 14.1377C35.4122 14.223 35.464 14.3005 35.5293 14.3658Z" fill="#0B7287"/>
<path d="M45.5085 4.32424C44.3209 3.13872 42.8728 2.2471 41.2796 1.7205C39.6863 1.1939 37.9921 1.04687 36.3319 1.29116C34.6718 1.53545 33.0917 2.16429 31.7177 3.12752C30.3437 4.09075 29.2138 5.36173 28.4181 6.83908C27.6867 5.4773 26.6704 4.28908 25.4386 3.35528C24.2067 2.42147 22.7882 1.764 21.2794 1.4276C19.7707 1.09121 18.2072 1.08378 16.6953 1.40583C15.1835 1.72788 13.7587 2.37185 12.5181 3.29392C11.2774 4.21598 10.25 5.3945 9.50562 6.74926C8.76128 8.10403 8.31752 9.60325 8.20456 11.1449C8.09159 12.6865 8.31207 14.2344 8.85098 15.6832C9.38989 17.132 10.2346 18.4477 11.3276 19.5408L27.9213 36.1345C27.9866 36.1998 28.0641 36.2517 28.1495 36.287C28.2348 36.3223 28.3262 36.3405 28.4186 36.3405C28.5109 36.3405 28.6024 36.3223 28.6877 36.287C28.773 36.2517 28.8505 36.1998 28.9158 36.1345L31.74 33.3103C33.516 34.1327 35.4489 34.561 37.406 34.5656C39.3631 34.5703 41.2981 34.1512 43.0779 33.3372C44.8577 32.5233 46.4403 31.3337 47.7168 29.8502C48.9934 28.3667 49.9337 26.6244 50.4731 24.7431C51.2613 24.4887 51.9485 23.9909 52.436 23.3213C52.9234 22.6517 53.186 21.8448 53.186 21.0165C53.186 20.1883 52.9234 19.3814 52.436 18.7118C51.9485 18.0422 51.2613 17.5444 50.4731 17.29C50.0661 15.8583 49.4251 14.5038 48.5762 13.2812C48.7782 11.6533 48.607 10.0008 48.0755 8.4489C47.5439 6.89701 46.6661 5.48648 45.5085 4.32424ZM28.4181 34.6426L12.322 18.5466C11.3301 17.5537 10.5743 16.3504 10.1106 15.0257C9.64691 13.7011 9.48725 12.2891 9.64345 10.8943C9.79965 9.49959 10.2677 8.15787 11.0129 6.9686C11.7581 5.77933 12.7614 4.77299 13.9484 4.02417C15.1354 3.27534 16.4757 2.80321 17.87 2.64278C19.2642 2.48234 20.6767 2.6377 22.0028 3.09736C23.3288 3.55701 24.5345 4.30916 25.5303 5.29809C26.5262 6.28702 27.2867 7.48736 27.7556 8.81017C27.8041 8.94727 27.8939 9.06597 28.0126 9.14993C28.1313 9.23389 28.2732 9.27897 28.4186 9.27897C28.564 9.27897 28.7058 9.23389 28.8245 9.14993C28.9433 9.06597 29.033 8.94727 29.0815 8.81017C29.6088 7.32084 30.5048 5.98932 31.6858 4.93982C32.8668 3.89032 34.2944 3.15703 35.8353 2.80834C37.3763 2.45966 38.9805 2.50695 40.4983 2.94579C42.0161 3.38464 43.398 4.20074 44.5151 5.31799C46.1969 7.00683 47.174 9.27172 47.2485 11.654C45.5991 9.92961 43.524 8.671 41.2325 8.00525C38.9411 7.33949 36.5146 7.29017 34.198 7.86225C31.8815 8.43434 29.7569 9.60758 28.0388 11.2635C26.3207 12.9194 25.07 14.9993 24.413 17.2933C23.6273 17.5492 22.9428 18.0471 22.4574 18.7158C21.972 19.3845 21.7105 20.1896 21.7105 21.0158C21.7105 21.8421 21.972 22.6472 22.4574 23.3159C22.9428 23.9845 23.6273 24.4825 24.413 24.7384C25.3496 28.0354 27.5046 30.8529 30.4413 32.6201L28.4181 34.6426ZM49.7629 18.556C50.3316 18.6697 50.8433 18.977 51.2109 19.4255C51.5786 19.8741 51.7796 20.4361 51.7796 21.0161C51.7796 21.596 51.5786 22.1581 51.2109 22.6066C50.8433 23.0551 50.3316 23.3624 49.7629 23.4762C49.6322 23.502 49.5116 23.5644 49.4151 23.6561C49.3185 23.7478 49.25 23.865 49.2175 23.9942C48.554 26.6142 47.0357 28.9381 44.9028 30.5981C42.7699 32.258 40.1443 33.1592 37.4416 33.1589C34.7389 33.1586 32.1134 32.2569 29.9809 30.5965C27.8483 28.9361 26.3305 26.6119 25.6676 23.9917C25.6352 23.8629 25.5669 23.746 25.4708 23.6544C25.3747 23.5628 25.2546 23.5003 25.1244 23.4741C24.5571 23.3593 24.047 23.0518 23.6806 22.6038C23.3141 22.1558 23.1139 21.5949 23.1139 21.0161C23.1139 20.4373 23.3141 19.8763 23.6806 19.4283C24.047 18.9803 24.5571 18.6728 25.1244 18.5581C25.2546 18.5319 25.3747 18.4694 25.4708 18.3778C25.5669 18.2862 25.6352 18.1692 25.6676 18.0404C26.2329 15.8086 27.4206 13.7834 29.0924 12.2005C30.7643 10.6176 32.8514 9.54234 35.1107 9.09981C37.3701 8.65729 39.7087 8.86577 41.8541 9.70097C43.9996 10.5362 45.8636 11.9637 47.229 13.8174C47.2563 13.865 47.2889 13.9094 47.3263 13.9495C48.2068 15.1821 48.8483 16.5689 49.2175 18.038C49.25 18.1671 49.3185 18.2843 49.4151 18.376C49.5116 18.4677 49.6322 18.5301 49.7629 18.556Z" fill="#0B7287"/>
<path d="M48.7653 38.3829L48.5507 38.4987C47.4977 37.2533 45.7006 36.7771 44.3283 37.4727C44.3231 37.4753 44.3178 37.478 44.3126 37.4808L43.7436 37.7873C43.0154 37.1811 42.119 36.8125 41.175 36.731C40.231 36.6496 39.2847 36.8592 38.4635 37.3317L35.2285 39.0907H30.9197C29.9927 39.0894 29.0778 38.8798 28.2427 38.4772L27.6481 38.1896C25.9459 37.3613 24.0477 37.0202 22.1636 37.2042C20.2795 37.3882 18.4831 38.09 16.9733 39.232C16.9579 39.2437 16.9429 39.2555 16.9285 39.2687L15.4934 40.5469C14.9715 41.0108 14.3568 41.3583 13.6903 41.5664L12.891 38.9448C12.8471 38.8007 12.758 38.6745 12.6369 38.5848C12.5158 38.4952 12.3692 38.4468 12.2185 38.4468H5.27631C5.17684 38.4468 5.07851 38.4679 4.98781 38.5087C4.89711 38.5495 4.8161 38.6091 4.75014 38.6835C4.68417 38.758 4.63475 38.8456 4.60513 38.9405C4.57552 39.0355 4.56639 39.1356 4.57834 39.2344L6.89232 58.2102C6.91313 58.3807 6.9956 58.5376 7.12418 58.6515C7.25276 58.7653 7.41856 58.8281 7.59029 58.8281H18.0036C18.1134 58.8281 18.2218 58.8024 18.3199 58.7529C18.4181 58.7035 18.5032 58.6317 18.5686 58.5434C18.634 58.4551 18.6778 58.3527 18.6965 58.2445C18.7151 58.1362 18.7082 58.025 18.6761 57.9199L17.3203 53.4727L21.5427 50.8034C22.1001 50.4956 22.7536 50.4112 23.3709 50.5675C23.3854 50.5711 23.4002 50.5743 23.4149 50.577L32.0818 52.1729C34.449 52.5963 36.8897 52.2517 39.0472 51.1894C39.077 51.1747 39.1058 51.1578 39.1332 51.139L54.1229 40.8464C54.2706 40.745 54.374 40.5909 54.412 40.4158C54.45 40.2407 54.4197 40.0576 54.3272 39.9041C53.7742 38.9833 52.8874 38.3113 51.8514 38.0279C50.8153 37.7446 49.7099 37.8717 48.7653 38.3829ZM44.9711 38.7233C45.7137 38.3521 46.6424 38.6392 47.2608 39.1945L41.6476 42.2229L41.3727 42.3677C41.199 41.8953 40.9547 41.4519 40.6482 41.0527L44.9711 38.7233ZM39.1433 38.5628C39.1489 38.5597 39.155 38.5567 39.16 38.5534C39.6454 38.2729 40.1954 38.1237 40.756 38.1204C41.3166 38.1171 41.8684 38.2598 42.357 38.5345L39.5888 40.026C39.0796 39.6599 38.5057 39.3935 37.8974 39.2408L39.1433 38.5628ZM8.21291 57.4219L6.07037 39.8528H11.6978L17.0541 57.4219H8.21291ZM38.3787 49.9506C36.5032 50.8624 34.3869 51.1561 32.334 50.7893L23.6902 49.1975C22.7258 48.9601 21.7071 49.0983 20.8409 49.5843C20.8299 49.5903 20.819 49.5969 20.8083 49.6036L16.895 52.0781L14.1008 42.9128C14.9615 42.6451 15.7551 42.1967 16.4285 41.5975L17.842 40.3391C19.1448 39.3602 20.6925 38.7598 22.3146 38.604C23.9368 38.4482 25.5705 38.7431 27.0358 39.4561L27.6304 39.7437C28.6565 40.2383 29.7807 40.4959 30.9197 40.4974H36.6854C37.5072 40.4985 38.3037 40.7816 38.942 41.2992C39.5802 41.8169 40.0215 42.5379 40.1922 43.3418L36.0865 43.1556C34.5638 43.0871 33.0379 43.1577 31.5279 43.3665C31.3447 43.3937 31.1795 43.4922 31.0684 43.6405C30.9573 43.7888 30.9093 43.9749 30.9347 44.1585C30.9601 44.342 31.057 44.5081 31.2042 44.6206C31.3514 44.7332 31.5371 44.783 31.7208 44.7594C33.1457 44.5624 34.5855 44.4959 36.0224 44.5608L40.9403 44.7834C40.9509 44.7834 40.9614 44.7841 40.9721 44.7841C41.1586 44.7841 41.3374 44.7101 41.4693 44.5782C41.6011 44.4463 41.6752 44.2675 41.6752 44.081C41.6752 43.9873 41.672 43.8949 41.667 43.8027L42.3088 43.4643L49.4327 39.6211C49.9588 39.3361 50.5632 39.2294 51.1552 39.317C51.7471 39.4046 52.2947 39.6818 52.7158 40.107L38.3787 49.9506Z" fill="#0B7287"/>
</svg>
