<svg width="60" height="60" viewBox="0 0 60 60" fill="none" xmlns="http://www.w3.org/2000/svg">
<g clip-path="url(#clip0_1218_1693)">
<path d="M56.4831 29.4764H52.6445V22.0313C52.6439 21.4739 52.526 20.923 52.2985 20.4142C52.071 19.9054 51.739 19.4502 51.3241 19.0781C51.0804 18.8597 50.8855 18.5923 50.7521 18.2935C50.6186 17.9946 50.5497 17.671 50.5497 17.3438V13.3303C50.5497 13.1128 50.4633 12.9041 50.3094 12.7503C50.1556 12.5964 49.9469 12.51 49.7294 12.51H46.2433C46.0257 12.51 45.8171 12.5964 45.6632 12.7503C45.5094 12.9041 45.423 13.1128 45.423 13.3303V17.3438C45.423 17.671 45.354 17.9946 45.2206 18.2935C45.0872 18.5923 44.8923 18.8597 44.6486 19.0781C44.2337 19.4502 43.9017 19.9054 43.6742 20.4142C43.4467 20.923 43.3288 21.4739 43.3281 22.0313V29.475H2.51688C1.71675 29.475 0.949396 29.7929 0.383622 30.3586C-0.182152 30.9244 -0.5 31.6918 -0.5 32.4919C-0.5 33.292 -0.182152 34.0594 0.383622 34.6251C0.949396 35.1909 1.71675 35.5088 2.51688 35.5088H3.80641V59.1769C3.80653 59.3944 3.893 59.603 4.04681 59.7568C4.20062 59.9106 4.4092 59.9971 4.62672 59.9972H54.3728C54.5904 59.9972 54.799 59.9108 54.9529 59.7569C55.1067 59.6031 55.1931 59.3944 55.1931 59.1769V35.5102H56.4831C57.2833 35.5102 58.0506 35.1923 58.6164 34.6265C59.1822 34.0608 59.5 33.2934 59.5 32.4933C59.5 31.6932 59.1822 30.9258 58.6164 30.36C58.0506 29.7943 57.2833 29.4764 56.4831 29.4764ZM44.9688 22.0313C44.9688 21.704 45.0378 21.3804 45.1712 21.0816C45.3047 20.7828 45.4995 20.5154 45.7431 20.2969C46.1581 19.9248 46.4901 19.4696 46.7176 18.9608C46.9451 18.452 47.063 17.9011 47.0636 17.3438V14.1506H48.9091V17.3438C48.9093 17.9015 49.0271 18.4529 49.2546 18.9621C49.4821 19.4713 49.8143 19.9269 50.2295 20.2992C50.4731 20.5178 50.668 20.7851 50.8014 21.084C50.9348 21.3828 51.0038 21.7063 51.0039 22.0336V29.4774H44.9688V22.0313ZM12.4567 58.3594V56.9531C12.4572 56.5492 12.6179 56.162 12.9035 55.8764C13.1891 55.5909 13.5763 55.4302 13.9802 55.4297H22.0586C22.4625 55.4302 22.8497 55.5909 23.1353 55.8764C23.4209 56.162 23.5815 56.5492 23.582 56.9531V58.3594H12.4567ZM20.4803 43.1311H11.6031C11.2146 43.1311 10.842 42.9768 10.5673 42.7021C10.2926 42.4274 10.1383 42.0548 10.1383 41.6663C10.1383 41.2778 10.2926 40.9052 10.5673 40.6305C10.842 40.3557 11.2146 40.2014 11.6031 40.2014H24.4375C24.826 40.2014 25.1986 40.3557 25.4733 40.6305C25.748 40.9052 25.9023 41.2778 25.9023 41.6663C25.9023 42.0548 25.748 42.4274 25.4733 42.7021C25.1986 42.9768 24.826 43.1311 24.4375 43.1311H20.4803ZM16.3787 44.7717H19.66V53.7877H16.3787V44.7717ZM35.418 58.3594V56.9531C35.4185 56.5492 35.5791 56.162 35.8647 55.8764C36.1503 55.5909 36.5375 55.4302 36.9414 55.4297H45.0198C45.4237 55.4302 45.8109 55.5909 46.0965 55.8764C46.3821 56.162 46.5428 56.5492 46.5433 56.9531V58.3594H35.418ZM43.4416 43.1311H34.5648C34.1763 43.1311 33.8038 42.9768 33.529 42.7021C33.2543 42.4274 33.1 42.0548 33.1 41.6663C33.1 41.2778 33.2543 40.9052 33.529 40.6305C33.8038 40.3557 34.1763 40.2014 34.5648 40.2014H47.3969C47.7854 40.2014 48.158 40.3557 48.4327 40.6305C48.7074 40.9052 48.8617 41.2778 48.8617 41.6663C48.8617 42.0548 48.7074 42.4274 48.4327 42.7021C48.158 42.9768 47.7854 43.1311 47.3969 43.1311H43.4416ZM39.34 44.7717H42.6213V53.7877H39.34V44.7717ZM53.5525 58.358H48.1839V56.9517C48.1829 56.1129 47.8492 55.3087 47.2561 54.7155C46.6629 54.1223 45.8587 53.7887 45.0198 53.7877H44.2619V44.7717H47.3969C48.2205 44.7717 49.0104 44.4445 49.5928 43.8622C50.1752 43.2798 50.5023 42.4899 50.5023 41.6663C50.5023 40.8426 50.1752 40.0527 49.5928 39.4704C49.0104 38.888 48.2205 38.5608 47.3969 38.5608H34.5648C33.7412 38.5608 32.9513 38.888 32.3689 39.4704C31.7866 40.0527 31.4594 40.8426 31.4594 41.6663C31.4594 42.4899 31.7866 43.2798 32.3689 43.8622C32.9513 44.4445 33.7412 44.7717 34.5648 44.7717H37.6994V53.7877H36.9414C36.1026 53.7887 35.2983 54.1223 34.7052 54.7155C34.112 55.3087 33.7783 56.1129 33.7773 56.9517V58.358H25.2227V56.9517C25.2217 56.1129 24.888 55.3087 24.2948 54.7155C23.7017 54.1223 22.8975 53.7887 22.0586 53.7877H21.3006V44.7717H24.4375C25.2611 44.7717 26.051 44.4445 26.6334 43.8622C27.2158 43.2798 27.543 42.4899 27.543 41.6663C27.543 40.8426 27.2158 40.0527 26.6334 39.4704C26.051 38.888 25.2611 38.5608 24.4375 38.5608H11.6031C10.7795 38.5608 9.98962 38.888 9.40723 39.4704C8.82484 40.0527 8.49766 40.8426 8.49766 41.6663C8.49766 42.4899 8.82484 43.2798 9.40723 43.8622C9.98962 44.4445 10.7795 44.7717 11.6031 44.7717H14.7381V53.7877H13.9802C13.1413 53.7887 12.3371 54.1223 11.7439 54.7155C11.1508 55.3087 10.8171 56.1129 10.8161 56.9517V58.358H5.44703V35.5102H53.5525V58.358ZM56.4831 33.8695H2.51688C2.15187 33.8695 1.80182 33.7245 1.54372 33.4664C1.28562 33.2083 1.14062 32.8583 1.14062 32.4933C1.14062 32.1283 1.28562 31.7782 1.54372 31.5201C1.80182 31.262 2.15187 31.117 2.51688 31.117H56.4831C56.8481 31.117 57.1982 31.262 57.4563 31.5201C57.7144 31.7782 57.8594 32.1283 57.8594 32.4933C57.8594 32.8583 57.7144 33.2083 57.4563 33.4664C57.1982 33.7245 56.8481 33.8695 56.4831 33.8695Z" fill="#0B7287"/>
<path d="M58.6797 0H0.320312C0.103033 0.000123522 -0.105332 0.0863958 -0.259103 0.239903C-0.412874 0.393411 -0.499504 0.601628 -0.5 0.818906L-0.5 7.96875C-0.499876 8.18627 -0.41341 8.39485 -0.259599 8.54866C-0.105787 8.70247 0.10279 8.78894 0.320312 8.78906H5.25437V10.9481C4.31301 11.1388 3.46644 11.6489 2.85799 12.392C2.24953 13.1352 1.91657 14.0658 1.91547 15.0262V16.4062C1.91547 16.6236 2.0017 16.832 2.15524 16.9858C2.30877 17.1396 2.51706 17.2262 2.73438 17.2266H9.41359C9.6312 17.2266 9.8399 17.1402 9.99381 16.9863C10.1477 16.8325 10.2343 16.6239 10.2344 16.4062V15.0253C10.2333 14.0648 9.90031 13.1342 9.29186 12.3911C8.6834 11.6479 7.83683 11.1378 6.89547 10.9472V8.78906H15.0123V10.9481C14.071 11.1388 13.2244 11.6489 12.616 12.392C12.0075 13.1352 11.6745 14.0658 11.6734 15.0262V16.4062C11.6734 16.6238 11.7599 16.8325 11.9137 16.9863C12.0675 17.1401 12.2762 17.2266 12.4937 17.2266H19.1716C19.3891 17.2264 19.5977 17.14 19.7515 16.9862C19.9053 16.8323 19.9918 16.6238 19.9919 16.4062V15.0253C19.9908 14.0648 19.6578 13.1342 19.0494 12.3911C18.4409 11.6479 17.5943 11.1378 16.653 10.9472V8.78906H58.6797C58.8972 8.78894 59.1058 8.70247 59.2596 8.54866C59.4134 8.39485 59.4999 8.18627 59.5 7.96875V0.818906C59.4995 0.601628 59.4129 0.393411 59.2591 0.239903C59.1053 0.0863958 58.897 0.000123522 58.6797 0ZM8.59375 15.0253V15.5878H3.55609V15.0253C3.55609 14.3573 3.82144 13.7167 4.29377 13.2444C4.7661 12.7721 5.40671 12.5067 6.07469 12.5067C6.74266 12.5067 7.38327 12.7721 7.8556 13.2444C8.32793 13.7167 8.59375 14.3573 8.59375 15.0253ZM18.3517 15.0253V15.5878H13.3141V15.0253C13.3141 14.3573 13.5794 13.7167 14.0517 13.2444C14.5241 12.7721 15.1647 12.5067 15.8327 12.5067C16.5006 12.5067 17.1412 12.7721 17.6136 13.2444C18.0859 13.7167 18.3517 14.3573 18.3517 15.0253ZM57.8594 7.14844H1.14062V1.64062H57.8594V7.14844Z" fill="#0B7287"/>
</g>
<defs>
<clipPath id="clip0_1218_1693">
<rect width="60" height="60" fill="white" transform="translate(-0.5)"/>
</clipPath>
</defs>
</svg>
