<svg width="60" height="60" viewBox="0 0 60 60" fill="none" xmlns="http://www.w3.org/2000/svg">
<g clip-path="url(#clip0_1218_1292)">
<path d="M56.6875 7.73438H54.5781V4.6875C54.5781 4.00374 54.3065 3.34798 53.823 2.86449C53.3395 2.381 52.6838 2.10938 52 2.10938C51.3162 2.10938 50.6605 2.381 50.177 2.86449C49.6935 3.34798 49.4219 4.00374 49.4219 4.6875V7.73438H43.3281V4.6875C43.3281 4.00374 43.0565 3.34798 42.573 2.86449C42.0895 2.381 41.4338 2.10938 40.75 2.10938C40.0662 2.10938 39.4105 2.381 38.927 2.86449C38.4435 3.34798 38.1719 4.00374 38.1719 4.6875V7.73438H32.0781V4.6875C32.0781 4.00374 31.8065 3.34798 31.323 2.86449C30.8395 2.381 30.1838 2.10938 29.5 2.10938C28.8162 2.10938 28.1605 2.381 27.677 2.86449C27.1935 3.34798 26.9219 4.00374 26.9219 4.6875V7.73438H20.8281V4.6875C20.8281 4.00374 20.5565 3.34798 20.073 2.86449C19.5895 2.381 18.9338 2.10938 18.25 2.10938C17.5662 2.10938 16.9105 2.381 16.427 2.86449C15.9435 3.34798 15.6719 4.00374 15.6719 4.6875V7.73438H9.57812V4.6875C9.57812 4.00374 9.3065 3.34798 8.82301 2.86449C8.33952 2.381 7.68376 2.10938 7 2.10938C6.31624 2.10938 5.66048 2.381 5.17699 2.86449C4.6935 3.34798 4.42188 4.00374 4.42188 4.6875V7.73438H2.3125C1.62889 7.73487 0.973423 8.00665 0.490039 8.49004C0.00665414 8.97342 -0.265128 9.62889 -0.265625 10.3125V17.8125C-0.263797 18.3718 -0.0797968 18.9153 0.25852 19.3607C0.596837 19.8061 1.07105 20.1291 1.60938 20.2809V55.3125C1.60987 55.9961 1.88165 56.6516 2.36504 57.135C2.84842 57.6183 3.50389 57.8901 4.1875 57.8906H54.8125C55.4961 57.8901 56.1516 57.6183 56.635 57.135C57.1183 56.6516 57.3901 55.9961 57.3906 55.3125V20.2809C57.9289 20.1291 58.4032 19.8061 58.7415 19.3607C59.0798 18.9153 59.2638 18.3718 59.2656 17.8125V10.3125C59.2651 9.62889 58.9933 8.97342 58.51 8.49004C58.0266 8.00665 57.3711 7.73487 56.6875 7.73438ZM50.8281 4.6875C50.8281 4.3767 50.9516 4.07863 51.1714 3.85886C51.3911 3.63909 51.6892 3.51562 52 3.51562C52.3108 3.51562 52.6089 3.63909 52.8286 3.85886C53.0484 4.07863 53.1719 4.3767 53.1719 4.6875V7.73438H50.8281V4.6875ZM39.5781 4.6875C39.5781 4.3767 39.7016 4.07863 39.9214 3.85886C40.1411 3.63909 40.4392 3.51562 40.75 3.51562C41.0608 3.51562 41.3589 3.63909 41.5786 3.85886C41.7984 4.07863 41.9219 4.3767 41.9219 4.6875V7.73438H39.5781V4.6875ZM28.3281 4.6875C28.3281 4.3767 28.4516 4.07863 28.6714 3.85886C28.8911 3.63909 29.1892 3.51562 29.5 3.51562C29.8108 3.51562 30.1089 3.63909 30.3286 3.85886C30.5484 4.07863 30.6719 4.3767 30.6719 4.6875V7.73438H28.3281V4.6875ZM17.0781 4.6875C17.0781 4.3767 17.2016 4.07863 17.4214 3.85886C17.6411 3.63909 17.9392 3.51562 18.25 3.51562C18.5608 3.51562 18.8589 3.63909 19.0786 3.85886C19.2984 4.07863 19.4219 4.3767 19.4219 4.6875V7.73438H17.0781V4.6875ZM5.82812 4.6875C5.82812 4.3767 5.95159 4.07863 6.17136 3.85886C6.39113 3.63909 6.6892 3.51562 7 3.51562C7.3108 3.51562 7.60887 3.63909 7.82864 3.85886C8.04841 4.07863 8.17188 4.3767 8.17188 4.6875V7.73438H5.82812V4.6875ZM55.9844 55.3125C55.9839 55.6231 55.8603 55.9209 55.6406 56.1406C55.4209 56.3603 55.1231 56.4839 54.8125 56.4844H4.1875C3.87685 56.4839 3.57907 56.3603 3.35941 56.1406C3.13974 55.9209 3.01612 55.6231 3.01562 55.3125V20.3906H55.9844V55.3125ZM57.8594 17.8125C57.8589 18.1231 57.7353 18.4209 57.5156 18.6406C57.2959 18.8603 56.9981 18.9839 56.6875 18.9844H2.3125C2.00185 18.9839 1.70407 18.8603 1.48441 18.6406C1.26475 18.4209 1.14112 18.1231 1.14062 17.8125V10.3125C1.14112 10.0019 1.26475 9.70407 1.48441 9.48441C1.70407 9.26475 2.00185 9.14112 2.3125 9.14062H8.17188V12.1875C8.17138 12.4981 8.04775 12.7959 7.82809 13.0156C7.60843 13.2353 7.31065 13.3589 7 13.3594C6.81352 13.3594 6.63468 13.4335 6.50282 13.5653C6.37095 13.6972 6.29688 13.876 6.29688 14.0625C6.29688 14.249 6.37095 14.4278 6.50282 14.5597C6.63468 14.6915 6.81352 14.7656 7 14.7656C7.68361 14.7651 8.33908 14.4933 8.82246 14.01C9.30585 13.5266 9.57763 12.8711 9.57812 12.1875V9.14062H19.4219V12.1875C19.4214 12.4981 19.2978 12.7959 19.0781 13.0156C18.8584 13.2353 18.5606 13.3589 18.25 13.3594C18.0635 13.3594 17.8847 13.4335 17.7528 13.5653C17.621 13.6972 17.5469 13.876 17.5469 14.0625C17.5469 14.249 17.621 14.4278 17.7528 14.5597C17.8847 14.6915 18.0635 14.7656 18.25 14.7656C18.9336 14.7651 19.5891 14.4933 20.0725 14.01C20.5558 13.5266 20.8276 12.8711 20.8281 12.1875V9.14062H30.6719V12.1875C30.6714 12.4981 30.5478 12.7959 30.3281 13.0156C30.1084 13.2353 29.8106 13.3589 29.5 13.3594C29.3135 13.3594 29.1347 13.4335 29.0028 13.5653C28.871 13.6972 28.7969 13.876 28.7969 14.0625C28.7969 14.249 28.871 14.4278 29.0028 14.5597C29.1347 14.6915 29.3135 14.7656 29.5 14.7656C30.1836 14.7651 30.8391 14.4933 31.3225 14.01C31.8058 13.5266 32.0776 12.8711 32.0781 12.1875V9.14062H41.9219V12.1875C41.9214 12.4981 41.7978 12.7959 41.5781 13.0156C41.3584 13.2353 41.0606 13.3589 40.75 13.3594C40.5635 13.3594 40.3847 13.4335 40.2528 13.5653C40.121 13.6972 40.0469 13.876 40.0469 14.0625C40.0469 14.249 40.121 14.4278 40.2528 14.5597C40.3847 14.6915 40.5635 14.7656 40.75 14.7656C41.4336 14.7651 42.0891 14.4933 42.5725 14.01C43.0558 13.5266 43.3276 12.8711 43.3281 12.1875V9.14062H53.1719V12.1875C53.1714 12.4981 53.0478 12.7959 52.8281 13.0156C52.6084 13.2353 52.3106 13.3589 52 13.3594C51.8135 13.3594 51.6347 13.4335 51.5028 13.5653C51.371 13.6972 51.2969 13.876 51.2969 14.0625C51.2969 14.249 51.371 14.4278 51.5028 14.5597C51.6347 14.6915 51.8135 14.7656 52 14.7656C52.6836 14.7651 53.3391 14.4933 53.8225 14.01C54.3058 13.5266 54.5776 12.8711 54.5781 12.1875V9.14062H56.6875C56.9981 9.14112 57.2959 9.26475 57.5156 9.48441C57.7353 9.70407 57.8589 10.0019 57.8594 10.3125V17.8125Z" fill="#0B7287"/>
<path d="M29.5 54.1406C32.6058 54.1406 35.6418 53.2197 38.2242 51.4942C40.8066 49.7687 42.8193 47.3162 44.0078 44.4468C45.1963 41.5775 45.5073 38.4201 44.9014 35.374C44.2955 32.3279 42.7999 29.5298 40.6038 27.3337C38.4077 25.1376 35.6096 23.642 32.5635 23.0361C29.5174 22.4302 26.36 22.7412 23.4907 23.9297C20.6213 25.1182 18.1688 27.131 16.4433 29.7133C14.7178 32.2957 13.7969 35.3317 13.7969 38.4375C13.8016 42.6008 15.4575 46.5922 18.4014 49.5361C21.3453 52.48 25.3367 54.1359 29.5 54.1406ZM29.5 24.1406C32.3277 24.1406 35.0918 24.9791 37.4429 26.5501C39.794 28.1211 41.6265 30.3539 42.7086 32.9663C43.7907 35.5787 44.0738 38.4534 43.5222 41.2267C42.9705 44 41.6089 46.5475 39.6094 48.5469C37.61 50.5464 35.0625 51.908 32.2892 52.4597C29.5159 53.0113 26.6412 52.7282 24.0288 51.6461C21.4164 50.564 19.1835 48.7315 17.6126 46.3804C16.0416 44.0293 15.2031 41.2652 15.2031 38.4375C15.2073 34.647 16.715 31.013 19.3952 28.3327C22.0755 25.6525 25.7095 24.1449 29.5 24.1406Z" fill="#0B7287"/>
<path d="M29.5 51.3281C32.0495 51.3281 34.5418 50.5721 36.6616 49.1557C38.7815 47.7392 40.4337 45.726 41.4094 43.3705C42.385 41.0151 42.6403 38.4232 42.1429 35.9227C41.6455 33.4221 40.4178 31.1252 38.615 29.3225C36.8123 27.5197 34.5154 26.292 32.0148 25.7946C29.5143 25.2972 26.9224 25.5525 24.567 26.5281C22.2115 27.5038 20.1983 29.156 18.7818 31.2759C17.3654 33.3957 16.6094 35.888 16.6094 38.4375C16.6131 41.8552 17.9724 45.1318 20.3891 47.5484C22.8057 49.9651 26.0823 51.3244 29.5 51.3281ZM29.5 26.9531C31.7714 26.9531 33.9918 27.6267 35.8804 28.8886C37.769 30.1505 39.241 31.9441 40.1102 34.0426C40.9794 36.1411 41.2068 38.4502 40.7637 40.678C40.3206 42.9057 39.2268 44.9521 37.6207 46.5582C36.0146 48.1643 33.9682 49.2581 31.7405 49.7012C29.5127 50.1443 27.2036 49.9169 25.1051 49.0477C23.0066 48.1785 21.213 46.7065 19.9511 44.8179C18.6892 42.9293 18.0156 40.7089 18.0156 38.4375C18.0189 35.3926 19.2298 32.4734 21.3829 30.3204C23.5359 28.1674 26.4551 26.9564 29.5 26.9531Z" fill="#0B7287"/>
<path d="M24.8882 43.906C25.084 44.1019 25.3165 44.2574 25.5724 44.3635C25.8284 44.4696 26.1027 44.5242 26.3797 44.5242C26.6568 44.5242 26.9311 44.4696 27.187 44.3635C27.443 44.2574 27.6755 44.1019 27.8713 43.906L35.826 35.9522C36.2216 35.5566 36.4438 35.0201 36.4438 34.4606C36.4438 33.9012 36.2216 33.3647 35.826 32.9691C35.4304 32.5735 34.8939 32.3513 34.3344 32.3513C33.775 32.3513 33.2385 32.5735 32.8429 32.9691L26.3797 39.4322L25.2191 38.2716C25.0232 38.0757 24.7907 37.9203 24.5348 37.8143C24.2789 37.7083 24.0046 37.6538 23.7276 37.6538C23.4505 37.6538 23.1763 37.7083 22.9203 37.8143C22.6644 37.9203 22.4319 38.0757 22.236 38.2716C22.0401 38.4675 21.8847 38.7 21.7787 38.9559C21.6727 39.2118 21.6182 39.4861 21.6182 39.7631C21.6182 40.0402 21.6727 40.3144 21.7787 40.5704C21.8847 40.8263 22.0401 41.0588 22.236 41.2547L24.8882 43.906ZM23.2307 39.2663C23.2959 39.201 23.3734 39.1491 23.4586 39.1138C23.5439 39.0784 23.6353 39.0602 23.7276 39.0602C23.8199 39.0602 23.9112 39.0784 23.9965 39.1138C24.0818 39.1491 24.1592 39.201 24.2244 39.2663L25.8829 40.9238C26.0147 41.0554 26.1934 41.1294 26.3797 41.1294C26.5661 41.1294 26.7448 41.0554 26.8766 40.9238L33.8376 33.9638C33.9024 33.8966 33.9801 33.8431 34.0659 33.8063C34.1517 33.7695 34.2439 33.7501 34.3373 33.7494C34.4307 33.7486 34.5232 33.7664 34.6096 33.8018C34.696 33.8372 34.7745 33.8895 34.8405 33.9555C34.9065 34.0216 34.9587 34.1001 34.994 34.1865C35.0293 34.273 35.047 34.3656 35.0462 34.4589C35.0453 34.5523 35.0259 34.6445 34.989 34.7303C34.9521 34.8161 34.8985 34.8936 34.8313 34.9585L26.8747 42.9122C26.7428 43.0436 26.5641 43.1175 26.3779 43.1175C26.1916 43.1175 26.013 43.0436 25.881 42.9122L23.2288 40.26C23.1636 40.1947 23.112 40.1171 23.0768 40.0318C23.0416 39.9465 23.0235 39.8551 23.0237 39.7628C23.0239 39.6705 23.0423 39.5791 23.0778 39.4939C23.1133 39.4087 23.1652 39.3314 23.2307 39.2663Z" fill="#0B7287"/>
</g>
<defs>
<clipPath id="clip0_1218_1292">
<rect width="60" height="60" fill="white" transform="translate(-0.5)"/>
</clipPath>
</defs>
</svg>
