<svg width="60" height="60" viewBox="0 0 60 60" fill="none" xmlns="http://www.w3.org/2000/svg">
<path d="M14.7339 27.1875C14.7334 27.7724 14.8483 28.3517 15.0719 28.8922C15.2955 29.4327 15.6235 29.9238 16.0371 30.3374C16.4507 30.751 16.9418 31.079 17.4823 31.3027C18.0228 31.5263 18.6021 31.6411 19.187 31.6406H43.562C44.7426 31.6391 45.8744 31.1695 46.7092 30.3347C47.544 29.4999 48.0137 28.3681 48.0152 27.1875C48.0147 26.7525 47.8417 26.3355 47.5341 26.028C47.2265 25.7204 46.8095 25.5474 46.3745 25.5469H45.8448C46.0422 25.18 46.1437 24.7692 46.1401 24.3527C46.1365 23.9361 46.0279 23.5272 45.8242 23.1638C46.4337 23.0743 46.9906 22.7686 47.3933 22.3025C47.796 21.8364 48.0176 21.241 48.0176 20.625C48.0176 20.009 47.796 19.4136 47.3933 18.9475C46.9906 18.4814 46.4337 18.1757 45.8242 18.0863C46.0279 17.7228 46.1365 17.3139 46.1401 16.8973C46.1437 16.4808 46.0422 16.07 45.8448 15.7031H46.3745C46.8095 15.7026 47.2265 15.5296 47.5341 15.2221C47.8417 14.9145 48.0147 14.4975 48.0152 14.0625C48.0122 11.3905 46.9494 8.82885 45.0601 6.93948C43.1707 5.05011 40.609 3.98735 37.937 3.98438H24.812C22.1401 3.98735 19.5784 5.05011 17.689 6.93948C15.7996 8.82885 14.7369 11.3905 14.7339 14.0625C14.7344 14.4975 14.9074 14.9145 15.215 15.2221C15.5226 15.5296 15.9396 15.7026 16.3745 15.7031H16.9042C16.7069 16.07 16.6053 16.4808 16.6089 16.8973C16.6125 17.3139 16.7212 17.7228 16.9248 18.0863C16.3154 18.1757 15.7584 18.4814 15.3557 18.9475C14.953 19.4136 14.7314 20.009 14.7314 20.625C14.7314 21.241 14.953 21.8364 15.3557 22.3025C15.7584 22.7686 16.3154 23.0743 16.9248 23.1638C16.7212 23.5272 16.6125 23.9361 16.6089 24.3527C16.6053 24.7692 16.7069 25.18 16.9042 25.5469H16.3745C15.9396 25.5474 15.5226 25.7204 15.215 26.028C14.9074 26.3355 14.7344 26.7525 14.7339 27.1875ZM16.3745 14.2969C16.3124 14.2969 16.2528 14.2722 16.2088 14.2282C16.1649 14.1843 16.1402 14.1247 16.1402 14.0625C16.1426 11.7633 17.0571 9.55905 18.6828 7.9333C20.3086 6.30755 22.5129 5.39311 24.812 5.39063H37.937C40.2362 5.39311 42.4405 6.30755 44.0662 7.9333C45.692 9.55905 46.6064 11.7633 46.6089 14.0625C46.6089 14.1247 46.5842 14.1843 46.5403 14.2282C46.4963 14.2722 46.4367 14.2969 46.3745 14.2969H16.3745ZM44.7339 16.875C44.7334 17.1856 44.6098 17.4834 44.3901 17.7031C44.1705 17.9228 43.8727 18.0464 43.562 18.0469H19.187C18.8762 18.0469 18.5782 17.9234 18.3584 17.7036C18.1386 17.4839 18.0152 17.1858 18.0152 16.875C18.0152 16.5642 18.1386 16.2661 18.3584 16.0464C18.5782 15.8266 18.8762 15.7031 19.187 15.7031H43.562C43.8727 15.7036 44.1705 15.8272 44.3901 16.0469C44.6098 16.2666 44.7334 16.5644 44.7339 16.875ZM16.1402 20.625C16.1407 20.3144 16.2643 20.0166 16.4839 19.7969C16.7036 19.5772 17.0014 19.4536 17.312 19.4531H45.437C45.7478 19.4531 46.0459 19.5766 46.2657 19.7964C46.4854 20.0161 46.6089 20.3142 46.6089 20.625C46.6089 20.9358 46.4854 21.2339 46.2657 21.4536C46.0459 21.6734 45.7478 21.7969 45.437 21.7969H17.312C17.0014 21.7964 16.7036 21.6728 16.4839 21.4531C16.2643 21.2334 16.1407 20.9356 16.1402 20.625ZM34.9473 23.2031H40.9267L37.937 26.1928L34.9473 23.2031ZM35.3017 25.5469H19.187C18.8762 25.5469 18.5782 25.4234 18.3584 25.2036C18.1386 24.9839 18.0152 24.6858 18.0152 24.375C18.0152 24.0642 18.1386 23.7661 18.3584 23.5464C18.5782 23.3266 18.8762 23.2031 19.187 23.2031H32.958L35.3017 25.5469ZM42.9161 23.2031H43.562C43.8728 23.2031 44.1709 23.3266 44.3907 23.5464C44.6104 23.7661 44.7339 24.0642 44.7339 24.375C44.7339 24.6858 44.6104 24.9839 44.3907 25.2036C44.1709 25.4234 43.8728 25.5469 43.562 25.5469H40.5723L42.9161 23.2031ZM36.708 26.9531L37.4402 27.6844C37.5054 27.7497 37.5828 27.8015 37.6681 27.8369C37.7533 27.8722 37.8447 27.8904 37.937 27.8904C38.0293 27.8904 38.1207 27.8722 38.206 27.8369C38.2912 27.8015 38.3687 27.7497 38.4339 27.6844L39.1661 26.9531H46.3745C46.4365 26.9539 46.4957 26.9788 46.5395 27.0226C46.5833 27.0664 46.6082 27.1256 46.6089 27.1875C46.6079 27.9953 46.2866 28.7697 45.7154 29.3409C45.1442 29.9121 44.3698 30.2334 43.562 30.2344H19.187C18.7867 30.2351 18.3902 30.1568 18.0202 30.004C17.6502 29.8511 17.314 29.6267 17.0309 29.3436C16.7478 29.0605 16.5234 28.7244 16.3706 28.3544C16.2177 27.9844 16.1394 27.5878 16.1402 27.1875C16.1409 27.1256 16.1658 27.0664 16.2096 27.0226C16.2534 26.9788 16.3126 26.9539 16.3745 26.9531H36.708Z" fill="#0B7287"/>
<path d="M56.2609 43.1016C56.1587 42.8311 56.0189 42.5764 55.8456 42.345C56.162 41.7186 56.2822 41.0114 56.1906 40.3157C56.099 39.62 55.7998 38.968 55.3321 38.4449C54.8643 37.9218 54.2497 37.5518 53.5685 37.3832C52.8873 37.2147 52.1712 37.2554 51.5134 37.5L51.4909 37.5084C51.1399 36.6762 50.4839 36.0097 49.6574 35.6454C48.8309 35.2812 47.8964 35.2467 47.0453 35.5491L31.39 41.25L29.3275 40.8862L28.2663 39.8981C26.9294 38.6478 25.2559 37.8162 23.452 37.5058C21.6481 37.1954 19.7928 37.4199 18.115 38.1516H15.2088V36.9797C15.2085 36.7933 15.1343 36.6146 15.0025 36.4828C14.8707 36.351 14.692 36.2768 14.5056 36.2766H3.25C3.06352 36.2766 2.88468 36.3506 2.75282 36.4825C2.62095 36.6144 2.54688 36.7932 2.54688 36.9797V54.7922C2.54675 54.8846 2.56485 54.976 2.60015 55.0614C2.63544 55.1468 2.68723 55.2243 2.75254 55.2896C2.81786 55.355 2.89542 55.4067 2.98078 55.442C3.06614 55.4773 3.15763 55.4954 3.25 55.4953H14.5C14.6864 55.4951 14.8651 55.4209 14.9969 55.2891C15.1287 55.1573 15.2029 54.9786 15.2031 54.7922V53.6203H19.5316L30.0147 55.8037C32.0699 56.2366 34.2092 56.0122 36.13 55.1625L54.5734 47.0475C55.3034 46.7273 55.8841 46.1412 56.1976 45.4083C56.511 44.6753 56.5337 43.8506 56.2609 43.1016ZM13.7997 54.0863H3.95594V37.68H13.7997V54.0863ZM51.9944 38.8219C52.5202 38.6315 53.1 38.6574 53.6068 38.8937C54.1136 39.1301 54.506 39.5577 54.6981 40.0828C54.8455 40.5019 54.8554 40.9571 54.7262 41.3822C54.3448 41.1867 53.9271 41.072 53.4993 41.0452C53.0716 41.0184 52.6428 41.0802 52.24 41.2266L40.4828 45.5063C40.4152 44.702 40.0721 43.9457 39.5116 43.365L51.9944 38.8219ZM47.5262 36.87C48.0265 36.6903 48.5763 36.7064 49.0652 36.915C49.5541 37.1237 49.9461 37.5095 50.1625 37.995L37.9441 42.4388C37.832 42.4016 37.7181 42.3703 37.6028 42.345L34.1594 41.7375L47.5262 36.87ZM54.01 45.7594L35.5703 53.8725C33.9158 54.6008 32.0751 54.7942 30.3053 54.4256L19.8213 52.2412C19.7747 52.2311 19.7273 52.2261 19.6797 52.2262L15.2069 52.2188V39.5625H18.2669C18.3657 39.5627 18.4635 39.5419 18.5537 39.5016L18.5884 39.4856C20.023 38.8433 21.6151 38.6379 23.1658 38.8952C24.7164 39.1525 26.1569 39.861 27.3072 40.9322L28.5203 42.0572C28.6195 42.15 28.7437 42.2119 28.8775 42.2353L37.3572 43.7353C37.9011 43.8401 38.3821 44.1546 38.6962 44.6108C39.0103 45.0671 39.1325 45.6286 39.0362 46.1741C38.94 46.7197 38.6331 47.2055 38.1818 47.5267C37.7305 47.848 37.171 47.9789 36.6241 47.8912L26.8984 46.1756C26.7165 46.1473 26.5308 46.1914 26.3811 46.2985C26.2314 46.4056 26.1296 46.5672 26.0977 46.7485C26.0658 46.9298 26.1063 47.1163 26.2104 47.2681C26.3145 47.4199 26.4741 47.5248 26.6547 47.5603L36.3803 49.2759C37.1809 49.4169 38.0056 49.276 38.714 48.8772C39.4224 48.4784 39.9706 47.8464 40.2653 47.0887L52.7191 42.5559C53.141 42.4039 53.6055 42.4215 54.0147 42.6051C54.4239 42.7887 54.7459 43.1238 54.913 43.54C55.08 43.9563 55.079 44.4211 54.9103 44.8366C54.7415 45.2521 54.4181 45.586 54.0081 45.7678L54.01 45.7594Z" fill="#0B7287"/>
</svg>
