<svg width="60" height="60" viewBox="0 0 60 60" fill="none" xmlns="http://www.w3.org/2000/svg">
<g clip-path="url(#clip0_1218_761)">
<path d="M23.9023 26.817L28.4835 29.6791C28.4731 29.7865 28.4511 29.8903 28.4511 30.0003C28.4511 31.8485 29.9549 33.352 31.8031 33.352C33.6512 33.352 35.1551 31.8484 35.1551 30.0003C35.1551 28.3656 33.9775 27.0053 32.4272 26.7115V17.7247C32.4272 17.3813 32.1491 17.103 31.8055 17.103C31.462 17.103 31.1839 17.3813 31.1839 17.7247V26.7108C30.1673 26.9019 29.3228 27.5567 28.8528 28.4431L24.5618 25.7624C24.2698 25.5799 23.8867 25.6694 23.7052 25.9603C23.5228 26.2515 23.6114 26.6352 23.9023 26.817ZM31.8031 27.8917C31.8038 27.8917 31.8043 27.8918 31.805 27.8918C31.8052 27.8918 31.8053 27.8919 31.8055 27.8919H31.8058C32.9672 27.8933 33.9118 28.8384 33.9118 30.0002C33.9118 31.1626 32.9658 32.1085 31.8032 32.1085C30.6405 32.1085 29.6946 31.1626 29.6946 30.0002C29.6944 28.8376 30.6403 27.8917 31.8031 27.8917Z" fill="#0B7287"/>
<path d="M56.8421 5.76487C54.6377 7.45448 52.8711 9.62432 51.6363 12.0635C46.5647 6.4537 39.3946 3.24768 31.806 3.24768C26.1647 3.24768 20.8235 4.96202 16.2783 8.21409V7.60295C16.2783 6.47491 15.4022 5.50459 14.2286 5.44541C12.9862 5.38061 11.9621 6.45264 11.9621 7.6946V15.8558C11.9621 16.3601 11.5419 16.8062 10.9767 16.7653C10.5086 16.7334 10.1279 16.2923 10.1279 15.7819V7.60307C10.1279 6.43225 9.21785 5.51444 8.1068 5.44682C6.82805 5.36866 5.81238 6.46307 5.81238 7.69928V15.8505C5.81238 16.3563 5.4007 16.7676 4.88402 16.7676C4.38129 16.7676 3.97266 16.3587 3.97266 15.856V7.60307C3.97266 6.42768 3.05613 5.51409 1.95082 5.44682C0.67582 5.36866 -0.342773 6.46061 -0.342773 7.69928V19.2623C-0.342773 22.135 1.10801 24.6536 3.30738 26.1476C4.23445 26.7779 4.78816 27.8725 4.78816 29.0765V53.5731C4.78816 55.4271 6.38578 56.9164 8.27437 56.7379C9.88512 56.5856 11.1468 55.1457 11.1468 53.4603V46.9887C16.2067 53.1312 23.7964 56.7524 31.806 56.7524C40.151 56.7524 47.9283 52.8899 52.9843 46.3375V53.5707C52.9843 55.325 54.4087 56.7524 56.1596 56.7524C57.9143 56.7524 59.3416 55.3251 59.3416 53.5707V6.99077C59.3418 5.71237 57.8705 4.98217 56.8421 5.76487ZM12.1269 26.5035C12.2648 26.3579 12.4383 26.2004 12.6082 26.0803C14.9968 24.3928 16.2784 21.6372 16.2784 19.0378V17.4168C20.0992 12.708 25.7459 10.0114 31.8061 10.0114C39.3889 10.0114 46.2061 14.2048 49.6336 20.9656V34.7464C49.6487 34.8086 49.5736 35.9555 50.5704 36.8896C47.6907 44.7431 40.2059 49.9887 31.806 49.9887C20.7851 49.9887 11.8194 41.0231 11.8194 30.0028C11.8195 28.8264 11.9229 27.6499 12.1269 26.5035ZM31.806 4.49116C39.2125 4.49116 46.208 7.68686 51.0603 13.2738C50.3362 15.0064 49.8898 16.8182 49.7201 18.6276C45.846 12.5003 39.171 8.7678 31.806 8.7678C25.8587 8.7678 20.2918 11.2182 16.2783 15.5342V9.75909C20.7632 6.31143 26.1259 4.49116 31.806 4.49116ZM8.15777 55.4999C6.97477 55.6109 6.03152 54.6745 6.03152 53.5731V29.0764C6.03152 27.4601 5.27437 25.9809 4.00547 25.1191C2.13246 23.8462 0.900586 21.7014 0.900586 19.2623V7.69928C0.900586 7.17159 1.31449 6.68631 1.8259 6.68631C1.8423 6.68631 1.85871 6.6869 1.87512 6.68784C2.34445 6.7169 2.72941 7.1042 2.72941 7.60307V15.856C2.72941 17.0442 3.69598 18.0111 4.89504 18.0111C6.08625 18.0111 7.05586 17.0418 7.05586 15.8506V7.69928C7.05586 7.15788 7.48863 6.66065 8.03098 6.68784C8.50207 6.71702 8.88457 7.10526 8.88457 7.60307V15.7822C8.88457 16.9524 9.76676 17.9293 10.893 18.0058C12.1535 18.0885 13.2056 17.1058 13.2056 15.8559V7.69471C13.2056 7.15659 13.6445 6.65936 14.1655 6.68713C14.6742 6.7128 15.0349 7.13186 15.0349 7.60295C15.0341 18.2896 15.0343 3.56174 15.0343 19.039C15.0343 21.4352 13.8305 23.6941 11.8887 25.0646C10.6147 25.9634 9.9027 27.4792 9.9027 28.9894C9.90281 32.8378 9.90246 18.0617 9.90328 53.4601C9.9034 54.5115 9.13652 55.4074 8.15777 55.4999ZM31.806 55.509C23.6463 55.509 15.9389 51.5723 11.1468 44.9672V34.8748C13.3553 44.2393 21.7765 51.232 31.806 51.232C40.6545 51.232 48.5327 45.744 51.6465 37.5168C51.9142 37.6013 52.2079 37.6641 52.5514 37.6641H52.9843V44.2242C48.2261 51.2946 40.3242 55.509 31.806 55.509ZM58.0984 53.5707C58.0984 54.6395 57.229 55.509 56.1598 55.509C55.0942 55.509 54.2278 54.6395 54.2278 53.5707C54.2279 51.8737 54.2273 59.7033 54.229 37.04C54.229 36.6966 53.9509 36.4183 53.6073 36.4183H52.5503C51.6227 36.4183 50.8775 35.6548 50.8775 34.7453V20.819C50.908 20.6913 50.2853 12.3568 57.5974 6.75299C57.8032 6.59538 58.0983 6.73706 58.0983 6.99065V53.5707H58.0984Z" fill="#0B7287"/>
</g>
<defs>
<clipPath id="clip0_1218_761">
<rect width="60" height="60" fill="white" transform="translate(-0.5)"/>
</clipPath>
</defs>
</svg>
