<svg width="60" height="60" viewBox="0 0 60 60" fill="none" xmlns="http://www.w3.org/2000/svg">
<g clip-path="url(#clip0_1218_1777)">
<path d="M44.2874 12.185L45.1077 3.33492C45.1872 2.48168 44.902 1.62926 44.3252 0.996211C43.7482 0.363164 42.9259 0 42.0579 0C40.5516 0.00492187 39.2567 1.13332 39.0456 2.62465L37.8664 10.957L34.1238 13.1535C33.663 13.4232 33.138 13.5657 32.6056 13.5657H30.2654C30.9204 12.4237 31.5569 11.4326 31.7555 11.1271C32.8496 10.1823 33.544 8.78695 33.544 7.23164C33.5216 5.12836 32.2743 3.17801 30.1459 2.39039C27.5117 1.33523 24.5815 2.00203 21.6036 4.35563C20.2804 5.40141 19.2048 6.57551 18.4921 7.43883L16.1924 1.88883C15.7197 0.744961 14.6133 0.00585938 13.3739 0.00585938C12.9052 0.00585938 12.4338 0.117656 12.0092 0.33C10.6436 1.01508 9.99403 2.61961 10.4983 4.06195L12.8519 10.791C13.1034 11.5096 13.4538 12.1924 13.8876 12.8171C12.6258 13.9825 11.4407 15.2416 11.0556 16.9771C10.5562 19.222 10.8412 23.4907 18.3618 26.8554C19.0646 27.17 19.7678 27.3265 20.4612 27.3264C21.0892 27.3264 21.7089 27.1973 22.3123 26.9418L22.294 30.5026C22.2723 32.4962 22.9568 34.4429 24.2212 35.9843L26.7177 39.0279L24.9034 39.4794C24.4323 39.5967 24.1456 40.0736 24.2628 40.5446C24.38 41.0156 24.8572 41.3025 25.3279 41.1853L28.491 40.3982C28.7835 40.3254 29.0184 40.1078 29.1131 39.8217C29.2079 39.5357 29.1495 39.2209 28.9584 38.9878L25.5802 34.8695C24.5773 33.647 24.0345 32.1029 24.0517 30.5216L24.0606 29.698H29.5345L34.5885 40.7551C35.1708 41.8753 34.3073 43.6048 32.8844 43.674L22.5756 44.5553L22.0027 41.1756C21.9378 40.767 21.53 40.3982 21.0719 40.446L18.5487 40.6309C17.1528 40.7334 16.0593 41.91 16.0593 43.3096V48.5361C16.0593 49.9124 17.1789 51.032 18.555 51.032C19.5003 51.032 20.38 50.4834 20.796 49.6348L22.4146 46.3331L29.9328 45.6905L26.8131 49.2505L25.2725 50.287C24.3371 50.9163 23.8925 52.0739 24.1661 53.1675C24.1677 53.1738 24.1694 53.18 24.171 53.1864L25.534 58.1633C25.83 59.2447 26.8199 60 27.9412 60H28.2487C29.4627 60 30.4965 59.1322 30.7068 57.9366L31.4726 53.5821L40.3292 45.7717C42.345 43.9937 42.7468 40.9627 41.2636 38.7213L34.5377 28.5544V17.0183C34.5377 16.318 34.3275 15.6661 33.968 15.1213C34.3311 15.0127 34.6824 14.8631 35.0124 14.6701L39.1218 12.2583C39.353 12.1226 39.5097 11.8888 39.5472 11.6234L40.252 6.64477L43.0034 6.99047L42.537 12.023C42.4641 13.0413 41.7895 14.4171 40.7711 15.0933L36.7387 17.9655C36.3434 18.2471 36.2512 18.7959 36.5328 19.1913C36.7042 19.432 36.9747 19.5604 37.2494 19.5604C37.4257 19.5604 37.6039 19.5074 37.7586 19.3971L41.7915 16.5244C43.2168 15.5079 44.1265 13.9261 44.2874 12.185ZM28.3948 10.6219C27.4892 10.6219 26.6379 10.2693 25.9975 9.62883C25.7355 9.3668 25.5225 9.0668 25.3604 8.74137C28.5552 8.04727 30.2031 6.21633 30.9644 5.02008C31.4956 5.63508 31.7861 6.41074 31.7861 7.23164C31.7862 9.10102 30.2649 10.6219 28.3948 10.6219ZM22.7222 5.71219C25.191 3.77109 27.4716 3.20766 29.5143 4.03066C28.8993 5.02137 27.3714 6.76781 24.0965 7.17527C23.7374 7.22238 23.2103 7.64285 23.3416 8.21719C23.5374 9.22535 24.0261 10.1434 24.7547 10.8718C25.8091 11.913 27.3514 12.5223 28.937 12.3509C28.7115 12.7371 28.4782 13.1483 28.2528 13.5656H26.6495C25.457 13.5656 24.2989 13.1413 23.3887 12.3709L21.2655 10.5735L19.4597 9.04477C20.071 8.25855 21.2398 6.87785 22.7222 5.71219ZM12.7963 1.9016C12.9794 1.8102 13.1738 1.76367 13.3739 1.76367C13.8993 1.76367 14.3681 2.07645 14.5683 2.56102L15.2595 4.22918L12.787 5.28129L12.1577 3.48211C11.944 2.87086 12.2192 2.19117 12.7963 1.9016ZM19.08 25.251C14.3505 23.1349 12.1101 20.3321 12.7717 17.3584C13.0438 16.1321 13.9661 15.1414 15.0359 14.1497L22.3125 21.0288V24.9437C21.2692 25.6547 20.2082 25.7561 19.08 25.251ZM24.0702 20.6502C24.0316 20.4708 24.1006 20.3606 23.7951 20.0114L16.2242 12.8542C15.454 12.1259 14.8616 11.2117 14.5111 10.2104L13.3687 6.94395L15.9323 5.85316L17.4521 9.52043C17.4965 9.60762 17.5456 9.72715 17.6962 9.85488L22.2531 13.7127C23.4804 14.7514 25.0417 15.3236 26.6497 15.3236H31.0865C32.0205 15.3236 32.7802 16.0839 32.7802 17.0184V27.9398L24.0704 27.9401L24.0702 20.6502ZM19.2179 48.861C19.0948 49.112 18.8347 49.2741 18.5553 49.2741C18.1484 49.2741 17.8173 48.943 17.8173 48.536V43.3095C17.8173 42.8258 18.1953 42.4192 18.6775 42.3838L20.4033 42.2573L20.9306 45.3673L19.2179 48.861ZM28.2489 58.2422H27.9414C27.6099 58.2422 27.3173 58.0189 27.2297 57.699L25.8698 52.733C25.7793 52.3574 25.9331 51.9614 26.254 51.7454L27.2938 51.0459L29.7149 53.4295L28.9758 57.6321C28.9136 57.9857 28.6079 58.2422 28.2489 58.2422ZM39.1667 44.4533L30.6933 51.9258L28.6067 49.8711L32.4595 45.4745C35.3903 45.5263 37.3509 42.6878 36.1873 40.0241L31.4673 29.6979H33.1866L39.7977 39.6912C40.7996 41.2051 40.5283 43.2524 39.1667 44.4533ZM40.4983 4.90406L40.786 2.87098C40.8756 2.23852 41.4248 1.75992 42.069 1.75781C42.4377 1.75781 42.7776 1.90781 43.0258 2.18016C43.2739 2.45238 43.3916 2.80453 43.3574 3.17238L43.1658 5.23922L40.4983 4.90406Z" fill="#0B7287"/>
<path d="M47.7938 21.0081H47.0645V20.2787C47.0645 19.7932 46.6711 19.3998 46.1855 19.3998C45.7 19.3998 45.3066 19.7932 45.3066 20.2787V21.0081H44.5771C44.0916 21.0081 43.6982 21.4015 43.6982 21.887C43.6982 22.3725 44.0916 22.7659 44.5771 22.7659H45.3066V23.4954C45.3066 23.9809 45.7 24.3743 46.1855 24.3743C46.6711 24.3743 47.0645 23.9809 47.0645 23.4954V22.7659H47.7938C48.2793 22.7659 48.6727 22.3725 48.6727 21.887C48.6727 21.4015 48.2793 21.0081 47.7938 21.0081Z" fill="#0B7287"/>
<path d="M40.6904 27.863C41.1758 27.863 41.5693 27.4695 41.5693 26.9841C41.5693 26.4987 41.1758 26.1052 40.6904 26.1052C40.205 26.1052 39.8115 26.4987 39.8115 26.9841C39.8115 27.4695 40.205 27.863 40.6904 27.863Z" fill="#0B7287"/>
</g>
<defs>
<clipPath id="clip0_1218_1777">
<rect width="60" height="60" fill="white" transform="translate(-0.5)"/>
</clipPath>
</defs>
</svg>
