<svg width="60" height="60" viewBox="0 0 60 60" fill="none" xmlns="http://www.w3.org/2000/svg">
<g clip-path="url(#clip0_1218_1461)">
<path d="M50.5938 30C51.4637 29.999 52.2977 29.653 52.9129 29.0379C53.528 28.4227 53.874 27.5887 53.875 26.7188V24.8438C53.875 23.9735 53.5293 23.1389 52.9139 22.5236C52.2986 21.9082 51.464 21.5625 50.5938 21.5625C49.7235 21.5625 48.8889 21.9082 48.2736 22.5236C47.6582 23.1389 47.3125 23.9735 47.3125 24.8438V26.7188C47.3135 27.5887 47.6595 28.4227 48.2746 29.0379C48.8898 29.653 49.7238 29.999 50.5938 30ZM49.1875 24.8438C49.1875 24.4708 49.3357 24.1131 49.5994 23.8494C49.8631 23.5857 50.2208 23.4375 50.5938 23.4375C50.9667 23.4375 51.3244 23.5857 51.5881 23.8494C51.8518 24.1131 52 24.4708 52 24.8438V26.7188C52 27.0917 51.8518 27.4494 51.5881 27.7131C51.3244 27.9768 50.9667 28.125 50.5938 28.125C50.2208 28.125 49.8631 27.9768 49.5994 27.7131C49.3357 27.4494 49.1875 27.0917 49.1875 26.7188V24.8438Z" fill="#0B7287"/>
<path d="M58.5625 32.8125C58.3139 32.8125 58.0754 32.9113 57.8996 33.0871C57.7238 33.2629 57.625 33.5014 57.625 33.75V41.7188C57.6248 42.416 57.401 43.0948 56.9865 43.6555C57.1262 43.0089 57.1354 42.341 57.0137 41.6909L55.5779 33.8732C55.3112 32.4207 54.0233 30.9641 52.5317 31.114C52.5317 31.114 49.5629 31.4109 49.5579 31.4118C49.31 31.4415 49.0831 31.5655 48.9243 31.7581L47.3306 33.75H44.2656C43.8667 33.749 43.4731 33.8407 43.1158 34.018C42.7585 34.1953 42.4473 34.4534 42.2069 34.7717C41.9666 35.0899 41.8035 35.4598 41.7307 35.852C41.6579 36.2442 41.6773 36.6479 41.7874 37.0313H17.2126C17.3227 36.6479 17.3421 36.2442 17.2693 35.852C17.1965 35.4598 17.0334 35.0899 16.7931 34.7717C16.5527 34.4534 16.2415 34.1953 15.8842 34.018C15.5269 33.8407 15.1333 33.749 14.7344 33.75H11.6694L10.0757 31.7581C10.0038 31.6689 9.9162 31.5936 9.81728 31.5359C9.7003 31.469 9.57099 31.4264 9.43713 31.4109L6.46806 31.114C4.97804 30.9661 3.68898 32.4205 3.42212 33.8732L1.98634 41.6909C1.86455 42.341 1.87378 43.0089 2.01349 43.6555C1.59899 43.0948 1.37521 42.416 1.375 41.7188V33.75C1.375 33.5014 1.27623 33.2629 1.10041 33.0871C0.924597 32.9113 0.68614 32.8125 0.4375 32.8125C0.18886 32.8125 -0.0495972 32.9113 -0.225413 33.0871C-0.401228 33.2629 -0.5 33.5014 -0.5 33.75L-0.5 41.7188C-0.498205 43.0044 -0.0166939 44.2431 0.850289 45.1923C1.71727 46.1416 2.90732 46.7332 4.1875 46.8513V53.4375H2.78125C2.53261 53.4375 2.29415 53.5363 2.11834 53.7121C1.94252 53.8879 1.84375 54.1264 1.84375 54.375C1.84375 54.6237 1.94252 54.8621 2.11834 55.0379C2.29415 55.2138 2.53261 55.3125 2.78125 55.3125H7.46875C7.71739 55.3125 7.95585 55.2138 8.13166 55.0379C8.30748 54.8621 8.40625 54.6237 8.40625 54.375C8.40625 54.1264 8.30748 53.8879 8.13166 53.7121C7.95585 53.5363 7.71739 53.4375 7.46875 53.4375H6.0625V46.875H8.21422L10.6525 53.7051C10.783 54.1647 11.0589 54.5696 11.4387 54.8594C11.8186 55.1492 12.2821 55.3081 12.7598 55.3125C13.0665 55.3109 13.3695 55.2444 13.6487 55.1174C13.9279 54.9903 14.1771 54.8057 14.3798 54.5755C14.6001 54.3253 14.765 54.0313 14.8636 53.7129C14.9622 53.3944 14.9924 53.0587 14.952 52.7278L13.8095 43.0582C13.7493 42.5076 13.5482 41.9818 13.2255 41.5316C12.9028 41.0815 12.4694 40.7222 11.9672 40.4885L10.1233 39.6634L10.1397 38.9063H13.5625V40.7813C13.5631 41.2784 13.7608 41.755 14.1123 42.1065C14.4638 42.458 14.9404 42.6557 15.4375 42.6563H15.9062V54.8438C15.9062 55.0924 16.005 55.3309 16.1808 55.5067C16.3567 55.6825 16.5951 55.7813 16.8438 55.7813C17.0924 55.7813 17.3308 55.6825 17.5067 55.5067C17.6825 55.3309 17.7812 55.0924 17.7812 54.8438V51.8699H41.2188V54.8438C41.2188 55.0924 41.3175 55.3309 41.4933 55.5067C41.6692 55.6825 41.9076 55.7813 42.1562 55.7813C42.4049 55.7813 42.6433 55.6825 42.8192 55.5067C42.995 55.3309 43.0938 55.0924 43.0938 54.8438V42.6563H43.5625C44.0596 42.6557 44.5362 42.458 44.8877 42.1065C45.2392 41.755 45.4369 41.2784 45.4375 40.7813V38.9063H48.8603L48.8767 39.6634L47.0328 40.4885C46.5306 40.7221 46.0971 41.0814 45.7744 41.5315C45.4516 41.9817 45.2505 42.5075 45.1905 43.0582L44.048 52.7278C44.0076 53.0587 44.0378 53.3945 44.1364 53.713C44.235 54.0315 44.3999 54.3255 44.6202 54.5757C44.877 54.8677 45.2075 55.0853 45.5772 55.2057C45.9469 55.3262 46.3422 55.3451 46.7217 55.2606C47.1012 55.176 47.4511 54.991 47.7346 54.7249C48.0181 54.4589 48.225 54.1215 48.3335 53.7481L50.7858 46.875H52.9375V53.4375H51.5312C51.2826 53.4375 51.0442 53.5363 50.8683 53.7121C50.6925 53.8879 50.5938 54.1264 50.5938 54.375C50.5938 54.6237 50.6925 54.8621 50.8683 55.0379C51.0442 55.2138 51.2826 55.3125 51.5312 55.3125H56.2188C56.4674 55.3125 56.7058 55.2138 56.8817 55.0379C57.0575 54.8621 57.1562 54.6237 57.1562 54.375C57.1562 54.1264 57.0575 53.8879 56.8817 53.7121C56.7058 53.5363 56.4674 53.4375 56.2188 53.4375H54.8125V46.8513C56.0927 46.7332 57.2827 46.1416 58.1497 45.1923C59.0167 44.2431 59.4982 43.0044 59.5 41.7188V33.75C59.5 33.5014 59.4012 33.2629 59.2254 33.0871C59.0496 32.9113 58.8111 32.8125 58.5625 32.8125ZM14.7344 37.0313H9.34375L8.2188 35.5312C8.06941 35.3327 7.84739 35.2017 7.60147 35.1668C7.35555 35.1319 7.10583 35.196 6.90713 35.345C6.70843 35.4941 6.57699 35.7159 6.54166 35.9617C6.50633 36.2076 6.57001 36.4574 6.7187 36.6564L8.12495 38.5314C8.16718 38.5871 8.21551 38.6378 8.26903 38.6828L8.23528 40.2445C8.23125 40.4289 8.28169 40.6104 8.38029 40.7662C8.4789 40.9221 8.62129 41.0454 8.78964 41.1207L11.2014 42.2001C11.4078 42.3006 11.5849 42.4527 11.7156 42.6415C11.8462 42.8304 11.926 43.0497 11.9473 43.2784L13.0899 52.9479C13.0993 53.0159 13.0942 53.085 13.075 53.1509C13.0558 53.2167 13.0229 53.2777 12.9784 53.3299C12.9515 53.3626 12.9179 53.3891 12.8799 53.4077C12.8419 53.4263 12.8003 53.4364 12.758 53.4375C12.622 53.4375 12.4968 53.3263 12.4325 53.1178L10.1785 46.8008C10.3776 46.7163 10.5413 46.5657 10.6421 46.3744C10.7428 46.183 10.7743 45.9627 10.7312 45.7508C10.6881 45.539 10.5732 45.3485 10.4057 45.2116C10.2383 45.0748 10.0287 45 9.8125 45H5.59375C5.30594 44.9777 5.02807 44.8847 4.78475 44.7294C4.54143 44.574 4.34014 44.3611 4.19872 44.1094C3.81405 43.4889 3.6823 42.7444 3.83067 42.0296L5.26645 34.2119C5.37952 33.5951 5.93365 32.9787 6.25774 32.9787C6.26569 32.9786 6.27364 32.979 6.28155 32.9798L7.36888 33.0886L8.39155 33.187L8.88046 33.2653L10.4868 35.2732C10.5746 35.383 10.686 35.4716 10.8127 35.5325C10.9394 35.5934 11.0782 35.625 11.2188 35.625H14.7344C14.9209 35.625 15.0997 35.6991 15.2316 35.831C15.3634 35.9628 15.4375 36.1417 15.4375 36.3281C15.4375 36.5146 15.3634 36.6935 15.2316 36.8253C15.0997 36.9572 14.9209 37.0313 14.7344 37.0313ZM41.2188 49.9949H17.7812V42.6563H41.2188V49.9949ZM15.4375 40.7813V38.9063H43.5625L43.5636 40.7813H15.4375ZM54.8013 44.1094C54.6598 44.3611 54.4585 44.574 54.2152 44.7293C53.9719 44.8847 53.6941 44.9776 53.4062 45H49.1875C48.9713 45 48.7617 45.0748 48.5942 45.2117C48.4268 45.3485 48.3118 45.5391 48.2688 45.751C48.2257 45.9629 48.2572 46.1832 48.358 46.3745C48.4588 46.5659 48.6226 46.7165 48.8217 46.8009L46.5535 53.1608C46.5376 53.2343 46.4986 53.3009 46.4422 53.3506C46.3858 53.4004 46.3149 53.4309 46.24 53.4375C46.198 53.4362 46.1568 53.4259 46.1191 53.4074C46.0815 53.3888 46.0482 53.3624 46.0216 53.33C45.9771 53.2777 45.9442 53.2167 45.925 53.1509C45.9058 53.085 45.9007 53.0159 45.9101 52.9479L47.0527 43.2781C47.074 43.0495 47.1537 42.8302 47.2844 42.6414C47.4151 42.4525 47.5922 42.3006 47.7986 42.2001L50.2104 41.1207C50.3787 41.0454 50.5211 40.9221 50.6197 40.7663C50.7183 40.6104 50.7688 40.4289 50.7647 40.2445L50.731 38.6828C50.7845 38.6379 50.8328 38.5871 50.875 38.5314L52.2813 36.6564C52.43 36.4574 52.4937 36.2076 52.4583 35.9617C52.423 35.7159 52.2916 35.4941 52.0929 35.345C51.8942 35.196 51.6444 35.1319 51.3985 35.1668C51.1526 35.2017 50.9306 35.3327 50.7812 35.5312L49.6562 37.0313H44.2656C44.0791 37.0313 43.9003 36.9572 43.7684 36.8253C43.6366 36.6935 43.5625 36.5146 43.5625 36.3281C43.5625 36.1417 43.6366 35.9628 43.7684 35.831C43.9003 35.6991 44.0791 35.625 44.2656 35.625H47.7812C47.9218 35.625 48.0606 35.5934 48.1873 35.5325C48.314 35.4716 48.4254 35.383 48.5132 35.2732L50.1196 33.2653L52.7182 32.9798C53.0355 32.9423 53.6175 33.5793 53.7335 34.2119L55.1693 42.0296C55.3177 42.7444 55.186 43.4889 54.8013 44.1094Z" fill="#0B7287"/>
<path d="M18.25 32.8741V35.1894C18.3264 35.1684 18.4052 35.1573 18.4844 35.1563H20.125V32.8741C20.125 32.6254 20.0262 32.387 19.8504 32.2112C19.6746 32.0354 19.4361 31.9366 19.1875 31.9366C18.9389 31.9366 18.7004 32.0354 18.5246 32.2112C18.3488 32.387 18.25 32.6254 18.25 32.8741Z" fill="#0B7287"/>
<path d="M24.8125 32.8741V35.1563H26.6875V32.8741C26.6875 32.6254 26.5887 32.387 26.4129 32.2112C26.2371 32.0354 25.9986 31.9366 25.75 31.9366C25.5014 31.9366 25.2629 32.0354 25.0871 32.2112C24.9113 32.387 24.8125 32.6254 24.8125 32.8741Z" fill="#0B7287"/>
<path d="M38.875 32.8741V35.1563H40.5156C40.5948 35.1573 40.6736 35.1684 40.75 35.1894V32.8741C40.75 32.6254 40.6512 32.387 40.4754 32.2112C40.2996 32.0354 40.0611 31.9366 39.8125 31.9366C39.5639 31.9366 39.3254 32.0354 39.1496 32.2112C38.9738 32.387 38.875 32.6254 38.875 32.8741Z" fill="#0B7287"/>
<path d="M32.3125 32.8741V35.1563H34.1875V32.8741C34.1875 32.6254 34.0887 32.387 33.9129 32.2112C33.7371 32.0354 33.4986 31.9366 33.25 31.9366C33.0014 31.9366 32.7629 32.0354 32.5871 32.2112C32.4113 32.387 32.3125 32.6254 32.3125 32.8741Z" fill="#0B7287"/>
<path d="M8.40625 21.5625C7.53631 21.5635 6.70228 21.9095 6.08713 22.5246C5.47199 23.1398 5.12598 23.9738 5.125 24.8438V26.7188C5.125 27.589 5.4707 28.4236 6.08606 29.0389C6.70141 29.6543 7.53601 30 8.40625 30C9.27649 30 10.1111 29.6543 10.7264 29.0389C11.3418 28.4236 11.6875 27.589 11.6875 26.7188V24.8438C11.6865 23.9738 11.3405 23.1398 10.7254 22.5246C10.1102 21.9095 9.27619 21.5635 8.40625 21.5625ZM9.8125 26.7188C9.8125 27.0917 9.66434 27.4494 9.40062 27.7131C9.1369 27.9768 8.77921 28.125 8.40625 28.125C8.03329 28.125 7.6756 27.9768 7.41188 27.7131C7.14816 27.4494 7 27.0917 7 26.7188V24.8438C7 24.4708 7.14816 24.1131 7.41188 23.8494C7.6756 23.5857 8.03329 23.4375 8.40625 23.4375C8.77921 23.4375 9.1369 23.5857 9.40062 23.8494C9.66434 24.1131 9.8125 24.4708 9.8125 24.8438V26.7188Z" fill="#0B7287"/>
<path d="M44.2652 31.875H44.4825C44.438 31.4317 44.3059 31.0016 44.0939 30.6097C43.8818 30.2178 43.594 29.872 43.2471 29.5924L40.3797 27.2362C40.2074 27.1018 40.0672 26.9307 39.969 26.7355C39.8708 26.5402 39.8172 26.3256 39.812 26.1072V21.5625C39.812 20.6923 39.4663 19.8577 38.851 19.2423C38.2356 18.627 37.401 18.2812 36.5308 18.2812C35.6606 18.2812 34.826 18.627 34.2106 19.2423C33.5952 19.8577 33.2495 20.6923 33.2495 21.5625V26.1072C33.2444 26.3256 33.1907 26.5402 33.0926 26.7355C32.9944 26.9307 32.8542 27.1018 32.6819 27.2362L29.8145 29.5924C29.7037 29.6843 29.5985 29.7828 29.4995 29.8874C29.4006 29.7828 29.2954 29.6843 29.1846 29.5924L26.3172 27.2362C26.1449 27.1018 26.0047 26.9307 25.9065 26.7355C25.8083 26.5402 25.7547 26.3256 25.7495 26.1072V21.5625C25.7495 20.6923 25.4038 19.8577 24.7885 19.2423C24.1731 18.627 23.3385 18.2812 22.4683 18.2812C21.5981 18.2812 20.7635 18.627 20.1481 19.2423C19.5327 19.8577 19.187 20.6923 19.187 21.5625V26.1072C19.1819 26.3256 19.1283 26.5402 19.0301 26.7355C18.9319 26.9307 18.7917 27.1018 18.6194 27.2362L15.752 29.5924C15.4051 29.872 15.1173 30.2178 14.9052 30.6097C14.6931 31.0016 14.561 31.4317 14.5166 31.875H14.7339C15.296 31.8755 15.8528 31.9831 16.3745 32.1921V32.1703C16.3797 31.9518 16.4333 31.7372 16.5315 31.5419C16.6297 31.3467 16.7699 31.1757 16.9422 31.0412L19.8096 28.6851C20.281 28.3009 20.6415 27.7981 20.8542 27.2284C21.3459 27.5088 21.9022 27.6563 22.4683 27.6563C23.0344 27.6563 23.5907 27.5088 24.0824 27.2284C24.2951 27.7981 24.6556 28.3009 25.127 28.6851L27.9944 31.0412C28.1667 31.1757 28.3069 31.3467 28.4051 31.5419C28.5033 31.7372 28.5569 31.9518 28.562 32.1703V35.1562H30.437V32.1703C30.4422 31.9518 30.4958 31.7372 30.594 31.5419C30.6922 31.3467 30.8324 31.1757 31.0047 31.0412L33.8721 28.6851C34.3435 28.3009 34.704 27.7981 34.9167 27.2284C35.4084 27.5088 35.9647 27.6562 36.5308 27.6562C37.0969 27.6562 37.6532 27.5088 38.1449 27.2284C38.3576 27.7981 38.7181 28.3009 39.1895 28.6851L42.0569 31.0412C42.2292 31.1757 42.3694 31.3467 42.4676 31.5419C42.5657 31.7372 42.6194 31.9518 42.6245 32.1703V32.1921C43.1463 31.9831 43.7031 31.8755 44.2652 31.875ZM23.8745 24.375C23.8745 24.748 23.7264 25.1056 23.4627 25.3694C23.1989 25.6331 22.8413 25.7812 22.4683 25.7812C22.0953 25.7812 21.7377 25.6331 21.4739 25.3694C21.2102 25.1056 21.062 24.748 21.062 24.375V21.5625C21.062 21.1895 21.2102 20.8319 21.4739 20.5681C21.7377 20.3044 22.0953 20.1562 22.4683 20.1562C22.8413 20.1562 23.1989 20.3044 23.4627 20.5681C23.7264 20.8319 23.8745 21.1895 23.8745 21.5625V24.375ZM37.937 24.375C37.937 24.748 37.7889 25.1056 37.5252 25.3694C37.2614 25.6331 36.9038 25.7812 36.5308 25.7812C36.1578 25.7812 35.8001 25.6331 35.5364 25.3694C35.2727 25.1056 35.1245 24.748 35.1245 24.375V21.5625C35.1245 21.1895 35.2727 20.8319 35.5364 20.5681C35.8001 20.3044 36.1578 20.1562 36.5308 20.1562C36.9038 20.1562 37.2614 20.3044 37.5252 20.5681C37.7889 20.8319 37.937 21.1895 37.937 21.5625V24.375Z" fill="#0B7287"/>
<path d="M27.2366 15.4688L28.8372 17.0691C28.9242 17.1562 29.0275 17.2252 29.1413 17.2724C29.255 17.3195 29.3769 17.3438 29.5 17.3438C29.6231 17.3438 29.745 17.3195 29.8588 17.2724C29.9725 17.2252 30.0758 17.1562 30.1628 17.0691L31.7634 15.4688H33.7188C34.4644 15.4679 35.1793 15.1714 35.7066 14.6441C36.2339 14.1168 36.5304 13.4019 36.5312 12.6562V7.03125C36.5304 6.28558 36.2339 5.57068 35.7066 5.04341C35.1793 4.51614 34.4644 4.21956 33.7188 4.21875H25.2812C24.5356 4.21956 23.8207 4.51614 23.2934 5.04341C22.7661 5.57068 22.4696 6.28558 22.4688 7.03125V12.6562C22.4696 13.4019 22.7661 14.1168 23.2934 14.6441C23.8207 15.1714 24.5356 15.4679 25.2812 15.4688H27.2366ZM24.3438 12.6562V7.03125C24.344 6.78269 24.4429 6.54437 24.6186 6.36861C24.7944 6.19285 25.0327 6.094 25.2812 6.09375H33.7188C33.9673 6.094 34.2056 6.19285 34.3814 6.36861C34.5571 6.54437 34.656 6.78269 34.6562 7.03125V12.6562C34.656 12.9048 34.5571 13.1431 34.3814 13.3189C34.2056 13.4947 33.9673 13.5935 33.7188 13.5938H31.375C31.1264 13.5938 30.888 13.6926 30.7122 13.8684L29.5 15.0803L28.2878 13.8684C28.112 13.6926 27.8736 13.5938 27.625 13.5938H25.2812C25.0327 13.5935 24.7944 13.4947 24.6186 13.3189C24.4429 13.1431 24.344 12.9048 24.3438 12.6562Z" fill="#0B7287"/>
<path d="M45.4375 20.625C45.5606 20.6252 45.6826 20.601 45.7963 20.5539C45.9101 20.5067 46.0134 20.4376 46.1003 20.3503L47.7009 18.75H49.6562C50.4019 18.7492 51.1168 18.4526 51.6441 17.9253C52.1714 17.3981 52.4679 16.6832 52.4688 15.9375V10.3125C52.4679 9.56683 52.1714 8.85193 51.6441 8.32466C51.1168 7.79739 50.4019 7.50081 49.6562 7.5H41.2188C40.4731 7.50081 39.7582 7.79739 39.2309 8.32466C38.7036 8.85193 38.4071 9.56683 38.4062 10.3125V15.9375C38.4071 16.6832 38.7036 17.3981 39.2309 17.9253C39.7582 18.4526 40.4731 18.7492 41.2188 18.75H43.1741L44.7747 20.3503C44.8616 20.4376 44.9649 20.5067 45.0787 20.5539C45.1924 20.601 45.3144 20.6252 45.4375 20.625ZM43.5625 16.875H41.2188C40.9702 16.8748 40.7319 16.7759 40.5561 16.6001C40.3804 16.4244 40.2815 16.1861 40.2812 15.9375V10.3125C40.2815 10.0639 40.3804 9.82562 40.5561 9.64986C40.7319 9.4741 40.9702 9.37525 41.2188 9.375H49.6562C49.9048 9.37525 50.1431 9.4741 50.3189 9.64986C50.4946 9.82562 50.5935 10.0639 50.5938 10.3125V15.9375C50.5935 16.1861 50.4946 16.4244 50.3189 16.6001C50.1431 16.7759 49.9048 16.8748 49.6562 16.875H47.3125C47.0639 16.8751 46.8255 16.9738 46.6497 17.1497L45.4375 18.3616L44.2253 17.1497C44.0495 16.9738 43.8111 16.8751 43.5625 16.875Z" fill="#0B7287"/>
<path d="M13.5625 20.625C13.6856 20.6252 13.8076 20.601 13.9213 20.5539C14.0351 20.5067 14.1384 20.4376 14.2253 20.3503L15.8259 18.75H17.7812C18.5269 18.7492 19.2418 18.4526 19.7691 17.9253C20.2964 17.3981 20.5929 16.6832 20.5938 15.9375V10.3125C20.5929 9.56683 20.2964 8.85193 19.7691 8.32466C19.2418 7.79739 18.5269 7.50081 17.7812 7.5H9.34375C8.59808 7.50081 7.88318 7.79739 7.35591 8.32466C6.82864 8.85193 6.53206 9.56683 6.53125 10.3125V15.9375C6.53206 16.6832 6.82864 17.3981 7.35591 17.9253C7.88318 18.4526 8.59808 18.7492 9.34375 18.75H11.2991L12.8997 20.3503C12.9866 20.4376 13.0899 20.5067 13.2037 20.5539C13.3174 20.601 13.4394 20.6252 13.5625 20.625ZM11.6875 16.875H9.34375C9.09519 16.8748 8.85687 16.7759 8.68111 16.6001C8.50535 16.4244 8.4065 16.1861 8.40625 15.9375V10.3125C8.4065 10.0639 8.50535 9.82562 8.68111 9.64986C8.85687 9.4741 9.09519 9.37525 9.34375 9.375H17.7812C18.0298 9.37525 18.2681 9.4741 18.4439 9.64986C18.6196 9.82562 18.7185 10.0639 18.7188 10.3125V15.9375C18.7185 16.1861 18.6196 16.4244 18.4439 16.6001C18.2681 16.7759 18.0298 16.8748 17.7812 16.875H15.4375C15.1889 16.8751 14.9505 16.9738 14.7747 17.1497L13.5625 18.3616L12.3503 17.1497C12.1745 16.9738 11.9361 16.8751 11.6875 16.875Z" fill="#0B7287"/>
</g>
<defs>
<clipPath id="clip0_1218_1461">
<rect width="60" height="60" fill="white" transform="translate(-0.5)"/>
</clipPath>
</defs>
</svg>
