<svg width="30" height="30" viewBox="0 0 30 30" fill="none" xmlns="http://www.w3.org/2000/svg">
<g clip-path="url(#clip0_180_5020)">
<path d="M30 5.15533V24.8447C29.9989 26.2112 29.4536 27.5215 28.4838 28.488C27.5139 29.4545 26.1988 29.9983 24.8269 30H19.2497V18.2572H22.9703L23.9941 13.8679H19.2497V10.1057H22.865L23.8717 5.77261H19.5534C18.3958 5.77274 17.2857 6.23085 16.4672 7.04619C15.6486 7.86152 15.1887 8.96731 15.1886 10.1204V13.8679H12.9597L11.9383 18.2572H15.1886V30H5.17309C3.80121 29.9983 2.48605 29.4545 1.51622 28.488C0.54638 27.5215 0.00108814 26.2112 0 24.8447V5.15533C0.00109073 3.78881 0.546383 2.47853 1.51622 1.51202C2.48605 0.545518 3.80121 0.00173334 5.17309 0H24.8269C26.1988 0.00173334 27.5139 0.545518 28.4838 1.51202C29.4536 2.47853 29.9989 3.78881 30 5.15533Z" fill="#054E5C"/>
</g>
<defs>
<clipPath id="clip0_180_5020">
<rect width="30" height="30" fill="white"/>
</clipPath>
</defs>
</svg>
