<svg width="30" height="30" viewBox="0 0 30 30" fill="none" xmlns="http://www.w3.org/2000/svg">
<path d="M26.7583 0H3.24171C1.45142 0 0 1.45142 0 3.24171V26.7583C0 28.5486 1.45142 30 3.24171 30H26.7583C28.5486 30 30 28.5486 30 26.7583V3.24171C30 1.45142 28.5486 0 26.7583 0ZM24.254 13.0687C22.3549 13.0687 20.595 12.4612 19.1582 11.43V18.8726C19.1582 22.5901 16.1342 25.6141 12.4173 25.6141C10.9811 25.6141 9.64904 25.1611 8.55404 24.3921C6.81584 23.1719 5.67636 21.1533 5.67636 18.8726C5.67636 15.1557 8.70035 12.1317 12.4173 12.1317C12.7257 12.1317 13.0283 12.1568 13.3256 12.1972V15.9364C13.0382 15.8463 12.7339 15.7942 12.4173 15.7942C10.7195 15.7942 9.33886 17.1754 9.33886 18.8726C9.33886 20.0548 10.009 21.0819 10.9893 21.5975C11.4165 21.8229 11.9017 21.9516 12.4173 21.9516C14.0759 21.9516 15.4284 20.6325 15.4899 18.9885L15.4957 4.31096H19.1582C19.1582 4.62817 19.1892 4.93835 19.2448 5.23976C19.5035 6.63558 20.3316 7.83242 21.4787 8.58096C22.2782 9.10183 23.231 9.40616 24.254 9.40616V13.0687Z" fill="#054E5C"/>
</svg>
