<svg width="30" height="30" viewBox="0 0 30 30" fill="none" xmlns="http://www.w3.org/2000/svg">
<g clip-path="url(#clip0_180_5021)">
<path d="M13.0723 12.0476V17.5238L18.1199 14.8095L13.0723 12.0476Z" fill="#054E5C"/>
<path d="M22.4762 0H7.5C3.38095 0 0 3.38095 0 7.52381V22.5C0 26.619 3.38095 30 7.5 30H22.4762C26.619 30 30 26.619 30 22.4762V7.52381C30 3.38095 26.619 0 22.4762 0ZM24.2857 15.7381C24.2857 17.3095 24.1429 18.9048 24.1429 18.9048C24.1429 18.9048 23.9762 20.2381 23.4286 20.8333C22.7143 21.619 21.9286 21.619 21.5714 21.6667C18.9524 21.8571 15.0238 21.881 15.0238 21.881C15.0238 21.881 10.1429 21.8095 8.64286 21.6667C8.2381 21.5952 7.28571 21.619 6.57143 20.8333C6 20.2381 5.85714 18.9048 5.85714 18.9048C5.85714 18.9048 5.71429 17.3095 5.71429 15.7381V14.2619C5.71429 12.6905 5.85714 11.0952 5.85714 11.0952C5.85714 11.0952 6.02381 9.7619 6.57143 9.16667C7.28571 8.38095 8.07143 8.35714 8.42857 8.30952C11.0714 8.11905 15 8.09524 15 8.09524C15 8.09524 18.9286 8.11905 21.5476 8.30952C21.9048 8.35714 22.7143 8.38095 23.4286 9.14286C24 9.7381 24.1429 11.0952 24.1429 11.0952C24.1429 11.0952 24.2857 12.6905 24.2857 14.2619V15.7381Z" fill="#054E5C"/>
</g>
<defs>
<clipPath id="clip0_180_5021">
<rect width="30" height="30" fill="white"/>
</clipPath>
</defs>
</svg>
