<svg width="42" height="42" viewBox="0 0 42 42" fill="none" xmlns="http://www.w3.org/2000/svg">
<g clip-path="url(#clip0_332_516)">
<rect x="1" y="1" width="40" height="40" rx="20" fill="white"/>
<path d="M28.5425 29.577L22.2618 23.296C21.7618 23.7088 21.1868 24.0319 20.5368 24.2653C19.8868 24.4986 19.2144 24.6153 18.5195 24.6153C16.8104 24.6153 15.3639 24.0235 14.18 22.84C12.9962 21.6565 12.4043 20.2103 12.4043 18.5015C12.4043 16.7928 12.996 15.3462 14.1795 14.1615C15.363 12.977 16.8092 12.3848 18.518 12.3848C20.2267 12.3848 21.6734 12.9767 22.858 14.1605C24.0425 15.3443 24.6348 16.7908 24.6348 18.5C24.6348 19.2142 24.515 19.8963 24.2753 20.5463C24.0355 21.1963 23.7155 21.7616 23.3155 22.2423L29.5963 28.523L28.5425 29.577ZM18.5195 23.1155C19.808 23.1155 20.8994 22.6683 21.7935 21.774C22.6879 20.8798 23.135 19.7885 23.135 18.5C23.135 17.2115 22.6879 16.1202 21.7935 15.226C20.8994 14.3317 19.808 13.8845 18.5195 13.8845C17.231 13.8845 16.1397 14.3317 15.2455 15.226C14.3512 16.1202 13.904 17.2115 13.904 18.5C13.904 19.7885 14.3512 20.8798 15.2455 21.774C16.1397 22.6683 17.231 23.1155 18.5195 23.1155Z" fill="#054E5C"/>
</g>
<rect x="0.5" y="0.5" width="41" height="41" rx="20.5" stroke="#054E5C"/>
<defs>
<clipPath id="clip0_332_516">
<rect x="1" y="1" width="40" height="40" rx="20" fill="white"/>
</clipPath>
</defs>
</svg>
