<svg width="100" height="40" viewBox="0 0 100 40" fill="none" xmlns="http://www.w3.org/2000/svg">
<g clip-path="url(#clip0_257_3223)">
<path d="M17.4678 25C17.1878 25 16.9871 24.86 16.8658 24.58L12.7358 15.06C12.6145 14.7707 12.6005 14.5327 12.6938 14.346C12.7965 14.1593 12.9831 14.066 13.2538 14.066C13.5431 14.066 13.7438 14.2013 13.8558 14.472L17.5518 23.334H17.3418L21.0798 14.472C21.1451 14.3227 21.2245 14.22 21.3178 14.164C21.4111 14.0987 21.5371 14.066 21.6958 14.066C21.9478 14.066 22.1205 14.1593 22.2138 14.346C22.3165 14.5327 22.3165 14.738 22.2138 14.962L18.0558 24.58C17.9905 24.72 17.9065 24.8273 17.8038 24.902C17.7105 24.9673 17.5985 25 17.4678 25ZM24.743 25C24.547 25 24.3884 24.9393 24.267 24.818C24.1457 24.6967 24.085 24.5427 24.085 24.356V17.986C24.085 17.79 24.1457 17.636 24.267 17.524C24.3884 17.4027 24.547 17.342 24.743 17.342C24.9297 17.342 25.0837 17.4027 25.205 17.524C25.3264 17.636 25.387 17.79 25.387 17.986V24.356C25.387 24.5427 25.3264 24.6967 25.205 24.818C25.0837 24.9393 24.9297 25 24.743 25ZM24.729 16.012C24.4957 16.012 24.295 15.928 24.127 15.76C23.959 15.592 23.875 15.3867 23.875 15.144C23.875 14.9013 23.959 14.7007 24.127 14.542C24.3044 14.374 24.5097 14.29 24.743 14.29C24.967 14.29 25.163 14.374 25.331 14.542C25.5084 14.7007 25.597 14.9013 25.597 15.144C25.597 15.3867 25.513 15.592 25.345 15.76C25.177 15.928 24.9717 16.012 24.729 16.012ZM31.7293 25.056C30.9546 25.056 30.2686 24.8927 29.6713 24.566C29.0833 24.23 28.6213 23.7727 28.2853 23.194C27.9493 22.606 27.7813 21.934 27.7813 21.178C27.7813 20.4127 27.9399 19.7407 28.2573 19.162C28.5746 18.574 29.0133 18.1167 29.5733 17.79C30.1333 17.454 30.7819 17.286 31.5193 17.286C32.2379 17.286 32.8586 17.4493 33.3813 17.776C33.9039 18.0933 34.3053 18.5367 34.5853 19.106C34.8653 19.666 35.0053 20.3147 35.0053 21.052C35.0053 21.2107 34.9493 21.346 34.8373 21.458C34.7346 21.5607 34.5946 21.612 34.4173 21.612H28.6633V20.576H34.4313L33.8573 20.982C33.8479 20.4873 33.7499 20.044 33.5633 19.652C33.3766 19.26 33.1106 18.952 32.7653 18.728C32.4199 18.504 32.0046 18.392 31.5193 18.392C30.9873 18.392 30.5253 18.5133 30.1333 18.756C29.7506 18.9987 29.4566 19.33 29.2513 19.75C29.0459 20.17 28.9433 20.646 28.9433 21.178C28.9433 21.71 29.0599 22.186 29.2933 22.606C29.5359 23.0167 29.8626 23.3433 30.2733 23.586C30.6933 23.8287 31.1786 23.95 31.7293 23.95C32.0279 23.95 32.3359 23.894 32.6533 23.782C32.9799 23.67 33.2366 23.5393 33.4233 23.39C33.5539 23.2873 33.6939 23.236 33.8433 23.236C33.9926 23.2267 34.1233 23.2687 34.2353 23.362C34.3753 23.4927 34.4499 23.6373 34.4593 23.796C34.4686 23.9453 34.4033 24.076 34.2633 24.188C33.9459 24.44 33.5493 24.65 33.0733 24.818C32.6066 24.9767 32.1586 25.056 31.7293 25.056ZM38.4041 25C38.2641 25 38.1381 24.9627 38.0261 24.888C37.9141 24.804 37.8348 24.7013 37.7881 24.58L35.6741 18.238C35.6088 17.9673 35.6135 17.7527 35.6881 17.594C35.7628 17.426 35.9215 17.342 36.1641 17.342C36.3228 17.342 36.4535 17.384 36.5561 17.468C36.6681 17.552 36.7568 17.692 36.8221 17.888L38.6561 23.572H38.2361L39.9441 17.832C39.9908 17.6827 40.0655 17.566 40.1681 17.482C40.2708 17.3887 40.4108 17.342 40.5881 17.342C40.7561 17.342 40.8915 17.3887 40.9941 17.482C41.1061 17.566 41.1808 17.6827 41.2181 17.832L42.7161 23.32H42.4921L44.2421 17.888C44.3541 17.524 44.5688 17.342 44.8861 17.342C45.1288 17.342 45.2921 17.4307 45.3761 17.608C45.4601 17.776 45.4555 17.986 45.3621 18.238L43.2481 24.58C43.2108 24.7013 43.1361 24.804 43.0241 24.888C42.9215 24.9627 42.7955 25 42.6461 25C42.5155 25 42.3895 24.9627 42.2681 24.888C42.1468 24.804 42.0721 24.7013 42.0441 24.58L40.4761 19.05H40.6301L39.0201 24.58C38.9828 24.7013 38.9035 24.804 38.7821 24.888C38.6701 24.9627 38.5441 25 38.4041 25ZM61.3873 25.014C61.2006 25.014 61.0466 24.9533 60.9253 24.832C60.8039 24.7107 60.7433 24.5567 60.7433 24.37V20.352C60.7433 19.736 60.5846 19.2647 60.2673 18.938C59.9593 18.6113 59.5579 18.448 59.0633 18.448C58.5406 18.448 58.1113 18.63 57.7753 18.994C57.4486 19.3487 57.2853 19.8107 57.2853 20.38H56.1933C56.2026 19.764 56.3379 19.2227 56.5993 18.756C56.8606 18.2893 57.2246 17.9253 57.6913 17.664C58.1579 17.4027 58.6853 17.272 59.2733 17.272C59.8146 17.272 60.2906 17.3933 60.7013 17.636C61.1213 17.8787 61.4479 18.2333 61.6813 18.7C61.9146 19.1573 62.0313 19.708 62.0313 20.352V24.37C62.0313 24.5567 61.9706 24.7107 61.8493 24.832C61.7373 24.9533 61.5833 25.014 61.3873 25.014ZM51.8673 25.014C51.6806 25.014 51.5266 24.9533 51.4053 24.832C51.2839 24.7107 51.2233 24.5567 51.2233 24.37V18C51.2233 17.804 51.2839 17.65 51.4053 17.538C51.5266 17.4167 51.6806 17.356 51.8673 17.356C52.0633 17.356 52.2173 17.4167 52.3293 17.538C52.4506 17.65 52.5113 17.804 52.5113 18V24.37C52.5113 24.5567 52.4506 24.7107 52.3293 24.832C52.2173 24.9533 52.0633 25.014 51.8673 25.014ZM56.6413 25.014C56.4546 25.014 56.3006 24.9533 56.1793 24.832C56.0579 24.7107 55.9973 24.5567 55.9973 24.37V20.352C55.9973 19.736 55.8386 19.2647 55.5213 18.938C55.2133 18.6113 54.8119 18.448 54.3173 18.448C53.7946 18.448 53.3606 18.6253 53.0153 18.98C52.6793 19.3347 52.5113 19.7873 52.5113 20.338H51.6713C51.6806 19.7407 51.8066 19.2133 52.0493 18.756C52.3013 18.2893 52.6419 17.9253 53.0713 17.664C53.5006 17.4027 53.9859 17.272 54.5273 17.272C55.0686 17.272 55.5446 17.3933 55.9553 17.636C56.3753 17.8787 56.7019 18.2333 56.9353 18.7C57.1686 19.1573 57.2853 19.708 57.2853 20.352V24.37C57.2853 24.5567 57.2246 24.7107 57.1033 24.832C56.9913 24.9533 56.8373 25.014 56.6413 25.014ZM67.975 25.056C67.2283 25.056 66.561 24.8927 65.973 24.566C65.3943 24.23 64.937 23.7727 64.601 23.194C64.2743 22.606 64.111 21.934 64.111 21.178C64.111 20.4127 64.2743 19.7407 64.601 19.162C64.937 18.574 65.3943 18.1167 65.973 17.79C66.561 17.454 67.2283 17.286 67.975 17.286C68.7216 17.286 69.3843 17.454 69.963 17.79C70.551 18.1167 71.0083 18.574 71.335 19.162C71.671 19.7407 71.8436 20.4127 71.853 21.178C71.853 21.934 71.685 22.606 71.349 23.194C71.013 23.7727 70.5556 24.23 69.977 24.566C69.3983 24.8927 68.731 25.056 67.975 25.056ZM67.975 23.908C68.4883 23.908 68.941 23.7913 69.333 23.558C69.725 23.3247 70.033 23.0027 70.257 22.592C70.481 22.1813 70.593 21.71 70.593 21.178C70.593 20.646 70.481 20.1747 70.257 19.764C70.033 19.344 69.725 19.0173 69.333 18.784C68.941 18.5507 68.4883 18.434 67.975 18.434C67.471 18.434 67.0183 18.5507 66.617 18.784C66.225 19.0173 65.917 19.344 65.693 19.764C65.469 20.1747 65.357 20.646 65.357 21.178C65.357 21.71 65.469 22.1813 65.693 22.592C65.917 23.0027 66.225 23.3247 66.617 23.558C67.0183 23.7913 67.471 23.908 67.975 23.908ZM74.6519 20.24C74.6706 19.6707 74.8152 19.162 75.0859 18.714C75.3659 18.266 75.7346 17.9113 76.1919 17.65C76.6492 17.3887 77.1532 17.258 77.7039 17.258C78.2172 17.258 78.5999 17.3373 78.8519 17.496C79.1132 17.6547 79.2112 17.8553 79.1459 18.098C79.1179 18.238 79.0619 18.3407 78.9779 18.406C78.8939 18.462 78.7959 18.4947 78.6839 18.504C78.5719 18.504 78.4506 18.4947 78.3199 18.476C77.7506 18.3827 77.2419 18.3967 76.7939 18.518C76.3459 18.6393 75.9912 18.8493 75.7299 19.148C75.4686 19.4467 75.3379 19.8107 75.3379 20.24H74.6519ZM74.6939 25C74.4979 25 74.3439 24.9487 74.2319 24.846C74.1199 24.734 74.0639 24.5753 74.0639 24.37V17.972C74.0639 17.776 74.1199 17.622 74.2319 17.51C74.3439 17.398 74.4979 17.342 74.6939 17.342C74.9086 17.342 75.0672 17.398 75.1699 17.51C75.2819 17.6127 75.3379 17.7667 75.3379 17.972V24.37C75.3379 24.566 75.2819 24.72 75.1699 24.832C75.0672 24.944 74.9086 25 74.6939 25ZM83.8039 25.056C83.0292 25.056 82.3432 24.8927 81.7459 24.566C81.1579 24.23 80.6959 23.7727 80.3599 23.194C80.0239 22.606 79.8559 21.934 79.8559 21.178C79.8559 20.4127 80.0146 19.7407 80.3319 19.162C80.6492 18.574 81.0879 18.1167 81.6479 17.79C82.2079 17.454 82.8566 17.286 83.5939 17.286C84.3126 17.286 84.9332 17.4493 85.4559 17.776C85.9786 18.0933 86.3799 18.5367 86.6599 19.106C86.9399 19.666 87.0799 20.3147 87.0799 21.052C87.0799 21.2107 87.0239 21.346 86.9119 21.458C86.8092 21.5607 86.6692 21.612 86.4919 21.612H80.7379V20.576H86.5059L85.9319 20.982C85.9226 20.4873 85.8246 20.044 85.6379 19.652C85.4512 19.26 85.1852 18.952 84.8399 18.728C84.4946 18.504 84.0792 18.392 83.5939 18.392C83.0619 18.392 82.5999 18.5133 82.2079 18.756C81.8252 18.9987 81.5312 19.33 81.3259 19.75C81.1206 20.17 81.0179 20.646 81.0179 21.178C81.0179 21.71 81.1346 22.186 81.3679 22.606C81.6106 23.0167 81.9372 23.3433 82.3479 23.586C82.7679 23.8287 83.2532 23.95 83.8039 23.95C84.1026 23.95 84.4106 23.894 84.7279 23.782C85.0546 23.67 85.3112 23.5393 85.4979 23.39C85.6286 23.2873 85.7686 23.236 85.9179 23.236C86.0672 23.2267 86.1979 23.2687 86.3099 23.362C86.4499 23.4927 86.5246 23.6373 86.5339 23.796C86.5432 23.9453 86.4779 24.076 86.3379 24.188C86.0206 24.44 85.6239 24.65 85.1479 24.818C84.6812 24.9767 84.2332 25.056 83.8039 25.056Z" fill="#054E5C"/>
<path d="M12.3578 26.75H87.6399V27.45H12.3578V26.75Z" fill="#054E5C"/>
</g>
<defs>
<clipPath id="clip0_257_3223">
<rect width="100" height="40" rx="20" fill="white"/>
</clipPath>
</defs>
</svg>
