<?xml version="1.0" encoding="UTF-8"?>
<!DOCTYPE svg PUBLIC "-//W3C//DTD SVG 1.1//EN" "http://www.w3.org/Graphics/SVG/1.1/DTD/svg11.dtd">
<svg xmlns="http://www.w3.org/2000/svg" version="1.1" width="512px" height="512px" style="shape-rendering:geometricPrecision; text-rendering:geometricPrecision; image-rendering:optimizeQuality; fill-rule:evenodd; clip-rule:evenodd" xmlns:xlink="http://www.w3.org/1999/xlink">
<g><path style="opacity:0.979" fill="#ffb900" d="M 0.5,-0.5 C 6.16667,-0.5 11.8333,-0.5 17.5,-0.5C 48.3831,2.80691 78.0498,10.9736 106.5,24C 110.046,25.2667 113.046,27.2667 115.5,30C 115.241,31.2613 114.574,32.2613 113.5,33C 80.1667,54.3333 52.8333,81.6667 31.5,115C 30.0039,115.507 28.8373,115.007 28,113.5C 12.4199,82.8262 2.91988,50.4928 -0.5,16.5C -0.5,11.1667 -0.5,5.83333 -0.5,0.5C 0.166667,0.5 0.5,0.166667 0.5,-0.5 Z"/></g>
<g><path style="opacity:0.97" fill="#8b85dc" d="M 68.5,-0.5 C 106.833,-0.5 145.167,-0.5 183.5,-0.5C 183.586,0.495904 183.252,1.32924 182.5,2C 175.718,3.59363 169.052,5.59363 162.5,8C 150.029,13.6541 137.529,19.1541 125,24.5C 106.549,15.1886 87.7153,6.85523 68.5,-0.5 Z"/></g>
<g><path style="opacity:0.991" fill="#29a9c2" d="M 234.5,-0.5 C 248.5,-0.5 262.5,-0.5 276.5,-0.5C 303.687,2.04637 330.02,8.54637 355.5,19C 362.821,22.3254 369.821,26.1588 376.5,30.5C 363.217,38.6018 351.217,48.4351 340.5,60C 327.911,68.132 314.077,71.2987 299,69.5C 266.999,68.1989 234.999,68.1989 203,69.5C 196.114,69.5579 189.281,69.0579 182.5,68C 167.216,54.5456 151.216,42.0456 134.5,30.5C 156.127,17.4534 179.46,8.62006 204.5,4C 214.611,2.24702 224.611,0.747024 234.5,-0.5 Z"/></g>
<g><path style="opacity:0.971" fill="#8b85dc" d="M 327.5,-0.5 C 366.167,-0.5 404.833,-0.5 443.5,-0.5C 443.586,0.495904 443.252,1.32924 442.5,2C 435.105,4.13156 427.772,6.4649 420.5,9C 408.898,14.0532 397.398,19.2199 386,24.5C 366.859,15.1754 347.359,6.84205 327.5,-0.5 Z"/></g>
<g><path style="opacity:0.978" fill="#ffb900" d="M 497.5,-0.5 C 501.833,-0.5 506.167,-0.5 510.5,-0.5C 510.5,0.166667 510.833,0.5 511.5,0.5C 511.5,5.5 511.5,10.5 511.5,15.5C 508.239,49.8582 498.739,82.5248 483,113.5C 480.733,114.935 478.733,114.602 477,112.5C 455.644,78.977 428.144,51.6437 394.5,30.5C 426.485,12.2822 460.818,1.94886 497.5,-0.5 Z"/></g>
<g><path style="opacity:0.986" fill="#fae7d6" d="M 121.5,35.5 C 126.05,34.8843 130.05,36.051 133.5,39C 146.244,47.5787 158.244,57.0787 169.5,67.5C 139.839,68.6665 110.172,68.8332 80.5,68C 93.4905,56.1608 107.157,45.3275 121.5,35.5 Z"/></g>
<g><path style="opacity:0.988" fill="#fae7d6" d="M 382.5,35.5 C 384.527,35.3379 386.527,35.5045 388.5,36C 403.473,44.8076 417.14,55.3076 429.5,67.5C 400.172,68.6665 370.839,68.8332 341.5,68C 345.866,63.2993 350.533,58.966 355.5,55C 364.567,48.4785 373.567,41.9785 382.5,35.5 Z"/></g>
<g><path style="opacity:0.926" fill="#8a85db" d="M -0.5,67.5 C 0.789915,68.0577 1.62325,69.0577 2,70.5C 6.25876,84.9472 12.2588,98.6139 20,111.5C 23.8731,119.744 24.2065,128.077 21,136.5C 13.1206,150.134 6.78724,164.467 2,179.5C 1.62325,180.942 0.789915,181.942 -0.5,182.5C -0.5,144.167 -0.5,105.833 -0.5,67.5 Z"/></g>
<g><path style="opacity:0.936" fill="#8b85dc" d="M 511.5,67.5 C 511.5,105.833 511.5,144.167 511.5,182.5C 503.919,162.956 495.252,143.79 485.5,125C 495.252,106.21 503.919,87.0438 511.5,67.5 Z"/></g>
<g><path style="opacity:0.992" fill="#0b7187" d="M 81.5,76.5 C 113.166,77.6665 144.833,77.8331 176.5,77C 179.242,78.0704 181.742,79.5704 184,81.5C 223.457,124.771 245.791,175.771 251,234.5C 251.806,240.084 251.639,245.584 250.5,251C 184.614,249.456 127.781,226.29 80,181.5C 79.1376,179.913 78.4709,178.246 78,176.5C 77.3333,143.833 77.3333,111.167 78,78.5C 79.3024,77.9152 80.469,77.2485 81.5,76.5 Z"/></g>
<g><path style="opacity:0.991" fill="#0b7187" d="M 336.5,76.5 C 367.835,76.3334 399.168,76.5 430.5,77C 431.308,77.3076 431.975,77.8076 432.5,78.5C 433.58,101.287 434.247,124.12 434.5,147C 434.603,157.547 434.103,168.047 433,178.5C 405.377,206.717 372.544,226.884 334.5,239C 311.075,246.571 287.075,250.238 262.5,250C 261.333,249.5 260.5,248.667 260,247.5C 261.934,183.491 284.434,127.991 327.5,81C 330.437,79.1991 333.437,77.6991 336.5,76.5 Z"/></g>
<g><path style="opacity:0.991" fill="#fae7d6" d="M 191.5,77.5 C 234.501,77.3333 277.501,77.5 320.5,78C 288.343,114.476 266.843,156.643 256,204.5C 244.501,156.832 223.001,114.499 191.5,77.5 Z"/></g>
<g><path style="opacity:0.986" fill="#fae7d6" d="M 65.5,82.5 C 66.8333,82.5 68.1667,82.5 69.5,82.5C 69.8332,111.174 69.4998,139.841 68.5,168.5C 54.7374,156.163 43.7374,141.663 35.5,125C 37.6769,119.48 40.5102,114.313 44,109.5C 51.0001,100.337 58.1668,91.337 65.5,82.5 Z"/></g>
<g><path style="opacity:0.987" fill="#fae7d6" d="M 442.5,80.5 C 456.004,93.5004 467.004,108.334 475.5,125C 467.041,141.475 456.208,156.308 443,169.5C 442.5,139.835 442.333,110.169 442.5,80.5 Z"/></g>
<g><path style="opacity:0.994" fill="#29a9c2" d="M -0.5,277.5 C -0.5,262.5 -0.5,247.5 -0.5,232.5C 2.79047,198.783 12.2905,166.783 28,136.5C 28.6891,135.643 29.5224,134.977 30.5,134.5C 42.7334,150.909 55.5667,166.909 69,182.5C 70.1427,207.294 70.6427,232.127 70.5,257C 70.3333,280.167 70.1667,303.333 70,326.5C 64.4487,334.727 58.1154,342.393 51,349.5C 44.3281,358.997 37.4948,368.331 30.5,377.5C 13.0339,346.282 2.70059,312.949 -0.5,277.5 Z"/></g>
<g><path style="opacity:0.989" fill="#29a9c2" d="M 511.5,232.5 C 511.5,247.5 511.5,262.5 511.5,277.5C 508.079,311.496 498.579,343.83 483,374.5C 481.612,375.554 480.112,375.72 478.5,375C 474.058,367.56 469.225,360.394 464,353.5C 457,345.167 450,336.833 443,328.5C 441.857,303.706 441.357,278.873 441.5,254C 441.667,230.833 441.833,207.667 442,184.5C 442.471,182.754 443.138,181.087 444,179.5C 457.065,166.183 468.565,151.683 478.5,136C 480.701,135.175 482.534,135.675 484,137.5C 498.632,167.712 507.798,199.379 511.5,232.5 Z"/></g>
<g><path style="opacity:0.98" fill="#fae7d6" d="M 77.5,190.5 C 114.186,222.512 156.519,244.012 204.5,255C 156.62,266.187 114.453,288.021 78,320.5C 77.5,277.168 77.3333,233.835 77.5,190.5 Z"/></g>
<g><path style="opacity:0.987" fill="#fae7d6" d="M 432.5,190.5 C 433.665,233.665 433.831,276.998 433,320.5C 396.913,288.203 355.08,266.537 307.5,255.5C 354.795,244.024 396.461,222.358 432.5,190.5 Z"/></g>
<g><path style="opacity:0.992" fill="#0b7187" d="M 240.5,259.5 C 248.725,257.593 252.391,260.76 251.5,269C 247.392,332.385 223.725,387.052 180.5,433C 179.5,433.333 178.5,433.667 177.5,434C 144.506,433.846 111.506,433.513 78.5,433C 77.8367,416.239 77.5034,399.406 77.5,382.5C 77.3462,365.079 77.8462,347.745 79,330.5C 124.286,287.611 178.12,263.945 240.5,259.5 Z"/></g>
<g><path style="opacity:0.993" fill="#0b7187" d="M 261.5,259.5 C 326.704,261.72 383.204,284.72 431,328.5C 432.751,330.49 433.751,332.823 434,335.5C 434.167,346.5 434.333,357.5 434.5,368.5C 434.05,388.855 433.883,409.189 434,429.5C 433.535,430.931 432.701,432.097 431.5,433C 398.167,433.667 364.833,433.667 331.5,433C 287.249,386.965 263.249,331.799 259.5,267.5C 259.289,264.514 259.956,261.847 261.5,259.5 Z"/></g>
<g><path style="opacity:0.984" fill="#fae7d6" d="M 255.5,306.5 C 266.743,354.155 288.409,396.322 320.5,433C 277.496,433.833 234.496,433.667 191.5,432.5C 223.387,396.062 244.72,354.062 255.5,306.5 Z"/></g>
<g><path style="opacity:0.969" fill="#8b85dc" d="M -0.5,328.5 C 0.5,328.5 1.5,328.5 2.5,328.5C 8.41164,348.241 16.0783,367.241 25.5,385.5C 20.9522,396.265 16.1189,406.931 11,417.5C 8.13606,425.092 5.46939,432.758 3,440.5C 2.50167,442.544 1.33501,443.878 -0.5,444.5C -0.5,405.833 -0.5,367.167 -0.5,328.5 Z"/></g>
<g><path style="opacity:0.909" fill="#8b85dc" d="M 511.5,327.5 C 511.5,366.5 511.5,405.5 511.5,444.5C 504.499,425.815 496.332,407.482 487,389.5C 486.333,386.833 486.333,384.167 487,381.5C 489.921,376.659 492.588,371.659 495,366.5C 500.436,353.325 505.936,340.325 511.5,327.5 Z"/></g>
<g><path style="opacity:0.983" fill="#fae7d6" d="M 67.5,341.5 C 68.8327,355.985 69.4994,370.818 69.5,386C 69.1667,400.833 68.8333,415.667 68.5,430.5C 55.434,417.203 44.434,402.369 35.5,386C 44.5773,370.007 55.2439,355.174 67.5,341.5 Z"/></g>
<g><path style="opacity:0.989" fill="#fae7d6" d="M 442.5,341.5 C 456.004,354.5 467.004,369.334 475.5,386C 467.041,402.475 456.208,417.308 443,430.5C 442.5,400.835 442.333,371.169 442.5,341.5 Z"/></g>
<g><path style="opacity:0.978" fill="#ffb900" d="M 12.5,511.5 C 8.83333,511.5 5.16667,511.5 1.5,511.5C 1.16667,510.5 0.5,509.833 -0.5,509.5C -0.5,505.167 -0.5,500.833 -0.5,496.5C 2.56998,461.774 12.07,428.774 28,397.5C 28.7387,396.426 29.7387,395.759 31,395.5C 44.9287,414.781 60.4287,432.948 77.5,450C 89.1916,460.592 101.692,470.092 115,478.5C 115.711,480.367 115.211,481.867 113.5,483C 81.5981,499.222 47.9314,508.722 12.5,511.5 Z"/></g>
<g><path style="opacity:0.979" fill="#ffb800" d="M 511.5,492.5 C 511.5,498.5 511.5,504.5 511.5,510.5C 510.833,510.5 510.5,510.833 510.5,511.5C 505.167,511.5 499.833,511.5 494.5,511.5C 459.918,508.476 427.251,498.643 396.5,482C 395.549,481.282 395.383,480.449 396,479.5C 420.448,463.391 442.115,444.057 461,421.5C 467.055,413.778 472.722,405.778 478,397.5C 479.667,396.167 481.333,396.167 483,397.5C 498.499,427.486 507.999,459.153 511.5,492.5 Z"/></g>
<g><path style="opacity:0.992" fill="#29a9c2" d="M 278.5,511.5 C 263.167,511.5 247.833,511.5 232.5,511.5C 199.822,508.409 168.822,499.242 139.5,484C 137.939,483.059 136.605,481.892 135.5,480.5C 150.676,469.397 165.343,457.564 179.5,445C 187.127,442.567 194.96,441.4 203,441.5C 239.332,442.81 275.666,442.81 312,441.5C 317.888,441.468 323.721,441.968 329.5,443C 338.5,450.667 347.5,458.333 356.5,466C 362.833,470.333 369.167,474.667 375.5,479C 376.833,480 376.833,481 375.5,482C 345.047,498.432 312.714,508.265 278.5,511.5 Z"/></g>
<g><path style="opacity:0.981" fill="#fae7d6" d="M 81.5,443.5 C 110.33,442.336 139.33,442.17 168.5,443C 155.935,456.372 141.435,467.205 125,475.5C 109.154,466.661 94.6543,455.994 81.5,443.5 Z"/></g>
<g><path style="opacity:0.986" fill="#fae7d6" d="M 341.5,443.5 C 370.669,442.17 400.003,442.17 429.5,443.5C 416.661,456.495 402.161,467.162 386,475.5C 369.655,466.996 354.821,456.329 341.5,443.5 Z"/></g>
<g><path style="opacity:0.95" fill="#8b85dc" d="M 181.5,511.5 C 144.167,511.5 106.833,511.5 69.5,511.5C 69.4142,510.504 69.7476,509.671 70.5,509C 89.3089,502.593 107.642,495.093 125.5,486.5C 144.266,494.889 162.933,503.222 181.5,511.5 Z"/></g>
<g><path style="opacity:0.912" fill="#8b85dc" d="M 442.5,511.5 C 404.833,511.5 367.167,511.5 329.5,511.5C 339.411,506.557 349.745,502.057 360.5,498C 368.954,493.689 377.454,489.523 386,485.5C 404.741,494.677 423.575,503.343 442.5,511.5 Z"/></g>
</svg>
