<?xml version="1.0" encoding="UTF-8"?>
<!DOCTYPE svg PUBLIC "-//W3C//DTD SVG 1.1//EN" "http://www.w3.org/Graphics/SVG/1.1/DTD/svg11.dtd">
<svg xmlns="http://www.w3.org/2000/svg" version="1.1" width="192px" height="192px" style="shape-rendering:geometricPrecision; text-rendering:geometricPrecision; image-rendering:optimizeQuality; fill-rule:evenodd; clip-rule:evenodd" xmlns:xlink="http://www.w3.org/1999/xlink">
<g><path style="opacity:0.944" fill="#ffb900" d="M -0.5,-0.5 C 3.5,-0.5 7.5,-0.5 11.5,-0.5C 22.757,1.42118 33.4237,5.25451 43.5,11C 30.6667,19.8333 19.8333,30.6667 11,43.5C 5.25451,33.4237 1.42118,22.757 -0.5,11.5C -0.5,7.5 -0.5,3.5 -0.5,-0.5 Z"/></g>
<g><path style="opacity:0.929" fill="#8d87dc" d="M 25.5,-0.5 C 39.8333,-0.5 54.1667,-0.5 68.5,-0.5C 61.3639,2.64802 54.1972,5.98135 47,9.5C 39.8028,5.98135 32.6361,2.64802 25.5,-0.5 Z"/></g>
<g><path style="opacity:0.982" fill="#29a9c2" d="M 81.5,-0.5 C 90.8333,-0.5 100.167,-0.5 109.5,-0.5C 120.757,1.42118 131.424,5.25451 141.5,11C 135.877,14.9546 130.543,19.2879 125.5,24C 121.909,25.1516 118.242,25.9849 114.5,26.5C 98.8515,25.7125 83.1848,25.2125 67.5,25C 61.5,20.3333 55.5,15.6667 49.5,11C 59.5763,5.25451 70.243,1.42118 81.5,-0.5 Z"/></g>
<g><path style="opacity:0.936" fill="#8c86dc" d="M 122.5,-0.5 C 137.167,-0.5 151.833,-0.5 166.5,-0.5C 159.257,2.78393 151.924,6.11727 144.5,9.5C 137.107,6.13399 129.774,2.80066 122.5,-0.5 Z"/></g>
<g><path style="opacity:0.942" fill="#ffb900" d="M 179.5,-0.5 C 183.5,-0.5 187.5,-0.5 191.5,-0.5C 191.5,3.5 191.5,7.5 191.5,11.5C 189.579,22.757 185.745,33.4237 180,43.5C 171.167,30.6667 160.333,19.8333 147.5,11C 157.576,5.25451 168.243,1.42118 179.5,-0.5 Z"/></g>
<g><path style="opacity:0.959" fill="#fae7d6" d="M 44.5,12.5 C 51.9549,14.7572 58.2882,18.9238 63.5,25C 52.1667,25.6667 40.8333,25.6667 29.5,25C 34.3981,20.5922 39.3981,16.4255 44.5,12.5 Z"/></g>
<g><path style="opacity:0.978" fill="#fae7d6" d="M 142.5,12.5 C 149.758,15.1376 156.091,19.3043 161.5,25C 150.167,25.6667 138.833,25.6667 127.5,25C 132.398,20.5922 137.398,16.4255 142.5,12.5 Z"/></g>
<g><path style="opacity:0.881" fill="#8b85dc" d="M -0.5,24.5 C 2.01221,30.53 4.84555,36.53 8,42.5C 8.73827,46.2613 8.40493,49.9279 7,53.5C 4.39115,58.525 1.89115,63.525 -0.5,68.5C -0.5,53.8333 -0.5,39.1667 -0.5,24.5 Z"/></g>
<g><path style="opacity:0.892" fill="#8b85dc" d="M 191.5,24.5 C 191.5,39.1667 191.5,53.8333 191.5,68.5C 188.336,61.3332 185.002,54.1665 181.5,47C 184.746,39.3511 188.08,31.8511 191.5,24.5 Z"/></g>
<g><path style="opacity:0.978" fill="#0b7187" d="M 28.5,28.5 C 41.5043,28.3334 54.5043,28.5001 67.5,29C 84.8763,47.2682 93.8763,69.1015 94.5,94.5C 69.0908,93.87 47.2574,84.87 29,67.5C 28.5001,54.5043 28.3334,41.5043 28.5,28.5 Z"/></g>
<g><path style="opacity:0.975" fill="#fae7d6" d="M 71.5,28.5 C 87.8367,28.3334 104.17,28.5001 120.5,29C 108.38,42.7358 100.047,58.5691 95.5,76.5C 90.6442,58.7883 82.6442,42.7883 71.5,28.5 Z"/></g>
<g><path style="opacity:0.98" fill="#0b7187" d="M 123.5,28.5 C 136.5,28.5 149.5,28.5 162.5,28.5C 162.667,41.5043 162.5,54.5043 162,67.5C 144.48,84.006 123.647,93.006 99.5,94.5C 97.2569,93.5882 96.2569,91.9215 96.5,89.5C 98.195,65.7894 107.195,45.4561 123.5,28.5 Z"/></g>
<g><path style="opacity:0.965" fill="#fae7d6" d="M 23.5,30.5 C 24.8286,35.6238 25.4952,41.1238 25.5,47C 25.3333,52.5 25.1667,58 25,63.5C 19.8681,58.536 15.7014,52.8693 12.5,46.5C 15.6827,40.79 19.3494,35.4567 23.5,30.5 Z"/></g>
<g><path style="opacity:0.943" fill="#fae7d6" d="M 165.5,29.5 C 171.14,34.3146 175.474,40.1479 178.5,47C 175.116,53.0566 170.949,58.5566 166,63.5C 165.5,52.1716 165.333,40.8382 165.5,29.5 Z"/></g>
<g><path style="opacity:0.981" fill="#29a9c2" d="M -0.5,109.5 C -0.5,100.167 -0.5,90.8333 -0.5,81.5C 1.42118,70.243 5.25451,59.5763 11,49.5C 16,55.8333 21,62.1667 26,68.5C 26.6667,86.8333 26.6667,105.167 26,123.5C 20.6233,129.208 15.6233,135.208 11,141.5C 5.25451,131.424 1.42118,120.757 -0.5,109.5 Z"/></g>
<g><path style="opacity:0.983" fill="#29a9c2" d="M 191.5,81.5 C 191.5,90.8333 191.5,100.167 191.5,109.5C 189.605,119.852 186.272,129.852 181.5,139.5C 180.635,140.583 179.635,140.749 178.5,140C 174.933,134.376 170.766,129.209 166,124.5C 165.333,105.167 165.333,85.8333 166,66.5C 170.546,61.6226 174.713,56.456 178.5,51C 179.635,50.2506 180.635,50.4173 181.5,51.5C 186.272,61.1483 189.605,71.1483 191.5,81.5 Z"/></g>
<g><path style="opacity:0.959" fill="#fae7d6" d="M 161.5,70.5 C 162.662,86.9949 162.828,103.662 162,120.5C 148.254,108.375 132.42,100.042 114.5,95.5C 132.404,91.0522 148.071,82.7188 161.5,70.5 Z"/></g>
<g><path style="opacity:0.979" fill="#fae7d6" d="M 28.5,70.5 C 42.4731,82.4885 58.4731,90.8219 76.5,95.5C 58.5797,100.042 42.7463,108.375 29,120.5C 28.5001,103.837 28.3334,87.17 28.5,70.5 Z"/></g>
<g><path style="opacity:0.977" fill="#0b7187" d="M 88.5,96.5 C 90.4672,96.2606 92.3005,96.5939 94,97.5C 93.5726,122.513 84.7393,144.013 67.5,162C 54.5043,162.5 41.5043,162.667 28.5,162.5C 28.3334,149.496 28.5001,136.496 29,123.5C 45.8332,107.832 65.6665,98.8325 88.5,96.5 Z"/></g>
<g><path style="opacity:0.978" fill="#0b7187" d="M 97.5,96.5 C 122.496,97.4217 143.996,106.422 162,123.5C 162.5,136.496 162.667,149.496 162.5,162.5C 149.496,162.667 136.496,162.5 123.5,162C 105.775,143.722 97.1078,121.889 97.5,96.5 Z"/></g>
<g><path style="opacity:0.977" fill="#fae7d6" d="M 94.5,114.5 C 95.4972,114.47 96.1639,114.97 96.5,116C 100.573,133.482 108.573,148.815 120.5,162C 104.156,162.833 87.8231,162.666 71.5,161.5C 83.1666,147.833 90.8332,132.166 94.5,114.5 Z"/></g>
<g><path style="opacity:0.871" fill="#8c86dc" d="M 191.5,122.5 C 191.5,137.167 191.5,151.833 191.5,166.5C 188.197,159.221 184.863,151.888 181.5,144.5C 184.88,137.081 188.213,129.748 191.5,122.5 Z"/></g>
<g><path style="opacity:0.874" fill="#8c86dc" d="M -0.5,122.5 C 3.31803,129.479 6.65136,136.813 9.5,144.5C 6.33134,152.048 2.99801,159.382 -0.5,166.5C -0.5,151.833 -0.5,137.167 -0.5,122.5 Z"/></g>
<g><path style="opacity:0.951" fill="#fae7d6" d="M 24.5,127.5 C 25.6593,138.659 25.8259,149.992 25,161.5C 19.8681,156.536 15.7014,150.869 12.5,144.5C 15.772,138.278 19.772,132.611 24.5,127.5 Z"/></g>
<g><path style="opacity:0.927" fill="#fae7d6" d="M 165.5,127.5 C 170.746,132.25 175.079,137.75 178.5,144C 175.443,150.608 171.277,156.442 166,161.5C 165.5,150.172 165.333,138.838 165.5,127.5 Z"/></g>
<g><path style="opacity:0.943" fill="#ffb900" d="M 10.5,191.5 C 6.83333,191.5 3.16667,191.5 -0.5,191.5C -0.5,187.5 -0.5,183.5 -0.5,179.5C 0.992739,172.875 2.82607,166.208 5,159.5C 6.40571,155.017 8.57237,151.017 11.5,147.5C 16,153.167 20.5,158.833 25,164.5C 30.8918,169.859 37.0584,174.859 43.5,179.5C 39.9826,182.428 35.9826,184.594 31.5,186C 24.486,188.295 17.486,190.128 10.5,191.5 Z"/></g>
<g><path style="opacity:0.944" fill="#ffb900" d="M 191.5,179.5 C 191.5,183.5 191.5,187.5 191.5,191.5C 187.5,191.5 183.5,191.5 179.5,191.5C 171.829,189.828 164.163,187.662 156.5,185C 153.13,183.654 150.13,181.821 147.5,179.5C 160.478,171.022 171.311,160.355 180,147.5C 185.747,157.581 189.58,168.248 191.5,179.5 Z"/></g>
<g><path style="opacity:0.932" fill="#fae7d6" d="M 30.5,165.5 C 41.505,165.333 52.505,165.5 63.5,166C 58.536,171.132 52.8693,175.299 46.5,178.5C 39.8933,175.543 34.56,171.21 30.5,165.5 Z"/></g>
<g><path style="opacity:0.982" fill="#29a9c2" d="M 109.5,191.5 C 100.167,191.5 90.8333,191.5 81.5,191.5C 71.5265,189.676 61.8598,186.51 52.5,182C 51.6433,181.311 50.9767,180.478 50.5,179.5C 56.1667,175 61.8333,170.5 67.5,166C 86.5,165.333 105.5,165.333 124.5,166C 129.876,171.044 135.542,175.711 141.5,180C 131.424,185.745 120.757,189.579 109.5,191.5 Z"/></g>
<g><path style="opacity:0.963" fill="#fae7d6" d="M 127.5,166.5 C 138.659,165.341 149.992,165.174 161.5,166C 156.442,171.277 150.608,175.443 144,178.5C 138.072,175.07 132.572,171.07 127.5,166.5 Z"/></g>
<g><path style="opacity:0.916" fill="#8b85dc" d="M 68.5,191.5 C 54.1667,191.5 39.8333,191.5 25.5,191.5C 32.4871,188.099 39.6538,184.766 47,181.5C 54.1972,185.019 61.3639,188.352 68.5,191.5 Z"/></g>
<g><path style="opacity:0.887" fill="#8c86dc" d="M 165.5,191.5 C 151.167,191.5 136.833,191.5 122.5,191.5C 129.748,188.213 137.081,184.88 144.5,181.5C 151.676,184.589 158.676,187.923 165.5,191.5 Z"/></g>
</svg>
