<?xml version="1.0" encoding="UTF-8"?>
<!DOCTYPE svg PUBLIC "-//W3C//DTD SVG 1.1//EN" "http://www.w3.org/Graphics/SVG/1.1/DTD/svg11.dtd">
<svg xmlns="http://www.w3.org/2000/svg" version="1.1" width="180px" height="180px" style="shape-rendering:geometricPrecision; text-rendering:geometricPrecision; image-rendering:optimizeQuality; fill-rule:evenodd; clip-rule:evenodd" xmlns:xlink="http://www.w3.org/1999/xlink">
<g><path style="opacity:0.94" fill="#ffb800" d="M -0.5,-0.5 C 3.5,-0.5 7.5,-0.5 11.5,-0.5C 21.0882,1.53004 30.4215,4.6967 39.5,9C 40.4506,9.71752 40.6172,10.5509 40,11.5C 28.3276,19.3394 18.4943,29.0061 10.5,40.5C 7.90685,37.6522 6.07352,34.3189 5,30.5C 2.6729,24.1718 0.839566,17.8384 -0.5,11.5C -0.5,7.5 -0.5,3.5 -0.5,-0.5 Z"/></g>
<g><path style="opacity:0.921" fill="#8b85dc" d="M 23.5,-0.5 C 37.1667,-0.5 50.8333,-0.5 64.5,-0.5C 57.7006,2.72683 50.7006,5.72683 43.5,8.5C 36.7482,5.45303 30.0816,2.45303 23.5,-0.5 Z"/></g>
<g><path style="opacity:0.967" fill="#29a9c2" d="M 76.5,-0.5 C 85.5,-0.5 94.5,-0.5 103.5,-0.5C 113.747,1.36429 123.414,5.03096 132.5,10.5C 127.649,14.0943 122.983,17.9277 118.5,22C 116.913,22.8624 115.246,23.5291 113.5,24C 97.1667,24.6667 80.8333,24.6667 64.5,24C 58.6414,19.3076 52.6414,14.8076 46.5,10.5C 55.8656,4.82547 65.8656,1.15881 76.5,-0.5 Z"/></g>
<g><path style="opacity:0.919" fill="#8a84dc" d="M 114.5,-0.5 C 128.167,-0.5 141.833,-0.5 155.5,-0.5C 148.964,2.47047 142.297,5.47047 135.5,8.5C 128.323,5.6715 121.323,2.6715 114.5,-0.5 Z"/></g>
<g><path style="opacity:0.94" fill="#ffb900" d="M 167.5,-0.5 C 171.5,-0.5 175.5,-0.5 179.5,-0.5C 179.5,3.5 179.5,7.5 179.5,11.5C 177.469,21.0907 174.302,30.424 170,39.5C 169.282,40.4506 168.449,40.6172 167.5,40C 159.5,28 149.5,18 137.5,10C 147.165,5.16907 157.165,1.66907 167.5,-0.5 Z"/></g>
<g><path style="opacity:0.968" fill="#fae7d6" d="M 42.5,11.5 C 49.0584,13.8707 54.7251,17.704 59.5,23C 48.8333,23.6667 38.1667,23.6667 27.5,23C 32.2084,18.6617 37.2084,14.8284 42.5,11.5 Z"/></g>
<g><path style="opacity:0.963" fill="#fae7d6" d="M 134.5,11.5 C 137.09,12.1283 139.423,13.295 141.5,15C 144.833,17.6667 148.167,20.3333 151.5,23C 140.833,23.6667 130.167,23.6667 119.5,23C 124.208,18.6617 129.208,14.8284 134.5,11.5 Z"/></g>
<g><path style="opacity:0.886" fill="#8b85dc" d="M -0.5,23.5 C 3.14219,29.9603 6.14219,36.7936 8.5,44C 5.58681,50.9818 2.58681,57.8151 -0.5,64.5C -0.5,50.8333 -0.5,37.1667 -0.5,23.5 Z"/></g>
<g><path style="opacity:0.886" fill="#8a85dc" d="M 179.5,23.5 C 179.5,37.1667 179.5,50.8333 179.5,64.5C 176.329,57.6772 173.329,50.6772 170.5,43.5C 173.522,36.7373 176.522,30.0707 179.5,23.5 Z"/></g>
<g><path style="opacity:0.972" fill="#0b7187" d="M 26.5,26.5 C 38.8378,26.3335 51.1712,26.5001 63.5,27C 79.6837,44.2148 88.0171,64.7148 88.5,88.5C 64.3076,88.1431 43.8076,79.4764 27,62.5C 26.5001,50.5046 26.3335,38.5046 26.5,26.5 Z"/></g>
<g><path style="opacity:0.945" fill="#fae7d6" d="M 66.5,27.5 C 81.6718,26.1736 97.0052,26.1736 112.5,27.5C 101.69,40.4518 94.0228,55.1185 89.5,71.5C 85.4704,54.7683 77.8037,40.1016 66.5,27.5 Z"/></g>
<g><path style="opacity:0.974" fill="#0b7187" d="M 116.5,26.5 C 128.5,26.5 140.5,26.5 152.5,26.5C 152.667,38.8378 152.5,51.1712 152,63.5C 134.888,79.8963 114.555,87.8963 91,87.5C 91.3069,63.5742 99.8069,43.2408 116.5,26.5 Z"/></g>
<g><path style="opacity:0.962" fill="#fae7d6" d="M 21.5,28.5 C 22.5,28.5 23.5,28.5 24.5,28.5C 24.8319,38.8548 24.4986,49.1881 23.5,59.5C 18.6648,55.0046 14.6648,49.838 11.5,44C 14.658,38.6843 17.9914,33.5176 21.5,28.5 Z"/></g>
<g><path style="opacity:0.966" fill="#f9e6d6" d="M 154.5,27.5 C 159.772,32.0296 164.106,37.3629 167.5,43.5C 164.461,49.5874 160.461,54.9208 155.5,59.5C 154.501,48.8541 154.168,38.1874 154.5,27.5 Z"/></g>
<g><path style="opacity:0.981" fill="#29a9c2" d="M -0.5,103.5 C -0.5,94.1667 -0.5,84.8333 -0.5,75.5C 1.53243,65.9045 4.69909,56.5712 9,47.5C 9.71752,46.5494 10.5509,46.3828 11.5,47C 15.0669,52.624 19.2335,57.7907 24,62.5C 24.6667,80.5 24.6667,98.5 24,116.5C 19.2335,121.209 15.0669,126.376 11.5,132C 10.6683,132.688 10.0016,132.521 9.5,131.5C 4.74163,122.551 1.40829,113.217 -0.5,103.5 Z"/></g>
<g><path style="opacity:0.977" fill="#29a9c2" d="M 179.5,75.5 C 179.5,84.5 179.5,93.5 179.5,102.5C 178.007,109.125 176.174,115.792 174,122.5C 172.624,126.173 170.79,129.506 168.5,132.5C 164.481,126.469 159.981,120.802 155,115.5C 154.333,98.1667 154.333,80.8333 155,63.5C 159.935,58.5675 164.101,53.0675 167.5,47C 168.167,46.3333 168.833,46.3333 169.5,47C 174.156,56.1407 177.49,65.6407 179.5,75.5 Z"/></g>
<g><path style="opacity:0.969" fill="#fae7d6" d="M 26.5,66.5 C 39.8883,77.0288 54.8883,84.6955 71.5,89.5C 54.9682,93.7219 40.3016,101.389 27.5,112.5C 26.5006,97.1811 26.1673,81.8478 26.5,66.5 Z"/></g>
<g><path style="opacity:0.978" fill="#fae7d6" d="M 150.5,66.5 C 151.831,73.803 152.498,81.4697 152.5,89.5C 152.167,97.1667 151.833,104.833 151.5,112.5C 138.698,101.389 124.032,93.7219 107.5,89.5C 118.021,86.6034 128.021,82.4368 137.5,77C 142.311,74.0151 146.644,70.5151 150.5,66.5 Z"/></g>
<g><path style="opacity:0.972" fill="#0b7187" d="M 80.5,90.5 C 83.1194,90.2317 85.6194,90.565 88,91.5C 87.7101,114.906 79.5434,135.072 63.5,152C 51.1712,152.5 38.8378,152.667 26.5,152.5C 26.3335,140.162 26.5001,127.829 27,115.5C 42.2909,101.603 60.1243,93.2697 80.5,90.5 Z"/></g>
<g><path style="opacity:0.971" fill="#0b7187" d="M 91.5,90.5 C 114.897,91.2895 135.063,99.6228 152,115.5C 152.5,127.829 152.667,140.162 152.5,152.5C 140.162,152.667 127.829,152.5 115.5,152C 98.9543,134.756 90.9543,114.256 91.5,90.5 Z"/></g>
<g><path style="opacity:0.948" fill="#fae7d6" d="M 88.5,107.5 C 89.4972,107.47 90.1639,107.97 90.5,109C 94.5557,124.947 101.889,139.114 112.5,151.5C 97.1667,152.833 81.8333,152.833 66.5,151.5C 78.0807,139.005 85.414,124.339 88.5,107.5 Z"/></g>
<g><path style="opacity:0.869" fill="#8c86dc" d="M -0.5,114.5 C 3.0569,121.142 6.0569,128.142 8.5,135.5C 5.73579,142.685 2.73579,149.685 -0.5,156.5C -0.5,142.5 -0.5,128.5 -0.5,114.5 Z"/></g>
<g><path style="opacity:0.867" fill="#8b85dc" d="M 179.5,114.5 C 179.5,128.5 179.5,142.5 179.5,156.5C 176.229,149.542 173.229,142.375 170.5,135C 173.406,128.031 176.406,121.197 179.5,114.5 Z"/></g>
<g><path style="opacity:0.963" fill="#f9e6d6" d="M 154.5,119.5 C 156.371,119.859 157.871,120.859 159,122.5C 162.03,126.698 164.863,131.032 167.5,135.5C 163.987,141.191 159.987,146.524 155.5,151.5C 154.501,140.854 154.168,130.187 154.5,119.5 Z"/></g>
<g><path style="opacity:0.96" fill="#fae7d6" d="M 22.5,119.5 C 23.8282,124.456 24.4949,129.789 24.5,135.5C 24.3333,140.833 24.1667,146.167 24,151.5C 19.109,146.71 14.9423,141.377 11.5,135.5C 14.6827,129.79 18.3494,124.457 22.5,119.5 Z"/></g>
<g><path style="opacity:0.94" fill="#ffb900" d="M 10.5,179.5 C 6.83333,179.5 3.16667,179.5 -0.5,179.5C -0.5,175.833 -0.5,172.167 -0.5,168.5C 1.32377,158.526 4.49044,148.86 9,139.5C 9.71752,138.549 10.5509,138.383 11.5,139C 19.3394,150.672 29.0061,160.506 40.5,168.5C 37.6522,171.093 34.3189,172.926 30.5,174C 23.7919,176.174 17.1252,178.007 10.5,179.5 Z"/></g>
<g><path style="opacity:0.942" fill="#ffb800" d="M 179.5,167.5 C 179.5,171.5 179.5,175.5 179.5,179.5C 175.5,179.5 171.5,179.5 167.5,179.5C 157.912,177.47 148.578,174.303 139.5,170C 138.549,169.282 138.383,168.449 139,167.5C 150.672,159.661 160.506,149.994 168.5,138.5C 170.485,140.457 171.985,142.79 173,145.5C 175.719,152.81 177.886,160.143 179.5,167.5 Z"/></g>
<g><path style="opacity:0.858" fill="#fae7d6" d="M 28.5,154.5 C 38.8548,154.168 49.1881,154.501 59.5,155.5C 55.0046,160.335 49.838,164.335 44,167.5C 40.5,165.333 37,163.167 33.5,161C 31.2101,159.223 29.5434,157.056 28.5,154.5 Z"/></g>
<g><path style="opacity:0.962" fill="#29a9c2" d="M 102.5,179.5 C 93.5,179.5 84.5,179.5 75.5,179.5C 65.4133,177.523 55.7466,174.023 46.5,169C 51.1667,165 55.8333,161 60.5,157C 62.087,156.138 63.7536,155.471 65.5,155C 82.1667,154.333 98.8333,154.333 115.5,155C 120.802,159.981 126.469,164.481 132.5,168.5C 123.13,174.176 113.13,177.843 102.5,179.5 Z"/></g>
<g><path style="opacity:0.953" fill="#fae7d6" d="M 119.5,156.5 C 129.992,155.341 140.659,155.175 151.5,156C 146.343,160.078 141.01,163.912 135.5,167.5C 129.79,164.317 124.457,160.651 119.5,156.5 Z"/></g>
<g><path style="opacity:0.902" fill="#8b85dc" d="M 63.5,179.5 C 50.1667,179.5 36.8333,179.5 23.5,179.5C 30.1972,176.406 37.0305,173.406 44,170.5C 50.7272,173.115 57.2272,176.115 63.5,179.5 Z"/></g>
<g><path style="opacity:0.882" fill="#8b85dc" d="M 155.5,179.5 C 142.167,179.5 128.833,179.5 115.5,179.5C 121.773,176.115 128.273,173.115 135,170.5C 141.969,173.406 148.803,176.406 155.5,179.5 Z"/></g>
</svg>
