<?xml version="1.0" encoding="UTF-8"?>
<!DOCTYPE svg PUBLIC "-//W3C//DTD SVG 1.1//EN" "http://www.w3.org/Graphics/SVG/1.1/DTD/svg11.dtd">
<svg xmlns="http://www.w3.org/2000/svg" version="1.1" width="32px" height="32px" style="shape-rendering:geometricPrecision; text-rendering:geometricPrecision; image-rendering:optimizeQuality; fill-rule:evenodd; clip-rule:evenodd" xmlns:xlink="http://www.w3.org/1999/xlink">
<g><path style="opacity:0.917" fill="#fcb913" d="M -0.5,-0.5 C 1.16667,-0.5 2.83333,-0.5 4.5,-0.5C 5.16667,0.166667 5.83333,0.833333 6.5,1.5C 5.83333,2.5 5.16667,3.5 4.5,4.5C 3.5,5.16667 2.5,5.83333 1.5,6.5C 0.833333,5.83333 0.166667,5.16667 -0.5,4.5C -0.5,2.83333 -0.5,1.16667 -0.5,-0.5 Z"/></g>
<g><path style="opacity:0.92" fill="#8886d9" d="M 4.5,-0.5 C 6.5,-0.5 8.5,-0.5 10.5,-0.5C 9.48631,0.673734 8.15298,1.3404 6.5,1.5C 5.83333,0.833333 5.16667,0.166667 4.5,-0.5 Z"/></g>
<g><path style="opacity:0.948" fill="#68b3c3" d="M 10.5,-0.5 C 13.8333,-0.5 17.1667,-0.5 20.5,-0.5C 21.5137,0.673734 22.847,1.3404 24.5,1.5C 25.1667,2.5 25.8333,3.5 26.5,4.5C 24.1667,4.5 21.8333,4.5 19.5,4.5C 16.8333,4.5 14.1667,4.5 11.5,4.5C 9.16667,4.5 6.83333,4.5 4.5,4.5C 5.16667,3.5 5.83333,2.5 6.5,1.5C 8.15298,1.3404 9.48631,0.673734 10.5,-0.5 Z"/></g>
<g><path style="opacity:0.921" fill="#8985d9" d="M 20.5,-0.5 C 22.5,-0.5 24.5,-0.5 26.5,-0.5C 25.8333,0.166667 25.1667,0.833333 24.5,1.5C 22.847,1.3404 21.5137,0.673734 20.5,-0.5 Z"/></g>
<g><path style="opacity:0.884" fill="#fcb816" d="M 26.5,-0.5 C 28.1667,-0.5 29.8333,-0.5 31.5,-0.5C 31.5,1.16667 31.5,2.83333 31.5,4.5C 30.8333,5.16667 30.1667,5.83333 29.5,6.5C 28.5,5.83333 27.5,5.16667 26.5,4.5C 25.8333,3.5 25.1667,2.5 24.5,1.5C 25.1667,0.833333 25.8333,0.166667 26.5,-0.5 Z"/></g>
<g><path style="opacity:0.814" fill="#8886d9" d="M -0.5,4.5 C 0.166667,5.16667 0.833333,5.83333 1.5,6.5C 1.3404,8.15298 0.673734,9.48631 -0.5,10.5C -0.5,8.5 -0.5,6.5 -0.5,4.5 Z"/></g>
<g><path style="opacity:0.953" fill="#157488" d="M 4.5,4.5 C 6.83333,4.5 9.16667,4.5 11.5,4.5C 13.0783,6.6522 14.4117,8.98554 15.5,11.5C 16.5883,8.98554 17.9217,6.6522 19.5,4.5C 21.8333,4.5 24.1667,4.5 26.5,4.5C 26.5,6.5 26.5,8.5 26.5,10.5C 26.5,10.8333 26.5,11.1667 26.5,11.5C 24.3478,13.0783 22.0145,14.4117 19.5,15.5C 22.0145,16.5883 24.3478,17.9217 26.5,19.5C 26.5,19.8333 26.5,20.1667 26.5,20.5C 26.5,22.5 26.5,24.5 26.5,26.5C 24.1667,26.5 21.8333,26.5 19.5,26.5C 17.9217,24.3478 16.5883,22.0145 15.5,19.5C 14.4117,22.0145 13.0783,24.3478 11.5,26.5C 11.1667,26.5 10.8333,26.5 10.5,26.5C 8.5,26.5 6.5,26.5 4.5,26.5C 4.5,24.1667 4.5,21.8333 4.5,19.5C 6.6522,17.9217 8.98554,16.5883 11.5,15.5C 8.98554,14.4117 6.6522,13.0783 4.5,11.5C 4.5,9.16667 4.5,6.83333 4.5,4.5 Z"/></g>
<g><path style="opacity:0.957" fill="#f7e6d5" d="M 11.5,4.5 C 14.1667,4.5 16.8333,4.5 19.5,4.5C 17.9217,6.6522 16.5883,8.98554 15.5,11.5C 14.4117,8.98554 13.0783,6.6522 11.5,4.5 Z"/></g>
<g><path style="opacity:0.941" fill="#e1dbce" d="M 26.5,4.5 C 27.5,5.16667 28.5,5.83333 29.5,6.5C 29.5,7.16667 29.5,7.83333 29.5,8.5C 28.5,9.16667 27.5,9.83333 26.5,10.5C 26.5,8.5 26.5,6.5 26.5,4.5 Z"/></g>
<g><path style="opacity:0.897" fill="#8886da" d="M 31.5,4.5 C 31.5,6.5 31.5,8.5 31.5,10.5C 30.8333,9.83333 30.1667,9.16667 29.5,8.5C 29.5,7.83333 29.5,7.16667 29.5,6.5C 30.1667,5.83333 30.8333,5.16667 31.5,4.5 Z"/></g>
<g><path style="opacity:0.944" fill="#6cb5c5" d="M 4.5,4.5 C 4.5,6.83333 4.5,9.16667 4.5,11.5C 4.5,14.1667 4.5,16.8333 4.5,19.5C 4.5,21.8333 4.5,24.1667 4.5,26.5C 3.5,25.8333 2.5,25.1667 1.5,24.5C 1.3404,22.847 0.673734,21.5137 -0.5,20.5C -0.5,17.1667 -0.5,13.8333 -0.5,10.5C 0.673734,9.48631 1.3404,8.15298 1.5,6.5C 2.5,5.83333 3.5,5.16667 4.5,4.5 Z"/></g>
<g><path style="opacity:0.935" fill="#33aac2" d="M 29.5,8.5 C 30.1667,9.16667 30.8333,9.83333 31.5,10.5C 31.5,13.8333 31.5,17.1667 31.5,20.5C 30.8333,21.1667 30.1667,21.8333 29.5,22.5C 28.5,21.8333 27.5,21.1667 26.5,20.5C 26.5,20.1667 26.5,19.8333 26.5,19.5C 26.5,16.8333 26.5,14.1667 26.5,11.5C 26.5,11.1667 26.5,10.8333 26.5,10.5C 27.5,9.83333 28.5,9.16667 29.5,8.5 Z"/></g>
<g><path style="opacity:0.914" fill="#f8e6d5" d="M 4.5,11.5 C 6.6522,13.0783 8.98554,14.4117 11.5,15.5C 8.98554,16.5883 6.6522,17.9217 4.5,19.5C 4.5,16.8333 4.5,14.1667 4.5,11.5 Z"/></g>
<g><path style="opacity:0.923" fill="#f8e6d5" d="M 26.5,11.5 C 26.5,14.1667 26.5,16.8333 26.5,19.5C 24.3478,17.9217 22.0145,16.5883 19.5,15.5C 22.0145,14.4117 24.3478,13.0783 26.5,11.5 Z"/></g>
<g><path style="opacity:0.924" fill="#f8e6d5" d="M 19.5,26.5 C 16.8333,26.5 14.1667,26.5 11.5,26.5C 13.0783,24.3478 14.4117,22.0145 15.5,19.5C 16.5883,22.0145 17.9217,24.3478 19.5,26.5 Z"/></g>
<g><path style="opacity:0.894" fill="#8986da" d="M -0.5,20.5 C 0.673734,21.5137 1.3404,22.847 1.5,24.5C 0.833333,25.1667 0.166667,25.8333 -0.5,26.5C -0.5,24.5 -0.5,22.5 -0.5,20.5 Z"/></g>
<g><path style="opacity:0.863" fill="#e1dace" d="M 26.5,20.5 C 27.5,21.1667 28.5,21.8333 29.5,22.5C 29.5,23.1667 29.5,23.8333 29.5,24.5C 28.5,25.1667 27.5,25.8333 26.5,26.5C 26.5,24.5 26.5,22.5 26.5,20.5 Z"/></g>
<g><path style="opacity:0.883" fill="#8986da" d="M 31.5,20.5 C 31.5,22.5 31.5,24.5 31.5,26.5C 30.8333,25.8333 30.1667,25.1667 29.5,24.5C 29.5,23.8333 29.5,23.1667 29.5,22.5C 30.1667,21.8333 30.8333,21.1667 31.5,20.5 Z"/></g>
<g><path style="opacity:0.888" fill="#fbb815" d="M 1.5,24.5 C 2.5,25.1667 3.5,25.8333 4.5,26.5C 5.16667,27.5 5.83333,28.5 6.5,29.5C 5.83333,30.1667 5.16667,30.8333 4.5,31.5C 2.83333,31.5 1.16667,31.5 -0.5,31.5C -0.5,29.8333 -0.5,28.1667 -0.5,26.5C 0.166667,25.8333 0.833333,25.1667 1.5,24.5 Z"/></g>
<g><path style="opacity:0.891" fill="#fcb811" d="M 29.5,24.5 C 30.1667,25.1667 30.8333,25.8333 31.5,26.5C 31.5,28.1667 31.5,29.8333 31.5,31.5C 29.8333,31.5 28.1667,31.5 26.5,31.5C 25.8333,30.8333 25.1667,30.1667 24.5,29.5C 25.1667,28.5 25.8333,27.5 26.5,26.5C 27.5,25.8333 28.5,25.1667 29.5,24.5 Z"/></g>
<g><path style="opacity:0.936" fill="#e2dbce" d="M 4.5,26.5 C 6.5,26.5 8.5,26.5 10.5,26.5C 9.83333,27.5 9.16667,28.5 8.5,29.5C 7.83333,29.5 7.16667,29.5 6.5,29.5C 5.83333,28.5 5.16667,27.5 4.5,26.5 Z"/></g>
<g><path style="opacity:0.949" fill="#5ab2c4" d="M 10.5,26.5 C 10.8333,26.5 11.1667,26.5 11.5,26.5C 14.1667,26.5 16.8333,26.5 19.5,26.5C 21.8333,26.5 24.1667,26.5 26.5,26.5C 25.8333,27.5 25.1667,28.5 24.5,29.5C 22.847,29.6596 21.5137,30.3263 20.5,31.5C 17.1667,31.5 13.8333,31.5 10.5,31.5C 9.83333,30.8333 9.16667,30.1667 8.5,29.5C 9.16667,28.5 9.83333,27.5 10.5,26.5 Z"/></g>
<g><path style="opacity:0.843" fill="#8886da" d="M 6.5,29.5 C 7.16667,29.5 7.83333,29.5 8.5,29.5C 9.16667,30.1667 9.83333,30.8333 10.5,31.5C 8.5,31.5 6.5,31.5 4.5,31.5C 5.16667,30.8333 5.83333,30.1667 6.5,29.5 Z"/></g>
<g><path style="opacity:0.776" fill="#8987da" d="M 24.5,29.5 C 25.1667,30.1667 25.8333,30.8333 26.5,31.5C 24.5,31.5 22.5,31.5 20.5,31.5C 21.5137,30.3263 22.847,29.6596 24.5,29.5 Z"/></g>
</svg>
