<?xml version="1.0" encoding="UTF-8"?>
<!DOCTYPE svg PUBLIC "-//W3C//DTD SVG 1.1//EN" "http://www.w3.org/Graphics/SVG/1.1/DTD/svg11.dtd">
<svg xmlns="http://www.w3.org/2000/svg" version="1.1" width="16px" height="16px" style="shape-rendering:geometricPrecision; text-rendering:geometricPrecision; image-rendering:optimizeQuality; fill-rule:evenodd; clip-rule:evenodd" xmlns:xlink="http://www.w3.org/1999/xlink">
<g><path style="opacity:0.875" fill="#fab713" d="M -0.5,-0.5 C 0.5,-0.5 1.5,-0.5 2.5,-0.5C 2.57298,1.02694 1.90632,2.02694 0.5,2.5C 0.166667,2.5 -0.166667,2.5 -0.5,2.5C -0.5,1.5 -0.5,0.5 -0.5,-0.5 Z"/></g>
<g><path style="opacity:0.939" fill="#70a7ba" d="M 2.5,-0.5 C 5.83333,-0.5 9.16667,-0.5 12.5,-0.5C 12.427,1.02694 13.0937,2.02694 14.5,2.5C 14.6716,3.49162 14.3382,4.15829 13.5,4.5C 12.4739,3.14702 11.1405,2.14702 9.5,1.5C 8.16667,1.5 6.83333,1.5 5.5,1.5C 3.85946,2.14702 2.52613,3.14702 1.5,4.5C 0.661754,4.15829 0.32842,3.49162 0.5,2.5C 1.90632,2.02694 2.57298,1.02694 2.5,-0.5 Z"/></g>
<g><path style="opacity:0.871" fill="#f9b618" d="M 12.5,-0.5 C 13.5,-0.5 14.5,-0.5 15.5,-0.5C 15.5,0.5 15.5,1.5 15.5,2.5C 15.1667,2.5 14.8333,2.5 14.5,2.5C 13.0937,2.02694 12.427,1.02694 12.5,-0.5 Z"/></g>
<g><path style="opacity:0.992" fill="#197589" d="M 5.5,1.5 C 6.10978,2.39105 6.44312,3.39105 6.5,4.5C 6.83333,5.16667 7.16667,5.83333 7.5,6.5C 6.66175,6.84171 6.32842,7.50838 6.5,8.5C 5.83333,7.83333 5.16667,7.16667 4.5,6.5C 3.60895,5.89022 2.60895,5.55688 1.5,5.5C 1.5,5.16667 1.5,4.83333 1.5,4.5C 2.52613,3.14702 3.85946,2.14702 5.5,1.5 Z"/></g>
<g><path style="opacity:0.993" fill="#378091" d="M 9.5,1.5 C 11.1405,2.14702 12.4739,3.14702 13.5,4.5C 13.5,4.83333 13.5,5.16667 13.5,5.5C 11.8102,5.85637 10.8102,6.85637 10.5,8.5C 9.77765,7.44886 8.77765,6.78219 7.5,6.5C 7.16667,5.83333 6.83333,5.16667 6.5,4.5C 8.14363,4.18982 9.14363,3.18982 9.5,1.5 Z"/></g>
<g><path style="opacity:0.712" fill="#ebe1d3" d="M 5.5,1.5 C 6.83333,1.5 8.16667,1.5 9.5,1.5C 9.14363,3.18982 8.14363,4.18982 6.5,4.5C 6.44312,3.39105 6.10978,2.39105 5.5,1.5 Z"/></g>
<g><path style="opacity:0.942" fill="#4ca1c5" d="M -0.5,2.5 C -0.166667,2.5 0.166667,2.5 0.5,2.5C 0.32842,3.49162 0.661754,4.15829 1.5,4.5C 1.5,4.83333 1.5,5.16667 1.5,5.5C 1.5,6.83333 1.5,8.16667 1.5,9.5C 1.5,9.83333 1.5,10.1667 1.5,10.5C 0.661754,10.8417 0.32842,11.5084 0.5,12.5C 0.166667,12.5 -0.166667,12.5 -0.5,12.5C -0.5,9.16667 -0.5,5.83333 -0.5,2.5 Z"/></g>
<g><path style="opacity:0.946" fill="#48a2c5" d="M 14.5,2.5 C 14.8333,2.5 15.1667,2.5 15.5,2.5C 15.5,5.83333 15.5,9.16667 15.5,12.5C 15.1667,12.5 14.8333,12.5 14.5,12.5C 14.6716,11.5084 14.3382,10.8417 13.5,10.5C 13.5,10.1667 13.5,9.83333 13.5,9.5C 13.5,8.16667 13.5,6.83333 13.5,5.5C 13.5,5.16667 13.5,4.83333 13.5,4.5C 14.3382,4.15829 14.6716,3.49162 14.5,2.5 Z"/></g>
<g><path style="opacity:0.712" fill="#e1dccf" d="M 1.5,5.5 C 2.60895,5.55688 3.60895,5.89022 4.5,6.5C 4.5,8.5 3.5,9.5 1.5,9.5C 1.5,8.16667 1.5,6.83333 1.5,5.5 Z"/></g>
<g><path style="opacity:0.998" fill="#e6dfd1" d="M 13.5,5.5 C 13.5,6.83333 13.5,8.16667 13.5,9.5C 12.391,9.44312 11.391,9.10978 10.5,8.5C 10.8102,6.85637 11.8102,5.85637 13.5,5.5 Z"/></g>
<g><path style="opacity:0.992" fill="#357f90" d="M 4.5,6.5 C 5.16667,7.16667 5.83333,7.83333 6.5,8.5C 7.16667,9.16667 7.83333,9.83333 8.5,10.5C 6.85637,10.8102 5.85637,11.8102 5.5,13.5C 5.16667,13.5 4.83333,13.5 4.5,13.5C 3.5,12.5 2.5,11.5 1.5,10.5C 1.5,10.1667 1.5,9.83333 1.5,9.5C 3.5,9.5 4.5,8.5 4.5,6.5 Z"/></g>
<g><path style="opacity:0.992" fill="#0e7388" d="M 7.5,6.5 C 8.77765,6.78219 9.77765,7.44886 10.5,8.5C 11.391,9.10978 12.391,9.44312 13.5,9.5C 13.5,9.83333 13.5,10.1667 13.5,10.5C 12.5,11.5 11.5,12.5 10.5,13.5C 10.1667,13.5 9.83333,13.5 9.5,13.5C 9.44312,12.391 9.10978,11.391 8.5,10.5C 7.83333,9.83333 7.16667,9.16667 6.5,8.5C 6.32842,7.50838 6.66175,6.84171 7.5,6.5 Z"/></g>
<g><path style="opacity:0.998" fill="#e7dfd2" d="M 8.5,10.5 C 9.10978,11.391 9.44312,12.391 9.5,13.5C 8.16667,13.5 6.83333,13.5 5.5,13.5C 5.85637,11.8102 6.85637,10.8102 8.5,10.5 Z"/></g>
<g><path style="opacity:0.602" fill="#86aca9" d="M 1.5,10.5 C 2.5,11.5 3.5,12.5 4.5,13.5C 4.15829,14.3382 3.49162,14.6716 2.5,14.5C 2.16667,13.5 1.5,12.8333 0.5,12.5C 0.32842,11.5084 0.661754,10.8417 1.5,10.5 Z"/></g>
<g><path style="opacity:0.596" fill="#89aba8" d="M 13.5,10.5 C 14.3382,10.8417 14.6716,11.5084 14.5,12.5C 13.5,12.8333 12.8333,13.5 12.5,14.5C 11.5084,14.6716 10.8417,14.3382 10.5,13.5C 11.5,12.5 12.5,11.5 13.5,10.5 Z"/></g>
<g><path style="opacity:0.863" fill="#f9b618" d="M -0.5,12.5 C -0.166667,12.5 0.166667,12.5 0.5,12.5C 1.5,12.8333 2.16667,13.5 2.5,14.5C 2.5,14.8333 2.5,15.1667 2.5,15.5C 1.5,15.5 0.5,15.5 -0.5,15.5C -0.5,14.5 -0.5,13.5 -0.5,12.5 Z"/></g>
<g><path style="opacity:0.938" fill="#4da1c6" d="M 4.5,13.5 C 4.83333,13.5 5.16667,13.5 5.5,13.5C 6.83333,13.5 8.16667,13.5 9.5,13.5C 9.83333,13.5 10.1667,13.5 10.5,13.5C 10.8417,14.3382 11.5084,14.6716 12.5,14.5C 12.5,14.8333 12.5,15.1667 12.5,15.5C 9.16667,15.5 5.83333,15.5 2.5,15.5C 2.5,15.1667 2.5,14.8333 2.5,14.5C 3.49162,14.6716 4.15829,14.3382 4.5,13.5 Z"/></g>
<g><path style="opacity:0.875" fill="#f7b51a" d="M 14.5,12.5 C 14.8333,12.5 15.1667,12.5 15.5,12.5C 15.5,13.5 15.5,14.5 15.5,15.5C 14.5,15.5 13.5,15.5 12.5,15.5C 12.5,15.1667 12.5,14.8333 12.5,14.5C 12.8333,13.5 13.5,12.8333 14.5,12.5 Z"/></g>
</svg>
