<?xml version="1.0" encoding="UTF-8"?>
<!DOCTYPE svg PUBLIC "-//W3C//DTD SVG 1.1//EN" "http://www.w3.org/Graphics/SVG/1.1/DTD/svg11.dtd">
<svg xmlns="http://www.w3.org/2000/svg" version="1.1" width="270px" height="270px" style="shape-rendering:geometricPrecision; text-rendering:geometricPrecision; image-rendering:optimizeQuality; fill-rule:evenodd; clip-rule:evenodd" xmlns:xlink="http://www.w3.org/1999/xlink">
<g><path style="opacity:0.92" fill="#ffb900" d="M 90.5,51.5 C 91.7804,52.9313 93.4471,53.5979 95.5,53.5C 95.8417,54.3382 96.5084,54.6716 97.5,54.5C 97.8417,55.3382 98.5084,55.6716 99.5,55.5C 100.833,56.5 100.833,57.5 99.5,58.5C 98.8333,58.5 98.5,58.8333 98.5,59.5C 97.8333,59.5 97.5,59.8333 97.5,60.5C 96.5084,60.3284 95.8417,60.6618 95.5,61.5C 94.8333,61.5 94.5,61.8333 94.5,62.5C 93.8333,62.5 93.5,62.8333 93.5,63.5C 92.8333,63.5 92.5,63.8333 92.5,64.5C 89.5,65.5 87.5,67.5 86.5,70.5C 85.8333,70.5 85.5,70.8333 85.5,71.5C 84.8333,71.5 84.5,71.8333 84.5,72.5C 83.8333,72.5 83.5,72.8333 83.5,73.5C 82.6618,73.8417 82.3284,74.5084 82.5,75.5C 81.8333,75.5 81.5,75.8333 81.5,76.5C 80.8333,76.5 80.5,76.8333 80.5,77.5C 80.5,77.8333 80.5,78.1667 80.5,78.5C 79.391,78.4431 78.391,78.1098 77.5,77.5C 77.6716,76.5084 77.3382,75.8417 76.5,75.5C 76.6716,74.5084 76.3382,73.8417 75.5,73.5C 75.7373,72.209 75.404,71.209 74.5,70.5C 72.3369,63.6806 71.3369,56.6806 71.5,49.5C 77.9182,49.4418 84.2515,50.1084 90.5,51.5 Z"/></g>
<g><path style="opacity:0.91" fill="#8a84db" d="M 114.5,51.5 C 113.209,51.2627 112.209,51.596 111.5,52.5C 110.508,52.3284 109.842,52.6618 109.5,53.5C 108.508,53.3284 107.842,53.6618 107.5,54.5C 106.508,54.3284 105.842,54.6618 105.5,55.5C 103.5,56.8333 101.5,56.8333 99.5,55.5C 99.1583,54.6618 98.4916,54.3284 97.5,54.5C 97.1583,53.6618 96.4916,53.3284 95.5,53.5C 94.2196,52.0687 92.5529,51.4021 90.5,51.5C 90.0825,50.7784 89.4158,50.2784 88.5,50C 98.1667,49.3333 107.833,49.3333 117.5,50C 116.263,50.2321 115.263,50.7321 114.5,51.5 Z"/></g>
<g><path style="opacity:0.971" fill="#29a9c2" d="M 154.5,51.5 C 155.78,52.9313 157.447,53.5979 159.5,53.5C 159.842,54.3382 160.508,54.6716 161.5,54.5C 161.842,55.3382 162.508,55.6716 163.5,55.5C 164.11,56.391 164.443,57.391 164.5,58.5C 163.508,58.3284 162.842,58.6618 162.5,59.5C 161.833,59.5 161.5,59.8333 161.5,60.5C 160.508,60.3284 159.842,60.6618 159.5,61.5C 158.833,61.5 158.5,61.8333 158.5,62.5C 157.833,62.5 157.5,62.8333 157.5,63.5C 156.833,63.5 156.5,63.8333 156.5,64.5C 155.833,64.5 155.5,64.8333 155.5,65.5C 152.092,66.5594 148.592,67.2261 145,67.5C 136.272,66.2878 127.605,66.2878 119,67.5C 117.275,66.536 115.441,65.8693 113.5,65.5C 113.5,64.8333 113.167,64.5 112.5,64.5C 112.5,63.8333 112.167,63.5 111.5,63.5C 111.5,62.8333 111.167,62.5 110.5,62.5C 110.5,61.8333 110.167,61.5 109.5,61.5C 109.158,60.6618 108.492,60.3284 107.5,60.5C 107.5,59.8333 107.167,59.5 106.5,59.5C 106.158,58.6618 105.492,58.3284 104.5,58.5C 104.557,57.391 104.89,56.391 105.5,55.5C 106.492,55.6716 107.158,55.3382 107.5,54.5C 108.492,54.6716 109.158,54.3382 109.5,53.5C 110.492,53.6716 111.158,53.3382 111.5,52.5C 112.791,52.7373 113.791,52.404 114.5,51.5C 127.825,48.8616 141.158,48.8616 154.5,51.5 Z"/></g>
<g><path style="opacity:0.892" fill="#8a85dc" d="M 176.5,52.5 C 175.209,52.2627 174.209,52.596 173.5,53.5C 172.508,53.3284 171.842,53.6618 171.5,54.5C 170.508,54.3284 169.842,54.6618 169.5,55.5C 167.5,55.5 165.5,55.5 163.5,55.5C 163.158,54.6618 162.492,54.3284 161.5,54.5C 161.158,53.6618 160.492,53.3284 159.5,53.5C 158.22,52.0687 156.553,51.4021 154.5,51.5C 154.082,50.7784 153.416,50.2784 152.5,50C 162.167,49.3333 171.833,49.3333 181.5,50C 179.509,50.3736 177.842,51.207 176.5,52.5 Z"/></g>
<g><path style="opacity:0.92" fill="#ffb900" d="M 194.5,70.5 C 193.596,71.209 193.263,72.209 193.5,73.5C 192.662,73.8417 192.328,74.5084 192.5,75.5C 191.662,75.8417 191.328,76.5084 191.5,77.5C 190.609,78.1098 189.609,78.4431 188.5,78.5C 188.5,78.1667 188.5,77.8333 188.5,77.5C 188.5,76.8333 188.167,76.5 187.5,76.5C 187.5,75.8333 187.167,75.5 186.5,75.5C 186.672,74.5084 186.338,73.8417 185.5,73.5C 185.5,72.8333 185.167,72.5 184.5,72.5C 184.5,71.8333 184.167,71.5 183.5,71.5C 183.5,70.8333 183.167,70.5 182.5,70.5C 181.5,67.5 179.5,65.5 176.5,64.5C 176.5,63.8333 176.167,63.5 175.5,63.5C 175.5,62.8333 175.167,62.5 174.5,62.5C 174.5,61.8333 174.167,61.5 173.5,61.5C 173.158,60.6618 172.492,60.3284 171.5,60.5C 171.5,59.8333 171.167,59.5 170.5,59.5C 168.862,58.2954 168.529,56.9621 169.5,55.5C 170.492,55.6716 171.158,55.3382 171.5,54.5C 172.492,54.6716 173.158,54.3382 173.5,53.5C 174.791,53.7373 175.791,53.404 176.5,52.5C 183.319,50.3369 190.319,49.3369 197.5,49.5C 197.663,56.6806 196.663,63.6806 194.5,70.5 Z"/></g>
<g><path style="opacity:0.927" fill="#fae7d6" d="M 104.5,58.5 C 104.842,59.3382 105.508,59.6716 106.5,59.5C 107.167,59.5 107.5,59.8333 107.5,60.5C 107.842,61.3382 108.508,61.6716 109.5,61.5C 110.167,61.5 110.5,61.8333 110.5,62.5C 111.167,62.5 111.5,62.8333 111.5,63.5C 112.167,63.5 112.5,63.8333 112.5,64.5C 113.167,64.5 113.5,64.8333 113.5,65.5C 106.345,66.6552 99.0118,66.8218 91.5,66C 92.056,65.6174 92.3893,65.1174 92.5,64.5C 93.1667,64.5 93.5,64.1667 93.5,63.5C 94.1667,63.5 94.5,63.1667 94.5,62.5C 95.1667,62.5 95.5,62.1667 95.5,61.5C 96.4916,61.6716 97.1583,61.3382 97.5,60.5C 98.1667,60.5 98.5,60.1667 98.5,59.5C 99.1667,59.5 99.5,59.1667 99.5,58.5C 101.234,57.438 102.901,57.438 104.5,58.5 Z"/></g>
<g><path style="opacity:0.904" fill="#fae7d6" d="M 170.5,59.5 C 171.167,59.5 171.5,59.8333 171.5,60.5C 171.842,61.3382 172.508,61.6716 173.5,61.5C 174.167,61.5 174.5,61.8333 174.5,62.5C 175.167,62.5 175.5,62.8333 175.5,63.5C 176.167,63.5 176.5,63.8333 176.5,64.5C 176.611,65.1174 176.944,65.6174 177.5,66C 169.988,66.8218 162.655,66.6552 155.5,65.5C 156.167,65.5 156.5,65.1667 156.5,64.5C 157.167,64.5 157.5,64.1667 157.5,63.5C 158.167,63.5 158.5,63.1667 158.5,62.5C 159.167,62.5 159.5,62.1667 159.5,61.5C 160.492,61.6716 161.158,61.3382 161.5,60.5C 162.167,60.5 162.5,60.1667 162.5,59.5C 163.492,59.6716 164.158,59.3382 164.5,58.5C 165.15,58.1961 165.817,57.8627 166.5,57.5C 167.622,58.6302 168.956,59.2969 170.5,59.5 Z"/></g>
<g><path style="opacity:0.846" fill="#8c86dc" d="M 74.5,70.5 C 74.2627,71.791 74.596,72.791 75.5,73.5C 75.3284,74.4916 75.6618,75.1583 76.5,75.5C 76.3284,76.4916 76.6618,77.1583 77.5,77.5C 77.5,79.5 77.5,81.5 77.5,83.5C 76.6618,83.8417 76.3284,84.5084 76.5,85.5C 75.6618,85.8417 75.3284,86.5084 75.5,87.5C 74.596,88.209 74.2627,89.209 74.5,90.5C 73.6618,90.8417 73.3284,91.5084 73.5,92.5C 72.7784,92.9175 72.2784,93.5842 72,94.5C 71.3333,84.8333 71.3333,75.1667 72,65.5C 72.3736,67.4913 73.207,69.158 74.5,70.5 Z"/></g>
<g><path style="opacity:0.87" fill="#8b85dc" d="M 195.5,92.5 C 195.598,90.4471 194.931,88.7804 193.5,87.5C 193.672,86.5084 193.338,85.8417 192.5,85.5C 192.672,84.5084 192.338,83.8417 191.5,83.5C 191.5,83.1667 191.5,82.8333 191.5,82.5C 190.438,80.9008 190.438,79.2341 191.5,77.5C 192.338,77.1583 192.672,76.4916 192.5,75.5C 193.338,75.1583 193.672,74.4916 193.5,73.5C 194.404,72.791 194.737,71.791 194.5,70.5C 195.793,69.158 196.626,67.4913 197,65.5C 197.667,75.1667 197.667,84.8333 197,94.5C 196.722,93.5842 196.222,92.9175 195.5,92.5 Z"/></g>
<g><path style="opacity:0.97" fill="#0c7187" d="M 118.5,70.5 C 118.5,71.1667 118.833,71.5 119.5,71.5C 119.5,72.1667 119.833,72.5 120.5,72.5C 120.5,73.1667 120.833,73.5 121.5,73.5C 121.328,74.4916 121.662,75.1583 122.5,75.5C 122.5,76.1667 122.833,76.5 123.5,76.5C 123.328,77.4916 123.662,78.1583 124.5,78.5C 124.5,79.1667 124.833,79.5 125.5,79.5C 125.328,80.4916 125.662,81.1583 126.5,81.5C 126.328,82.4916 126.662,83.1583 127.5,83.5C 127.328,84.4916 127.662,85.1583 128.5,85.5C 128.328,86.4916 128.662,87.1583 129.5,87.5C 129.263,88.791 129.596,89.791 130.5,90.5C 130.595,92.7857 131.262,94.7857 132.5,96.5C 133.164,101.473 133.497,106.473 133.5,111.5C 128.473,111.497 123.473,111.164 118.5,110.5C 117.791,109.596 116.791,109.263 115.5,109.5C 114.791,108.596 113.791,108.263 112.5,108.5C 111.791,107.596 110.791,107.263 109.5,107.5C 109.158,106.662 108.492,106.328 107.5,106.5C 107.158,105.662 106.492,105.328 105.5,105.5C 105.158,104.662 104.492,104.328 103.5,104.5C 103.158,103.662 102.492,103.328 101.5,103.5C 101.5,102.833 101.167,102.5 100.5,102.5C 100.158,101.662 99.4916,101.328 98.5,101.5C 98.5,100.833 98.1667,100.5 97.5,100.5C 97.5,99.8333 97.1667,99.5 96.5,99.5C 96.1667,99.5 95.8333,99.5 95.5,99.5C 95.5,98.8333 95.1667,98.5 94.5,98.5C 94.5,97.8333 94.1667,97.5 93.5,97.5C 93.5,96.8333 93.1667,96.5 92.5,96.5C 92.2172,95.7109 91.7172,95.0442 91,94.5C 90.5002,85.8397 90.3336,77.1731 90.5,68.5C 99.1731,68.3336 107.84,68.5002 116.5,69C 117.044,69.7172 117.711,70.2172 118.5,70.5 Z"/></g>
<g><path style="opacity:0.943" fill="#fae7d6" d="M 150.5,70.5 C 149.833,70.5 149.5,70.8333 149.5,71.5C 148.833,71.5 148.5,71.8333 148.5,72.5C 147.833,72.5 147.5,72.8333 147.5,73.5C 146.662,73.8417 146.328,74.5084 146.5,75.5C 145.833,75.5 145.5,75.8333 145.5,76.5C 144.662,76.8417 144.328,77.5084 144.5,78.5C 143.833,78.5 143.5,78.8333 143.5,79.5C 142.662,79.8417 142.328,80.5084 142.5,81.5C 141.662,81.8417 141.328,82.5084 141.5,83.5C 140.662,83.8417 140.328,84.5084 140.5,85.5C 139.662,85.8417 139.328,86.5084 139.5,87.5C 138.596,88.209 138.263,89.209 138.5,90.5C 137.596,91.209 137.263,92.209 137.5,93.5C 136.596,94.209 136.263,95.209 136.5,96.5C 135.839,97.7175 135.172,99.0508 134.5,100.5C 133.828,99.0508 133.161,97.7175 132.5,96.5C 132.741,94.1016 132.074,92.1016 130.5,90.5C 130.737,89.209 130.404,88.209 129.5,87.5C 129.672,86.5084 129.338,85.8417 128.5,85.5C 128.672,84.5084 128.338,83.8417 127.5,83.5C 127.672,82.5084 127.338,81.8417 126.5,81.5C 126.672,80.5084 126.338,79.8417 125.5,79.5C 124.833,79.5 124.5,79.1667 124.5,78.5C 124.672,77.5084 124.338,76.8417 123.5,76.5C 122.833,76.5 122.5,76.1667 122.5,75.5C 122.672,74.5084 122.338,73.8417 121.5,73.5C 120.833,73.5 120.5,73.1667 120.5,72.5C 119.833,72.5 119.5,72.1667 119.5,71.5C 118.833,71.5 118.5,71.1667 118.5,70.5C 123.456,69.1718 128.789,68.5051 134.5,68.5C 140.211,68.5051 145.544,69.1718 150.5,70.5 Z"/></g>
<g><path style="opacity:0.969" fill="#0b7187" d="M 176.5,96.5 C 175.833,96.5 175.5,96.8333 175.5,97.5C 174.833,97.5 174.5,97.8333 174.5,98.5C 172.973,98.427 171.973,99.0937 171.5,100.5C 170.833,100.5 170.5,100.833 170.5,101.5C 169.508,101.328 168.842,101.662 168.5,102.5C 166.973,102.427 165.973,103.094 165.5,104.5C 164.508,104.328 163.842,104.662 163.5,105.5C 162.508,105.328 161.842,105.662 161.5,106.5C 160.508,106.328 159.842,106.662 159.5,107.5C 158.209,107.263 157.209,107.596 156.5,108.5C 155.209,108.263 154.209,108.596 153.5,109.5C 147.58,110.817 141.58,111.483 135.5,111.5C 135.503,106.473 135.836,101.473 136.5,96.5C 137.404,95.791 137.737,94.791 137.5,93.5C 138.404,92.791 138.737,91.791 138.5,90.5C 139.404,89.791 139.737,88.791 139.5,87.5C 140.338,87.1583 140.672,86.4916 140.5,85.5C 141.338,85.1583 141.672,84.4916 141.5,83.5C 142.338,83.1583 142.672,82.4916 142.5,81.5C 143.338,81.1583 143.672,80.4916 143.5,79.5C 144.167,79.5 144.5,79.1667 144.5,78.5C 145.338,78.1583 145.672,77.4916 145.5,76.5C 146.167,76.5 146.5,76.1667 146.5,75.5C 147.338,75.1583 147.672,74.4916 147.5,73.5C 148.167,73.5 148.5,73.1667 148.5,72.5C 149.167,72.5 149.5,72.1667 149.5,71.5C 150.167,71.5 150.5,71.1667 150.5,70.5C 151.289,70.2172 151.956,69.7172 152.5,69C 161.16,68.5002 169.827,68.3336 178.5,68.5C 178.666,77.1731 178.5,85.8397 178,94.5C 177.283,95.0442 176.783,95.7109 176.5,96.5 Z"/></g>
<g><path style="opacity:0.937" fill="#faead5" d="M 87.5,91.5 C 87.5,90.8333 87.1667,90.5 86.5,90.5C 86.5,89.8333 86.1667,89.5 85.5,89.5C 85.5,88.8333 85.1667,88.5 84.5,88.5C 84.6716,87.5084 84.3382,86.8417 83.5,86.5C 83.5,85.8333 83.1667,85.5 82.5,85.5C 82.5,84.8333 82.1667,84.5 81.5,84.5C 81.6716,83.5084 81.3382,82.8417 80.5,82.5C 80.5,81.1667 80.5,79.8333 80.5,78.5C 80.5,78.1667 80.5,77.8333 80.5,77.5C 81.1667,77.5 81.5,77.1667 81.5,76.5C 82.1667,76.5 82.5,76.1667 82.5,75.5C 83.3382,75.1583 83.6716,74.4916 83.5,73.5C 84.1667,73.5 84.5,73.1667 84.5,72.5C 85.1667,72.5 85.5,72.1667 85.5,71.5C 86.1667,71.5 86.5,71.1667 86.5,70.5C 87.1499,70.1961 87.8165,69.8627 88.5,69.5C 88.8333,73.1667 89.1667,76.8333 89.5,80.5C 89.4888,84.5652 88.8222,88.2319 87.5,91.5 Z"/></g>
<g><path style="opacity:0.946" fill="#fae7d6" d="M 182.5,70.5 C 183.167,70.5 183.5,70.8333 183.5,71.5C 184.167,71.5 184.5,71.8333 184.5,72.5C 185.167,72.5 185.5,72.8333 185.5,73.5C 185.328,74.4916 185.662,75.1583 186.5,75.5C 187.167,75.5 187.5,75.8333 187.5,76.5C 188.167,76.5 188.5,76.8333 188.5,77.5C 188.5,77.8333 188.5,78.1667 188.5,78.5C 189.405,79.7024 189.405,81.0357 188.5,82.5C 187.662,82.8417 187.328,83.5084 187.5,84.5C 186.833,84.5 186.5,84.8333 186.5,85.5C 185.662,85.8417 185.328,86.5084 185.5,87.5C 184.833,87.5 184.5,87.8333 184.5,88.5C 183.833,88.5 183.5,88.8333 183.5,89.5C 182.833,89.5 182.5,89.8333 182.5,90.5C 181.833,90.5 181.5,90.8333 181.5,91.5C 180.345,84.3451 180.178,77.0118 181,69.5C 181.383,70.056 181.883,70.3893 182.5,70.5 Z"/></g>
<g><path style="opacity:0.972" fill="#29a9c2" d="M 188.5,82.5 C 189.5,82.5 190.5,82.5 191.5,82.5C 191.5,82.8333 191.5,83.1667 191.5,83.5C 191.328,84.4916 191.662,85.1583 192.5,85.5C 192.328,86.4916 192.662,87.1583 193.5,87.5C 193.402,89.5529 194.069,91.2196 195.5,92.5C 198.167,105.833 198.167,119.167 195.5,132.5C 194.662,132.842 194.328,133.508 194.5,134.5C 193.596,135.209 193.263,136.209 193.5,137.5C 192.662,137.842 192.328,138.508 192.5,139.5C 191.662,139.842 191.328,140.508 191.5,141.5C 190.609,142.11 189.609,142.443 188.5,142.5C 188.672,141.508 188.338,140.842 187.5,140.5C 187.5,139.833 187.167,139.5 186.5,139.5C 186.672,138.508 186.338,137.842 185.5,137.5C 185.5,136.833 185.167,136.5 184.5,136.5C 184.5,135.833 184.167,135.5 183.5,135.5C 183.5,134.833 183.167,134.5 182.5,134.5C 182.5,133.833 182.167,133.5 181.5,133.5C 178.918,119.443 178.918,105.443 181.5,91.5C 182.167,91.5 182.5,91.1667 182.5,90.5C 183.167,90.5 183.5,90.1667 183.5,89.5C 184.167,89.5 184.5,89.1667 184.5,88.5C 185.167,88.5 185.5,88.1667 185.5,87.5C 186.338,87.1583 186.672,86.4916 186.5,85.5C 187.167,85.5 187.5,85.1667 187.5,84.5C 188.338,84.1583 188.672,83.4916 188.5,82.5 Z"/></g>
<g><path style="opacity:0.946" fill="#29a9c2" d="M 80.5,82.5 C 80.3284,83.4916 80.6618,84.1583 81.5,84.5C 82.1667,84.5 82.5,84.8333 82.5,85.5C 83.1667,85.5 83.5,85.8333 83.5,86.5C 83.3284,87.4916 83.6618,88.1583 84.5,88.5C 85.1667,88.5 85.5,88.8333 85.5,89.5C 86.1667,89.5 86.5,89.8333 86.5,90.5C 87.1667,90.5 87.5,90.8333 87.5,91.5C 87.9867,92.4734 88.4867,93.4734 89,94.5C 89.6667,106.5 89.6667,118.5 89,130.5C 88.4867,131.527 87.9867,132.527 87.5,133.5C 86.8333,133.5 86.5,133.833 86.5,134.5C 85.8333,134.5 85.5,134.833 85.5,135.5C 84.8333,135.5 84.5,135.833 84.5,136.5C 83.6618,136.842 83.3284,137.508 83.5,138.5C 82.8333,138.5 82.5,138.833 82.5,139.5C 81.8333,139.5 81.5,139.833 81.5,140.5C 80.6618,140.842 80.3284,141.508 80.5,142.5C 79.391,142.443 78.391,142.11 77.5,141.5C 77.6716,140.508 77.3382,139.842 76.5,139.5C 76.6716,138.508 76.3382,137.842 75.5,137.5C 75.5,137.167 75.5,136.833 75.5,136.5C 75.6716,135.508 75.3382,134.842 74.5,134.5C 74.6716,133.508 74.3382,132.842 73.5,132.5C 73.5,132.167 73.5,131.833 73.5,131.5C 70.8335,118.498 70.8335,105.498 73.5,92.5C 74.3382,92.1583 74.6716,91.4916 74.5,90.5C 75.404,89.791 75.7373,88.791 75.5,87.5C 76.3382,87.1583 76.6716,86.4916 76.5,85.5C 77.3382,85.1583 77.6716,84.4916 77.5,83.5C 78.391,82.8902 79.391,82.5569 80.5,82.5 Z"/></g>
<g><path style="opacity:0.944" fill="#fae7d6" d="M 176.5,96.5 C 177.828,101.456 178.495,106.789 178.5,112.5C 178.495,118.211 177.828,123.544 176.5,128.5C 176.5,127.833 176.167,127.5 175.5,127.5C 175.5,126.833 175.167,126.5 174.5,126.5C 174.5,125.833 174.167,125.5 173.5,125.5C 173.158,124.662 172.492,124.328 171.5,124.5C 171.5,123.833 171.167,123.5 170.5,123.5C 170.158,122.662 169.492,122.328 168.5,122.5C 168.5,121.833 168.167,121.5 167.5,121.5C 167.158,120.662 166.492,120.328 165.5,120.5C 165.158,119.662 164.492,119.328 163.5,119.5C 163.158,118.662 162.492,118.328 161.5,118.5C 161.158,117.662 160.492,117.328 159.5,117.5C 158.791,116.596 157.791,116.263 156.5,116.5C 153.348,114.722 150.015,113.222 146.5,112C 149.104,111.61 151.438,110.776 153.5,109.5C 154.791,109.737 155.791,109.404 156.5,108.5C 157.791,108.737 158.791,108.404 159.5,107.5C 160.492,107.672 161.158,107.338 161.5,106.5C 162.492,106.672 163.158,106.338 163.5,105.5C 164.492,105.672 165.158,105.338 165.5,104.5C 167.027,104.573 168.027,103.906 168.5,102.5C 169.492,102.672 170.158,102.338 170.5,101.5C 171.167,101.5 171.5,101.167 171.5,100.5C 173.027,100.573 174.027,99.9063 174.5,98.5C 175.167,98.5 175.5,98.1667 175.5,97.5C 176.167,97.5 176.5,97.1667 176.5,96.5 Z"/></g>
<g><path style="opacity:0.941" fill="#fae7d6" d="M 92.5,96.5 C 93.1667,96.5 93.5,96.8333 93.5,97.5C 94.1667,97.5 94.5,97.8333 94.5,98.5C 95.1667,98.5 95.5,98.8333 95.5,99.5C 95.8333,99.5 96.1667,99.5 96.5,99.5C 97.1667,99.5 97.5,99.8333 97.5,100.5C 98.1667,100.5 98.5,100.833 98.5,101.5C 98.8417,102.338 99.5084,102.672 100.5,102.5C 101.167,102.5 101.5,102.833 101.5,103.5C 101.842,104.338 102.508,104.672 103.5,104.5C 103.842,105.338 104.508,105.672 105.5,105.5C 105.842,106.338 106.508,106.672 107.5,106.5C 107.842,107.338 108.508,107.672 109.5,107.5C 110.209,108.404 111.209,108.737 112.5,108.5C 113.209,109.404 114.209,109.737 115.5,109.5C 116.209,110.404 117.209,110.737 118.5,110.5C 119.718,111.161 121.051,111.828 122.5,112.5C 118.939,113.543 115.606,114.876 112.5,116.5C 111.209,116.263 110.209,116.596 109.5,117.5C 108.508,117.328 107.842,117.662 107.5,118.5C 106.508,118.328 105.842,118.662 105.5,119.5C 104.508,119.328 103.842,119.662 103.5,120.5C 101.973,120.427 100.973,121.094 100.5,122.5C 99.5084,122.328 98.8417,122.662 98.5,123.5C 97.8333,123.5 97.5,123.833 97.5,124.5C 95.9731,124.427 94.9731,125.094 94.5,126.5C 93.8333,126.5 93.5,126.833 93.5,127.5C 92.8333,127.5 92.5,127.833 92.5,128.5C 91.1718,123.544 90.5051,118.211 90.5,112.5C 90.5051,106.789 91.1718,101.456 92.5,96.5 Z"/></g>
<g><path style="opacity:0.968" fill="#0b7187" d="M 132.5,128.5 C 131.262,130.214 130.595,132.214 130.5,134.5C 129.596,135.209 129.263,136.209 129.5,137.5C 128.662,137.842 128.328,138.508 128.5,139.5C 127.662,139.842 127.328,140.508 127.5,141.5C 126.662,141.842 126.328,142.508 126.5,143.5C 125.662,143.842 125.328,144.508 125.5,145.5C 124.833,145.5 124.5,145.833 124.5,146.5C 123.662,146.842 123.328,147.508 123.5,148.5C 122.833,148.5 122.5,148.833 122.5,149.5C 121.662,149.842 121.328,150.508 121.5,151.5C 120.833,151.5 120.5,151.833 120.5,152.5C 119.833,152.5 119.5,152.833 119.5,153.5C 118.833,153.5 118.5,153.833 118.5,154.5C 117.711,154.783 117.044,155.283 116.5,156C 107.84,156.5 99.1731,156.666 90.5,156.5C 90.3336,147.827 90.5002,139.16 91,130.5C 91.7172,129.956 92.2172,129.289 92.5,128.5C 93.1667,128.5 93.5,128.167 93.5,127.5C 94.1667,127.5 94.5,127.167 94.5,126.5C 96.0269,126.573 97.0269,125.906 97.5,124.5C 98.1667,124.5 98.5,124.167 98.5,123.5C 99.4916,123.672 100.158,123.338 100.5,122.5C 102.027,122.573 103.027,121.906 103.5,120.5C 104.492,120.672 105.158,120.338 105.5,119.5C 106.492,119.672 107.158,119.338 107.5,118.5C 108.492,118.672 109.158,118.338 109.5,117.5C 110.791,117.737 111.791,117.404 112.5,116.5C 119.365,114.594 126.365,113.594 133.5,113.5C 133.497,118.527 133.164,123.527 132.5,128.5 Z"/></g>
<g><path style="opacity:0.969" fill="#0b7187" d="M 156.5,116.5 C 157.209,117.404 158.209,117.737 159.5,117.5C 159.842,118.338 160.508,118.672 161.5,118.5C 161.842,119.338 162.508,119.672 163.5,119.5C 163.842,120.338 164.508,120.672 165.5,120.5C 165.842,121.338 166.508,121.672 167.5,121.5C 168.167,121.5 168.5,121.833 168.5,122.5C 168.842,123.338 169.508,123.672 170.5,123.5C 171.167,123.5 171.5,123.833 171.5,124.5C 171.842,125.338 172.508,125.672 173.5,125.5C 174.167,125.5 174.5,125.833 174.5,126.5C 175.167,126.5 175.5,126.833 175.5,127.5C 176.167,127.5 176.5,127.833 176.5,128.5C 176.783,129.289 177.283,129.956 178,130.5C 178.5,139.16 178.666,147.827 178.5,156.5C 169.827,156.666 161.16,156.5 152.5,156C 151.956,155.283 151.289,154.783 150.5,154.5C 150.5,153.833 150.167,153.5 149.5,153.5C 149.5,152.833 149.167,152.5 148.5,152.5C 148.672,151.508 148.338,150.842 147.5,150.5C 147.5,149.833 147.167,149.5 146.5,149.5C 146.5,148.833 146.167,148.5 145.5,148.5C 145.672,147.508 145.338,146.842 144.5,146.5C 144.5,145.833 144.167,145.5 143.5,145.5C 143.5,145.167 143.5,144.833 143.5,144.5C 143.5,143.833 143.167,143.5 142.5,143.5C 142.672,142.508 142.338,141.842 141.5,141.5C 141.672,140.508 141.338,139.842 140.5,139.5C 140.672,138.508 140.338,137.842 139.5,137.5C 139.737,136.209 139.404,135.209 138.5,134.5C 138.737,133.209 138.404,132.209 137.5,131.5C 137.737,130.209 137.404,129.209 136.5,128.5C 135.836,123.527 135.503,118.527 135.5,113.5C 142.681,113.337 149.681,114.337 156.5,116.5 Z"/></g>
<g><path style="opacity:0.94" fill="#fae7d6" d="M 136.5,128.5 C 136.263,129.791 136.596,130.791 137.5,131.5C 137.263,132.791 137.596,133.791 138.5,134.5C 138.263,135.791 138.596,136.791 139.5,137.5C 139.328,138.492 139.662,139.158 140.5,139.5C 140.328,140.492 140.662,141.158 141.5,141.5C 141.328,142.492 141.662,143.158 142.5,143.5C 143.167,143.5 143.5,143.833 143.5,144.5C 143.5,144.833 143.5,145.167 143.5,145.5C 144.167,145.5 144.5,145.833 144.5,146.5C 144.328,147.492 144.662,148.158 145.5,148.5C 146.167,148.5 146.5,148.833 146.5,149.5C 147.167,149.5 147.5,149.833 147.5,150.5C 147.328,151.492 147.662,152.158 148.5,152.5C 149.167,152.5 149.5,152.833 149.5,153.5C 150.167,153.5 150.5,153.833 150.5,154.5C 145.544,155.828 140.211,156.495 134.5,156.5C 128.789,156.495 123.456,155.828 118.5,154.5C 119.167,154.5 119.5,154.167 119.5,153.5C 120.167,153.5 120.5,153.167 120.5,152.5C 121.167,152.5 121.5,152.167 121.5,151.5C 122.338,151.158 122.672,150.492 122.5,149.5C 123.167,149.5 123.5,149.167 123.5,148.5C 124.338,148.158 124.672,147.492 124.5,146.5C 125.167,146.5 125.5,146.167 125.5,145.5C 126.338,145.158 126.672,144.492 126.5,143.5C 127.338,143.158 127.672,142.492 127.5,141.5C 128.338,141.158 128.672,140.492 128.5,139.5C 129.338,139.158 129.672,138.492 129.5,137.5C 130.404,136.791 130.737,135.791 130.5,134.5C 132.074,132.898 132.741,130.898 132.5,128.5C 133.232,127.192 134.066,125.858 135,124.5C 135.21,126.058 135.71,127.391 136.5,128.5 Z"/></g>
<g><path style="opacity:0.848" fill="#8b86dc" d="M 73.5,131.5 C 73.5,131.833 73.5,132.167 73.5,132.5C 73.3284,133.492 73.6618,134.158 74.5,134.5C 74.3284,135.492 74.6618,136.158 75.5,136.5C 75.5,136.833 75.5,137.167 75.5,137.5C 75.3284,138.492 75.6618,139.158 76.5,139.5C 76.3284,140.492 76.6618,141.158 77.5,141.5C 78.8333,143.5 78.8333,145.5 77.5,147.5C 76.6618,147.842 76.3284,148.508 76.5,149.5C 75.6618,149.842 75.3284,150.508 75.5,151.5C 75.5,151.833 75.5,152.167 75.5,152.5C 74.6618,152.842 74.3284,153.508 74.5,154.5C 73.596,155.209 73.2627,156.209 73.5,157.5C 72.7784,157.918 72.2784,158.584 72,159.5C 71.3333,149.833 71.3333,140.167 72,130.5C 72.3826,131.056 72.8826,131.389 73.5,131.5 Z"/></g>
<g><path style="opacity:0.861" fill="#8a84dc" d="M 195.5,156.5 C 195.672,155.508 195.338,154.842 194.5,154.5C 194.737,153.209 194.404,152.209 193.5,151.5C 193.672,150.508 193.338,149.842 192.5,149.5C 192.672,148.508 192.338,147.842 191.5,147.5C 190.167,145.5 190.167,143.5 191.5,141.5C 192.338,141.158 192.672,140.492 192.5,139.5C 193.338,139.158 193.672,138.492 193.5,137.5C 194.404,136.791 194.737,135.791 194.5,134.5C 195.338,134.158 195.672,133.492 195.5,132.5C 196.268,131.737 196.768,130.737 197,129.5C 197.667,139.5 197.667,149.5 197,159.5C 196.768,158.263 196.268,157.263 195.5,156.5 Z"/></g>
<g><path style="opacity:0.928" fill="#faead4" d="M 87.5,133.5 C 88.8222,136.768 89.4888,140.435 89.5,144.5C 89.4888,148.565 88.8222,152.232 87.5,155.5C 87.5,154.833 87.1667,154.5 86.5,154.5C 86.5,153.833 86.1667,153.5 85.5,153.5C 85.5,152.833 85.1667,152.5 84.5,152.5C 84.5,151.833 84.1667,151.5 83.5,151.5C 83.5,151.167 83.5,150.833 83.5,150.5C 83.5,149.833 83.1667,149.5 82.5,149.5C 82.5,148.833 82.1667,148.5 81.5,148.5C 81.6716,147.508 81.3382,146.842 80.5,146.5C 80.5,145.167 80.5,143.833 80.5,142.5C 81.3382,142.158 81.6716,141.492 81.5,140.5C 82.1667,140.5 82.5,140.167 82.5,139.5C 83.1667,139.5 83.5,139.167 83.5,138.5C 84.3382,138.158 84.6716,137.492 84.5,136.5C 85.1667,136.5 85.5,136.167 85.5,135.5C 86.1667,135.5 86.5,135.167 86.5,134.5C 87.1667,134.5 87.5,134.167 87.5,133.5 Z"/></g>
<g><path style="opacity:0.933" fill="#fae7d6" d="M 181.5,133.5 C 182.167,133.5 182.5,133.833 182.5,134.5C 183.167,134.5 183.5,134.833 183.5,135.5C 184.167,135.5 184.5,135.833 184.5,136.5C 185.167,136.5 185.5,136.833 185.5,137.5C 185.328,138.492 185.662,139.158 186.5,139.5C 187.167,139.5 187.5,139.833 187.5,140.5C 187.328,141.492 187.662,142.158 188.5,142.5C 189.833,144.167 189.833,145.833 188.5,147.5C 187.833,147.5 187.5,147.833 187.5,148.5C 186.833,148.5 186.5,148.833 186.5,149.5C 185.662,149.842 185.328,150.508 185.5,151.5C 184.833,151.5 184.5,151.833 184.5,152.5C 183.833,152.5 183.5,152.833 183.5,153.5C 182.833,153.5 182.5,153.833 182.5,154.5C 181.833,154.5 181.5,154.833 181.5,155.5C 180.167,148.167 180.167,140.833 181.5,133.5 Z"/></g>
<g><path style="opacity:0.913" fill="#ffb800" d="M 80.5,146.5 C 80.3284,147.492 80.6618,148.158 81.5,148.5C 82.1667,148.5 82.5,148.833 82.5,149.5C 83.1667,149.5 83.5,149.833 83.5,150.5C 83.5,150.833 83.5,151.167 83.5,151.5C 84.1667,151.5 84.5,151.833 84.5,152.5C 85.1667,152.5 85.5,152.833 85.5,153.5C 86.1667,153.5 86.5,153.833 86.5,154.5C 87.1667,154.5 87.5,154.833 87.5,155.5C 88.5,157.167 89.8333,158.5 91.5,159.5C 91.5,160.167 91.8333,160.5 92.5,160.5C 92.5,161.167 92.8333,161.5 93.5,161.5C 93.5,162.167 93.8333,162.5 94.5,162.5C 94.5,163.167 94.8333,163.5 95.5,163.5C 95.8333,163.5 96.1667,163.5 96.5,163.5C 96.5,164.167 96.8333,164.5 97.5,164.5C 97.5,165.167 97.8333,165.5 98.5,165.5C 98.8417,166.338 99.5084,166.672 100.5,166.5C 100.443,167.609 100.11,168.609 99.5,169.5C 98.5084,169.328 97.8417,169.662 97.5,170.5C 96.5084,170.328 95.8417,170.662 95.5,171.5C 94.209,171.263 93.209,171.596 92.5,172.5C 85.6806,174.663 78.6806,175.663 71.5,175.5C 71.3764,169.401 72.0431,163.401 73.5,157.5C 74.404,156.791 74.7373,155.791 74.5,154.5C 75.3382,154.158 75.6716,153.492 75.5,152.5C 75.5,152.167 75.5,151.833 75.5,151.5C 76.3382,151.158 76.6716,150.492 76.5,149.5C 77.3382,149.158 77.6716,148.492 77.5,147.5C 78.391,146.89 79.391,146.557 80.5,146.5 Z"/></g>
<g><path style="opacity:0.92" fill="#ffb900" d="M 191.5,147.5 C 191.328,148.492 191.662,149.158 192.5,149.5C 192.328,150.492 192.662,151.158 193.5,151.5C 193.263,152.791 193.596,153.791 194.5,154.5C 194.328,155.492 194.662,156.158 195.5,156.5C 196.892,162.748 197.558,169.082 197.5,175.5C 190.319,175.663 183.319,174.663 176.5,172.5C 175.791,171.596 174.791,171.263 173.5,171.5C 173.158,170.662 172.492,170.328 171.5,170.5C 171.158,169.662 170.492,169.328 169.5,169.5C 168.89,168.609 168.557,167.609 168.5,166.5C 169.492,166.672 170.158,166.338 170.5,165.5C 171.167,165.5 171.5,165.167 171.5,164.5C 172.492,164.672 173.158,164.338 173.5,163.5C 174.167,163.5 174.5,163.167 174.5,162.5C 175.167,162.5 175.5,162.167 175.5,161.5C 176.167,161.5 176.5,161.167 176.5,160.5C 179.167,159.833 180.833,158.167 181.5,155.5C 182.167,155.5 182.5,155.167 182.5,154.5C 183.167,154.5 183.5,154.167 183.5,153.5C 184.167,153.5 184.5,153.167 184.5,152.5C 185.167,152.5 185.5,152.167 185.5,151.5C 186.338,151.158 186.672,150.492 186.5,149.5C 187.167,149.5 187.5,149.167 187.5,148.5C 188.167,148.5 188.5,148.167 188.5,147.5C 189.5,146.167 190.5,146.167 191.5,147.5 Z"/></g>
<g><path style="opacity:0.919" fill="#fae7d5" d="M 91.5,159.5 C 98.8333,158.167 106.167,158.167 113.5,159.5C 112.833,159.5 112.5,159.833 112.5,160.5C 111.833,160.5 111.5,160.833 111.5,161.5C 110.833,161.5 110.5,161.833 110.5,162.5C 108.973,162.427 107.973,163.094 107.5,164.5C 106.833,164.5 106.5,164.833 106.5,165.5C 104.565,166.15 102.565,166.483 100.5,166.5C 100.158,165.662 99.4916,165.328 98.5,165.5C 97.8333,165.5 97.5,165.167 97.5,164.5C 96.8333,164.5 96.5,164.167 96.5,163.5C 96.1667,163.5 95.8333,163.5 95.5,163.5C 94.8333,163.5 94.5,163.167 94.5,162.5C 93.8333,162.5 93.5,162.167 93.5,161.5C 92.8333,161.5 92.5,161.167 92.5,160.5C 91.8333,160.5 91.5,160.167 91.5,159.5 Z"/></g>
<g><path style="opacity:0.976" fill="#29a9c2" d="M 155.5,159.5 C 155.5,160.167 155.833,160.5 156.5,160.5C 156.5,161.167 156.833,161.5 157.5,161.5C 157.5,162.167 157.833,162.5 158.5,162.5C 158.5,163.167 158.833,163.5 159.5,163.5C 159.842,164.338 160.508,164.672 161.5,164.5C 161.5,165.167 161.833,165.5 162.5,165.5C 162.842,166.338 163.508,166.672 164.5,166.5C 164.443,167.609 164.11,168.609 163.5,169.5C 162.508,169.328 161.842,169.662 161.5,170.5C 160.508,170.328 159.842,170.662 159.5,171.5C 158.508,171.328 157.842,171.662 157.5,172.5C 157.5,173.167 157.167,173.5 156.5,173.5C 155.833,172.167 155.167,172.167 154.5,173.5C 141.167,176.167 127.833,176.167 114.5,173.5C 113.791,172.596 112.791,172.263 111.5,172.5C 111.158,171.662 110.492,171.328 109.5,171.5C 109.158,170.662 108.492,170.328 107.5,170.5C 107.158,169.662 106.492,169.328 105.5,169.5C 104.529,168.038 104.862,166.705 106.5,165.5C 107.167,165.5 107.5,165.167 107.5,164.5C 109.027,164.573 110.027,163.906 110.5,162.5C 111.167,162.5 111.5,162.167 111.5,161.5C 112.167,161.5 112.5,161.167 112.5,160.5C 113.167,160.5 113.5,160.167 113.5,159.5C 127.53,158.182 141.53,158.182 155.5,159.5 Z"/></g>
<g><path style="opacity:0.921" fill="#fae7d6" d="M 155.5,159.5 C 162.655,158.345 169.988,158.178 177.5,159C 176.944,159.383 176.611,159.883 176.5,160.5C 175.833,160.5 175.5,160.833 175.5,161.5C 174.833,161.5 174.5,161.833 174.5,162.5C 173.833,162.5 173.5,162.833 173.5,163.5C 172.508,163.328 171.842,163.662 171.5,164.5C 170.833,164.5 170.5,164.833 170.5,165.5C 169.508,165.328 168.842,165.662 168.5,166.5C 167.167,167.833 165.833,167.833 164.5,166.5C 164.158,165.662 163.492,165.328 162.5,165.5C 161.833,165.5 161.5,165.167 161.5,164.5C 161.158,163.662 160.492,163.328 159.5,163.5C 158.833,163.5 158.5,163.167 158.5,162.5C 157.833,162.5 157.5,162.167 157.5,161.5C 156.833,161.5 156.5,161.167 156.5,160.5C 155.833,160.5 155.5,160.167 155.5,159.5 Z"/></g>
<g><path style="opacity:0.887" fill="#8b85dc" d="M 105.5,169.5 C 105.842,170.338 106.508,170.672 107.5,170.5C 107.842,171.338 108.508,171.672 109.5,171.5C 109.842,172.338 110.508,172.672 111.5,172.5C 112.209,173.404 113.209,173.737 114.5,173.5C 114.918,174.222 115.584,174.722 116.5,175C 107.167,175.667 97.8333,175.667 88.5,175C 90.0664,174.392 91.3998,173.558 92.5,172.5C 93.791,172.737 94.791,172.404 95.5,171.5C 96.4916,171.672 97.1583,171.338 97.5,170.5C 98.4916,170.672 99.1583,170.338 99.5,169.5C 101.5,168.167 103.5,168.167 105.5,169.5 Z"/></g>
<g><path style="opacity:0.863" fill="#8a85db" d="M 169.5,169.5 C 169.842,170.338 170.508,170.672 171.5,170.5C 171.842,171.338 172.508,171.672 173.5,171.5C 174.209,172.404 175.209,172.737 176.5,172.5C 177.6,173.558 178.934,174.392 180.5,175C 171.167,175.667 161.833,175.667 152.5,175C 153.416,174.722 154.082,174.222 154.5,173.5C 155.167,173.5 155.833,173.5 156.5,173.5C 157.167,173.5 157.5,173.167 157.5,172.5C 158.492,172.672 159.158,172.338 159.5,171.5C 160.492,171.672 161.158,171.338 161.5,170.5C 162.492,170.672 163.158,170.338 163.5,169.5C 165.5,168.167 167.5,168.167 169.5,169.5 Z"/></g>
</svg>
