<svg width="68" height="40" viewBox="0 0 68 40" fill="none" xmlns="http://www.w3.org/2000/svg">
<g clip-path="url(#clip0_87_2420)">
<path d="M14.5145 25C14.3012 25 14.1198 24.9307 13.9705 24.792C13.8318 24.6427 13.7625 24.4613 13.7625 24.248V13.256C13.7625 13.032 13.8318 12.8507 13.9705 12.712C14.1198 12.5733 14.3012 12.504 14.5145 12.504C14.8132 12.504 15.0372 12.6373 15.1865 12.904L20.3385 23.192H19.8105L24.8505 12.904C25.0105 12.6373 25.2345 12.504 25.5225 12.504C25.7358 12.504 25.9118 12.5733 26.0505 12.712C26.1998 12.8507 26.2745 13.032 26.2745 13.256V24.248C26.2745 24.4613 26.1998 24.6427 26.0505 24.792C25.9012 24.9307 25.7252 25 25.5225 25C25.3092 25 25.1278 24.9307 24.9785 24.792C24.8398 24.6427 24.7705 24.4613 24.7705 24.248V15.288L25.0585 15.256L20.6745 24.216C20.5145 24.472 20.2958 24.6 20.0185 24.6C19.6985 24.6 19.4692 24.4453 19.3305 24.136L14.9465 15.368L15.2665 15.288V24.248C15.2665 24.4613 15.1918 24.6427 15.0425 24.792C14.9038 24.9307 14.7278 25 14.5145 25ZM33.3893 25.064C32.5359 25.064 31.7733 24.8773 31.1013 24.504C30.4399 24.12 29.9173 23.5973 29.5333 22.936C29.1599 22.264 28.9733 21.496 28.9733 20.632C28.9733 19.7573 29.1599 18.9893 29.5333 18.328C29.9173 17.656 30.4399 17.1333 31.1013 16.76C31.7733 16.376 32.5359 16.184 33.3893 16.184C34.2426 16.184 34.9999 16.376 35.6613 16.76C36.3333 17.1333 36.8559 17.656 37.2293 18.328C37.6133 18.9893 37.8106 19.7573 37.8213 20.632C37.8213 21.496 37.6293 22.264 37.2453 22.936C36.8613 23.5973 36.3386 24.12 35.6773 24.504C35.0159 24.8773 34.2533 25.064 33.3893 25.064ZM33.3893 23.752C33.9759 23.752 34.4933 23.6187 34.9413 23.352C35.3893 23.0853 35.7413 22.7173 35.9973 22.248C36.2533 21.7787 36.3813 21.24 36.3813 20.632C36.3813 20.024 36.2533 19.4853 35.9973 19.016C35.7413 18.536 35.3893 18.1627 34.9413 17.896C34.4933 17.6293 33.9759 17.496 33.3893 17.496C32.8133 17.496 32.2959 17.6293 31.8373 17.896C31.3893 18.1627 31.0373 18.536 30.7813 19.016C30.5253 19.4853 30.3973 20.024 30.3973 20.632C30.3973 21.24 30.5253 21.7787 30.7813 22.248C31.0373 22.7173 31.3893 23.0853 31.8373 23.352C32.2959 23.6187 32.8133 23.752 33.3893 23.752ZM41.0058 19.56C41.0271 18.9093 41.1924 18.328 41.5018 17.816C41.8218 17.304 42.2431 16.8987 42.7658 16.6C43.2884 16.3013 43.8644 16.152 44.4938 16.152C45.0804 16.152 45.5178 16.2427 45.8058 16.424C46.1044 16.6053 46.2164 16.8347 46.1418 17.112C46.1098 17.272 46.0458 17.3893 45.9498 17.464C45.8538 17.528 45.7418 17.5653 45.6138 17.576C45.4858 17.576 45.3471 17.5653 45.1978 17.544C44.5471 17.4373 43.9658 17.4533 43.4538 17.592C42.9418 17.7307 42.5364 17.9707 42.2378 18.312C41.9391 18.6533 41.7898 19.0693 41.7898 19.56H41.0058ZM41.0538 25C40.8298 25 40.6538 24.9413 40.5258 24.824C40.3978 24.696 40.3338 24.5147 40.3338 24.28V16.968C40.3338 16.744 40.3978 16.568 40.5258 16.44C40.6538 16.312 40.8298 16.248 41.0538 16.248C41.2991 16.248 41.4804 16.312 41.5978 16.44C41.7258 16.5573 41.7898 16.7333 41.7898 16.968V24.28C41.7898 24.504 41.7258 24.68 41.5978 24.808C41.4804 24.936 41.2991 25 41.0538 25ZM51.4509 25.064C50.5655 25.064 49.7815 24.8773 49.0989 24.504C48.4269 24.12 47.8989 23.5973 47.5149 22.936C47.1309 22.264 46.9389 21.496 46.9389 20.632C46.9389 19.7573 47.1202 18.9893 47.4829 18.328C47.8455 17.656 48.3469 17.1333 48.9869 16.76C49.6269 16.376 50.3682 16.184 51.2109 16.184C52.0322 16.184 52.7415 16.3707 53.3389 16.744C53.9362 17.1067 54.3949 17.6133 54.7149 18.264C55.0349 18.904 55.1949 19.6453 55.1949 20.488C55.1949 20.6693 55.1309 20.824 55.0029 20.952C54.8855 21.0693 54.7255 21.128 54.5229 21.128H47.9469V19.944H54.5389L53.8829 20.408C53.8722 19.8427 53.7602 19.336 53.5469 18.888C53.3335 18.44 53.0295 18.088 52.6349 17.832C52.2402 17.576 51.7655 17.448 51.2109 17.448C50.6029 17.448 50.0749 17.5867 49.6269 17.864C49.1895 18.1413 48.8535 18.52 48.6189 19C48.3842 19.48 48.2669 20.024 48.2669 20.632C48.2669 21.24 48.4002 21.784 48.6669 22.264C48.9442 22.7333 49.3175 23.1067 49.7869 23.384C50.2669 23.6613 50.8215 23.8 51.4509 23.8C51.7922 23.8 52.1442 23.736 52.5069 23.608C52.8802 23.48 53.1735 23.3307 53.3869 23.16C53.5362 23.0427 53.6962 22.984 53.8669 22.984C54.0375 22.9733 54.1869 23.0213 54.3149 23.128C54.4749 23.2773 54.5602 23.4427 54.5709 23.624C54.5815 23.7947 54.5069 23.944 54.3469 24.072C53.9842 24.36 53.5309 24.6 52.9869 24.792C52.4535 24.9733 51.9415 25.064 51.4509 25.064Z" fill="#054E5C"/>
<path d="M12.1625 27H55.8349V27.8H12.1625V27Z" fill="#054E5C"/>
</g>
<defs>
<clipPath id="clip0_87_2420">
<rect width="68" height="40" rx="20" fill="white"/>
</clipPath>
</defs>
</svg>
