<svg width="1038" height="181" viewBox="0 0 1038 181" fill="none" xmlns="http://www.w3.org/2000/svg">
<path fill-rule="evenodd" clip-rule="evenodd" d="M397.063 422.199C317.319 417.809 236.429 427.599 162.665 406.988C80.6163 384.064 0.487911 348.474 -31.1664 302.549C-62.7005 256.798 -11.3488 213.408 -2.56266 167.273C7.29916 115.49 -46.1397 47.8972 23.642 14.7585C93.7453 -18.5331 216.301 17.9266 314.945 16.4912C401.1 15.2375 470 48.5 569.5 38C664.5 -5.49999 802.304 94.6009 869.5 128C965.538 175.735 1016.98 174.033 1036.16 240.372C1054.82 304.877 872.904 319.594 786.307 359.008C729.692 384.776 688.133 420.088 615.339 431.906C546.868 443.022 471.358 426.288 397.063 422.199Z" fill="#FFC01B" fill-opacity="0.9"/>
</svg>
